SplineFontDB: 3.2
FontName: IthkuilFlow
FullName: Ithkuil Flow
FamilyName: IthkuilFlow
Weight: Regular
Copyright: Shankar Sivarajan\nBased on glyphs by Zachary Sakowitz.
UComments: "2023-2-19: Created with FontForge (http://fontforge.org)"
Version: 
ItalicAngle: 0
UnderlinePosition: -96
UnderlineWidth: 48
Ascent: 384
Descent: 128
InvalidEm: 0
LayerCount: 2
Layer: 0 0 "Back" 1
Layer: 1 0 "Fore" 0
XUID: [1021 73 1113128204 8431]
FSType: 0
OS2Version: 0
OS2_WeightWidthSlopeOnly: 0
OS2_UseTypoMetrics: 1
CreationTime: 1676795389
ModificationTime: 1693852181
PfmFamily: 17
TTFWeight: 400
TTFWidth: 5
LineGap: 48
VLineGap: 0
OS2TypoAscent: 0
OS2TypoAOffset: 1
OS2TypoDescent: 0
OS2TypoDOffset: 1
OS2TypoLinegap: 48
OS2WinAscent: 0
OS2WinAOffset: 1
OS2WinDescent: 0
OS2WinDOffset: 1
HheadAscent: 0
HheadAOffset: 1
HheadDescent: 0
HheadDOffset: 1
OS2Vendor: 'PfEd'
OS2CodePages: 00000000.00000000
OS2UnicodeRanges: 00000000.00000000.00000000.00000000
Lookup: 6 0 0 "OneQuote" { "OneQuote subtable"  } ['liga' ('grek' <'dflt' > 'latn' <'dflt' > 'DFLT' <'dflt' > ) ]
Lookup: 1 0 0 "Single Substitution lookup 1" { "Single Substitution lookup 1 subtable"  } []
Lookup: 4 0 1 "ExtraMoveDiacritic" { "ExtraMoveDiacritic subtable"  } ['liga' ('grek' <'dflt' > 'latn' <'dflt' > 'DFLT' <'dflt' > ) ]
Lookup: 4 0 1 "FlipCores" { "FlipCores subtable"  } ['liga' ('grek' <'dflt' > 'latn' <'dflt' > 'DFLT' <'dflt' > ) ]
Lookup: 4 0 1 "TertiaryLigature" { "TertiaryLigature subtable"  } ['liga' ('grek' <'dflt' > 'latn' <'dflt' > 'DFLT' <'dflt' > ) ]
Lookup: 4 0 1 "VowelLigature" { "VowelLigature subtable"  } ['liga' ('grek' <'dflt' > 'latn' <'dflt' > 'DFLT' <'dflt' > ) ]
Lookup: 4 0 1 "RegisterLigature" { "RegisterLigature subtable"  } ['liga' ('grek' <'dflt' > 'latn' <'dflt' > 'DFLT' <'dflt' > ) ]
Lookup: 6 0 0 "VowelAnchor" { "VowelAnchor contextual 0"  "VowelAnchor contextual 1"  } ['liga' ('grek' <'dflt' > 'latn' <'dflt' > 'DFLT' <'dflt' > ) ]

StartChar: RPV.VAR
Encoding: -1 -1 0
Width: 1024
VWidth: 1024
Flags: H
LayerCount: 2
Back
SplineSet
-202 543 m 4
 -202 596 -159 639 -106 639 c 4
 -53 639 -10 596 -10 543 c 4
 -10 490 -53 447 -106 447 c 4
 -159 447 -202 490 -202 543 c 4
-250 495 m 4
 -250 548 -207 591 -154 591 c 4
 -101 591 -58 548 -58 495 c 4
 -58 442 -101 399 -154 399 c 4
 -207 399 -250 442 -250 495 c 4
EndSplineSet
Fore
Validated: 1
EndChar

StartChar: two.hund
Encoding: 92 -1 1
Width: 320
GlyphClass: 4
Flags: HW
AnchorPoint: "Extension_mkmk" 0 384 mark 0
LayerCount: 2
Fore
SplineSet
9.9980391054 384 m 0
 9.9980391054 381.440123192 9.02238200756 378.880246384 7.07106781187 376.928932188 c 0
 3.16843942048 373.026303797 -3.16843942048 373.026303797 -7.07106781187 376.928932188 c 0
 -9.02238200756 378.880246384 -9.9980391054 381.440123192 -9.9980391054 384 c 0
 -9.9980391054 408.964547762 -19.3811883858 427.582248028 -33.3705671291 441.571626772 c 0
 -52.0572916893 460.258351332 -79.6625557264 470.508146439 -102.955148764 472.867095602 c 0
 -113.246172344 473.909315393 -122.552017395 473.38293084 -129.382552417 471.749213692 c 0
 -134.896372094 470.43042655 -138.493276467 468.366479449 -139.968835569 466.890920347 c 0
 -140.67768418 466.182071736 -140.953693911 465.646434326 -141.091809221 465.223406256 c 0
 -141.253155721 464.729224265 -141.398454135 464.061584199 -140.928564145 462.471322994 c 0
 -140.245417316 460.159330992 -137.978006604 456.120142228 -132.928932188 451.071067812 c 0
 -129.026303797 447.16843942 -129.026303797 440.83156058 -132.928932188 436.928932188 c 0
 -136.83156058 433.026303797 -143.16843942 433.026303797 -147.071067812 436.928932188 c 0
 -153.590249956 443.448114333 -158.058542256 449.861977464 -160.102773761 456.780324578 c 0
 -161.526896503 461.600021092 -161.633180703 466.752681734 -160.098518625 471.453139189 c 0
 -158.879827072 475.185822676 -156.738553548 478.405473615 -154.110971193 481.03305597 c 0
 -148.789825593 486.35420157 -141.775699107 489.34876339 -134.058917392 491.194451696 c 0
 -124.351200675 493.516328859 -113.025715029 493.986111316 -100.925836035 492.76070033 c 0
 -73.8388982826 490.017480242 -42.1567989036 478.642129794 -19.2284315054 455.713762395 c 0
 -1.9205867621 438.405917652 9.9980391054 414.420067623 9.9980391054 384 c 0
EndSplineSet
EndChar

StartChar: one.ten
Encoding: 93 -1 2
Width: 320
GlyphClass: 4
Flags: HW
AnchorPoint: "Extension_mkmk" 0 384 mark 0
LayerCount: 2
Fore
SplineSet
3.5527136788e-15 374.001960895 m 0
 -2.55987680809 374.001960895 -5.11975361617 374.977617992 -7.07106781187 376.928932188 c 0
 -10.9736962033 380.83156058 -10.9736962033 387.16843942 -7.07106781187 391.071067812 c 0
 -5.11975361617 393.022382008 -2.55987680809 393.998039105 -3.5527136788e-15 393.998039105 c 0
 92.6787054259 393.998039105 140.424797485 358.967338139 158.946067812 340.446067812 c 0
 165.105212857 334.286922766 168.008292369 330.018168241 168.326008092 329.541594657 c 0
 170.915519232 325.657327952 170.497205806 320.355070182 167.071067812 316.928932188 c 0
 163.16843942 313.026303797 156.83156058 313.026303797 152.928932188 316.928932188 c 0
 152.452441791 317.405422586 152.034128364 317.91820066 151.673991908 318.458405343 c 2
 151.673991908 318.458405343 150.192907325 320.914957051 144.803932188 326.303932188 c 0
 129.575202515 341.532661861 87.3212945741 374.001960895 3.5527136788e-15 374.001960895 c 0
EndSplineSet
Substitution2: "Single Substitution lookup 30 subtable" one.ten_coll
Substitution2: "Single Substitution lookup 29 subtable" one.ten_coll
EndChar

StartChar: two.ten
Encoding: 94 -1 3
Width: 320
Flags: HW
AnchorPoint: "Extension_mkmk" 0 384 mark 0
LayerCount: 2
Fore
SplineSet
-9.9980391054 384 m 0
 -9.9980391054 386.559876808 -9.02238200756 389.119753616 -7.07106781187 391.071067812 c 0
 -3.16843942048 394.973696203 3.16843942048 394.973696203 7.07106781187 391.071067812 c 0
 9.02238200756 389.119753616 9.9980391054 386.559876808 9.9980391054 384 c 0
 9.9980391054 359.035452238 19.3811883858 340.417751972 33.3705671291 326.428373228 c 0
 52.0572916893 307.741648668 79.6625557264 297.491853561 102.955148764 295.132904398 c 0
 113.246172344 294.090684607 122.552017395 294.61706916 129.382552417 296.250786308 c 0
 134.896372094 297.56957345 138.493276467 299.633520551 139.968835569 301.109079653 c 0
 140.67768418 301.817928264 140.953693911 302.353565674 141.091809221 302.776593744 c 0
 141.253155721 303.270775735 141.398454135 303.938415801 140.928564145 305.528677006 c 0
 140.245417316 307.840669008 137.978006604 311.879857772 132.928932188 316.928932188 c 0
 129.026303797 320.83156058 129.026303797 327.16843942 132.928932188 331.071067812 c 0
 136.83156058 334.973696203 143.16843942 334.973696203 147.071067812 331.071067812 c 0
 153.590249956 324.551885667 158.058542256 318.138022536 160.102773761 311.219675422 c 0
 161.526896503 306.399978908 161.633180703 301.247318266 160.098518625 296.546860811 c 0
 158.879827072 292.814177324 156.738553548 289.594526385 154.110971193 286.96694403 c 0
 148.789825593 281.64579843 141.775699107 278.65123661 134.058917392 276.805548304 c 0
 124.351200675 274.483671141 113.025715029 274.013888684 100.925836035 275.23929967 c 0
 73.8388982826 277.982519758 42.1567989036 289.357870206 19.2284315054 312.286237605 c 0
 1.9205867621 329.594082348 -9.9980391054 353.579932377 -9.9980391054 384 c 0
EndSplineSet
Substitution2: "Single Substitution lookup 30 subtable" two.ten_coll
Substitution2: "Single Substitution lookup 29 subtable" two.ten_coll
EndChar

StartChar: three.ten
Encoding: 95 -1 4
Width: 320
Flags: HW
AnchorPoint: "Extension_mkmk" 0 384 mark 0
LayerCount: 2
Fore
SplineSet
-9.9980391054 384 m 0
 -9.9980391054 386.559876808 -9.02238200756 389.119753616 -7.07106781187 391.071067812 c 0
 -3.16843942048 394.973696203 3.16843942048 394.973696203 7.07106781187 391.071067812 c 0
 9.02238200756 389.119753616 9.9980391054 386.559876808 9.9980391054 384 c 0
 9.9980391054 370.205579165 4.36121731201 357.719081688 -4.67893218813 348.678932188 c 0
 -6.92402173162 346.433842645 -9.38166818855 344.398656697 -12.019117275 342.60758481 c 1
 -3.28648507168 337.653820379 3.71398578511 332.205927616 9.29329003409 326.626623367 c 0
 29.5749324021 306.344980999 29.9980391042 285.574144883 29.9980391054 284.000000008 c 0
 29.9980391073 281.440123197 29.0223820095 278.880246386 27.0710678119 276.928932188 c 0
 23.1684394205 273.026303797 16.8315605795 273.026303797 12.9289321881 276.928932188 c 0
 11.0063852181 278.851479156 10.0309401724 281.364777549 10.0025970479 283.886785087 c 0
 9.99293277241 284.155492309 9.80980212829 288.120969342 7.62030322006 293.813666503 c 0
 5.62371939875 299.004784439 1.97807113825 305.657571016 -4.84884558964 312.484487744 c 0
 -12.5230138271 320.158655981 -24.4349032008 328.27542067 -43.1724012338 334.521253348 c 0
 -45.0934943557 335.161617721 -46.8380412344 336.389114331 -48.1106351718 338.155809961 c 0
 -51.3350130112 342.632095816 -50.3164288029 348.88563846 -45.8374410048 352.111962575 c 0
 -44.069678974 353.385324666 -42.0253964064 353.998039105 -40 353.998039105 c 0
 -31.7944208346 353.998039105 -24.2809183117 357.361217312 -18.8210678119 362.821067812 c 0
 -13.361217312 368.280918312 -9.9980391054 375.794420835 -9.9980391054 384 c 0
EndSplineSet
Substitution2: "Single Substitution lookup 30 subtable" three.ten_coll
Substitution2: "Single Substitution lookup 29 subtable" three.ten_coll
EndChar

StartChar: four.ten
Encoding: 96 -1 5
Width: 320
Flags: HW
AnchorPoint: "Extension_mkmk" 0 384 mark 0
LayerCount: 2
Fore
SplineSet
-9.9980391054 384 m 0
 -9.9980391054 386.559876808 -9.02238200756 389.119753616 -7.07106781187 391.071067812 c 0
 -3.16843942048 394.973696203 3.16843942048 394.973696203 7.07106781187 391.071067812 c 0
 9.02238200756 389.119753616 9.9980391054 386.559876808 9.9980391054 384 c 0
 9.9980391054 375.794420835 13.361217312 368.280918312 18.8210678119 362.821067812 c 0
 24.2809183117 357.361217312 31.7944208346 353.998039105 40 353.998039105 c 0
 42.0253964064 353.998039105 44.069678974 353.385324666 45.8374410048 352.111962575 c 0
 50.3164288029 348.88563846 51.3350130112 342.632095816 48.1106351718 338.155809961 c 0
 46.8380412344 336.389114331 45.0934943557 335.161617721 43.1724012338 334.521253348 c 0
 24.4349032008 328.27542067 12.5230138271 320.158655981 4.84884558964 312.484487744 c 0
 -1.97807113825 305.657571016 -5.62371939875 299.004784439 -7.62030322006 293.813666503 c 0
 -9.80980177079 288.120970269 -9.99293271184 284.1554936 -10.0025970448 283.886785219 c 0
 -10.0309401379 281.364777636 -11.006385186 278.85147919 -12.9289321881 276.928932188 c 0
 -16.8315605795 273.026303797 -23.1684394205 273.026303797 -27.0710678119 276.928932188 c 0
 -29.0223820095 278.880246386 -29.9980391073 281.440123197 -29.9980391054 284.000000008 c 0
 -29.9980391042 285.574144883 -29.5749324021 306.344980999 -9.29329003409 326.626623367 c 0
 -3.71398578511 332.205927616 3.28648507168 337.653820379 12.019117275 342.60758481 c 1
 9.38166818855 344.398656697 6.92402173162 346.433842645 4.67893218813 348.678932188 c 0
 -4.36121731201 357.719081688 -9.9980391054 370.205579165 -9.9980391054 384 c 0
EndSplineSet
Substitution2: "Single Substitution lookup 30 subtable" four.ten_coll
Substitution2: "Single Substitution lookup 29 subtable" four.ten_coll
EndChar

StartChar: five.ten
Encoding: 97 -1 6
Width: 320
Flags: HW
AnchorPoint: "Extension_mkmk" 0 384 mark 0
LayerCount: 2
Fore
SplineSet
-38.124020071 374.001960895 m 1
 -25.9337189292 367.123996544 -16.4101916439 359.352327268 -9.24893218813 352.191067812 c 0
 3.26922270623 339.672912918 8.59346000117 329.178067805 8.94492280983 328.475142188 c 0
 10.8174591612 324.730069491 10.1928408285 320.050705205 7.07106781187 316.928932188 c 0
 3.16843942048 313.026303797 -3.16843942048 313.026303797 -7.07106781187 316.928932188 c 0
 -7.85192318662 317.709787563 -8.47654151928 318.588095232 -8.94492280983 319.524857812 c 2
 -8.94492280983 319.524857812 -12.4734796601 327.131344036 -23.3910678119 338.048932188 c 0
 -39.1510236619 353.808888038 -68.8704675964 374.001960895 -120 374.001960895 c 0
 -125.518067753 374.001960895 -129.998039105 378.481932247 -129.998039105 384 c 0
 -129.998039105 389.518067753 -125.518067753 393.998039105 -120 393.998039105 c 2
 -3.5527136788e-15 393.998039105 l 2
 2.55987680809 393.998039105 5.11975361617 393.022382008 7.07106781187 391.071067812 c 0
 10.9736962033 387.16843942 10.9736962033 380.83156058 7.07106781187 376.928932188 c 0
 5.11975361617 374.977617992 2.55987680809 374.001960895 3.5527136788e-15 374.001960895 c 2
 -38.124020071 374.001960895 l 1
EndSplineSet
Substitution2: "Single Substitution lookup 30 subtable" five.ten_coll
Substitution2: "Single Substitution lookup 29 subtable" five.ten_coll
EndChar

StartChar: six.ten
Encoding: 98 -1 7
Width: 320
Flags: HW
AnchorPoint: "Extension_mkmk" 0 384 mark 0
LayerCount: 2
Fore
SplineSet
120 393.998039105 m 2
 125.518067753 393.998039105 129.998039105 389.518067753 129.998039105 384 c 0
 129.998039105 378.481932247 125.518067753 374.001960895 120 374.001960895 c 0
 68.8704675964 374.001960895 39.1510236619 353.808888038 23.3910678119 338.048932188 c 0
 12.4734796601 327.131344036 8.94492280983 319.524857812 8.94492280983 319.524857812 c 2
 8.47654151928 318.588095232 7.85192318662 317.709787563 7.07106781187 316.928932188 c 0
 3.16843942048 313.026303797 -3.16843942048 313.026303797 -7.07106781187 316.928932188 c 0
 -10.1928408285 320.050705205 -10.8174591612 324.730069491 -8.94492280983 328.475142188 c 0
 -8.59346000117 329.178067805 -3.26922270623 339.672912918 9.24893218813 352.191067812 c 0
 16.4101916439 359.352327268 25.9337189292 367.123996544 38.124020071 374.001960895 c 1
 3.5527136788e-15 374.001960895 l 2
 -2.55987680809 374.001960895 -5.11975361617 374.977617992 -7.07106781187 376.928932188 c 0
 -10.9736962033 380.83156058 -10.9736962033 387.16843942 -7.07106781187 391.071067812 c 0
 -5.11975361617 393.022382008 -2.55987680809 393.998039105 -3.5527136788e-15 393.998039105 c 2
 120 393.998039105 l 2
EndSplineSet
Substitution2: "Single Substitution lookup 30 subtable" six.ten_coll
Substitution2: "Single Substitution lookup 29 subtable" six.ten_coll
EndChar

StartChar: seven.ten
Encoding: 99 -1 8
Width: 320
Flags: HW
AnchorPoint: "Extension_mkmk" 0 384 mark 0
LayerCount: 2
Fore
SplineSet
1.24875525731 374.079678966 m 0
 -1.70945914123 373.709902166 -4.80178886383 374.65965324 -7.07106781187 376.928932188 c 0
 -10.9736962033 380.83156058 -10.9736962033 387.16843942 -7.07106781187 391.071067812 c 0
 -5.43771836852 392.704417255 -3.37797689633 393.654168329 -1.24875525731 393.920321034 c 0
 6.85909178932 394.933801915 16.2609469247 395.998039105 26 395.998039105 c 0
 44.4442264949 395.998039105 61.6338090908 393.052384523 76.0361843248 387.855059249 c 0
 87.5474818359 383.701025173 97.4022961881 378.129296094 104.68862416 370.842968122 c 0
 111.340932287 364.190659995 115.998039105 355.718670675 115.998039105 346 c 0
 115.998039105 336.281329325 111.340932287 327.809340005 104.68862416 321.157031878 c 0
 97.4022961881 313.870703906 87.5474818359 308.298974827 76.0361843248 304.144940751 c 0
 61.6338090908 298.947615477 44.4442264949 296.001960895 26 296.001960895 c 0
 -3.55915497329 296.001960895 -29.5946003343 303.105749727 -46.170609417 316.129756863 c 0
 -46.4826818859 316.37495666 -46.783484059 316.641348435 -47.0710678119 316.928932188 c 0
 -50.9736962033 320.83156058 -50.9736962033 327.16843942 -47.0710678119 331.071067812 c 0
 -43.4560231734 334.68611245 -37.7522683321 334.952504225 -33.829390583 331.870243137 c 0
 -22.4053996657 322.894250273 -0.440845026712 315.998039105 26 315.998039105 c 0
 42.2822549729 315.998039105 57.3275660035 318.658457166 69.2271979586 322.952627879 c 0
 78.7575061989 326.391790592 86.147250278 330.899929244 90.5464885362 335.299167502 c 0
 94.6169896751 339.369668641 96.0019608946 342.972503996 96.0019608946 346 c 0
 96.0019608946 349.027496004 94.6169896751 352.630331359 90.5464885362 356.700832498 c 0
 86.147250278 361.100070756 78.7575061989 365.608209408 69.2271979586 369.047372121 c 0
 57.3275660035 373.341542834 42.2822549729 376.001960895 26 376.001960895 c 0
 17.7390530753 376.001960895 9.14090821068 375.066198085 1.24875525731 374.079678966 c 0
EndSplineSet
Substitution2: "Single Substitution lookup 30 subtable" seven.ten_coll
Substitution2: "Single Substitution lookup 29 subtable" seven.ten_coll
EndChar

StartChar: eight.ten
Encoding: 100 -1 9
Width: 320
Flags: HW
AnchorPoint: "Extension_mkmk" 0 384 mark 0
LayerCount: 2
Fore
SplineSet
1.24875525731 393.920321034 m 0
 3.37797689633 393.654168329 5.43771836852 392.704417255 7.07106781187 391.071067812 c 0
 10.9736962033 387.16843942 10.9736962033 380.83156058 7.07106781187 376.928932188 c 0
 4.80178886383 374.65965324 1.70945914123 373.709902166 -1.24875525731 374.079678966 c 0
 -9.14090821068 375.066198085 -17.7390530753 376.001960895 -26 376.001960895 c 0
 -42.2822549729 376.001960895 -57.3275660035 373.341542834 -69.2271979586 369.047372121 c 0
 -78.7575061989 365.608209408 -86.147250278 361.100070756 -90.5464885362 356.700832498 c 0
 -94.6169896751 352.630331359 -96.0019608946 349.027496004 -96.0019608946 346 c 0
 -96.0019608946 342.972503996 -94.6169896751 339.369668641 -90.5464885362 335.299167502 c 0
 -86.147250278 330.899929244 -78.7575061989 326.391790592 -69.2271979586 322.952627879 c 0
 -57.3275660035 318.658457166 -42.2822549729 315.998039105 -26 315.998039105 c 0
 0.440845026712 315.998039105 22.4053996657 322.894250273 33.829390583 331.870243137 c 0
 37.7522683321 334.952504225 43.4560231734 334.68611245 47.0710678119 331.071067812 c 0
 50.9736962033 327.16843942 50.9736962033 320.83156058 47.0710678119 316.928932188 c 0
 46.783484059 316.641348435 46.4826818859 316.37495666 46.170609417 316.129756863 c 0
 29.5946003343 303.105749727 3.55915497329 296.001960895 -26 296.001960895 c 0
 -44.4442264949 296.001960895 -61.6338090908 298.947615477 -76.0361843248 304.144940751 c 0
 -87.5474818359 308.298974827 -97.4022961881 313.870703906 -104.68862416 321.157031878 c 0
 -111.340932287 327.809340005 -115.998039105 336.281329325 -115.998039105 346 c 0
 -115.998039105 355.718670675 -111.340932287 364.190659995 -104.68862416 370.842968122 c 0
 -97.4022961881 378.129296094 -87.5474818359 383.701025173 -76.0361843248 387.855059249 c 0
 -61.6338090908 393.052384523 -44.4442264949 395.998039105 -26 395.998039105 c 0
 -16.2609469247 395.998039105 -6.85909178932 394.933801915 1.24875525731 393.920321034 c 0
EndSplineSet
Substitution2: "Single Substitution lookup 30 subtable" eight.ten_coll
Substitution2: "Single Substitution lookup 29 subtable" eight.ten_coll
EndChar

StartChar: nine.ten
Encoding: 101 -1 10
Width: 320
Flags: HW
AnchorPoint: "Extension_mkmk" 0 384 mark 0
LayerCount: 2
Fore
SplineSet
7.07106781187 376.928932188 m 0
 3.16843942048 373.026303797 -3.16843942048 373.026303797 -7.07106781187 376.928932188 c 0
 -10.9736962033 380.83156058 -10.9736962033 387.16843942 -7.07106781187 391.071067812 c 0
 1.86717218202 400.009307806 11.5038660505 405.287118367 21.2885302963 406.765219079 c 0
 33.6665928542 408.635086313 44.9922476217 404.077844357 52.9419058431 396.128186136 c 0
 71.1284385316 377.941653447 72.9594852201 342.817349596 47.0710678119 316.928932188 c 0
 43.1684394205 313.026303797 36.8315605795 313.026303797 32.9289321881 316.928932188 c 0
 29.0263037967 320.83156058 29.0263037967 327.16843942 32.9289321881 331.071067812 c 0
 51.9647398046 350.106875428 48.2653616661 372.520459065 38.7997702193 381.986050512 c 0
 34.7549139341 386.030906797 29.9238168915 387.845119503 24.2952443933 386.994850469 c 0
 19.6746005942 386.296842166 13.7220611403 383.579925517 7.07106781187 376.928932188 c 0
EndSplineSet
Substitution2: "Single Substitution lookup 30 subtable" nine.ten_coll
Substitution2: "Single Substitution lookup 29 subtable" nine.ten_coll
EndChar

StartChar: one.hund
Encoding: 102 -1 11
Width: 320
Flags: HW
HStem: 135 84G<78 84> 186 37<70 91>
VStem: 78 37<165 186>
AnchorPoint: "Extension_mkmk" 0 384 mark 0
LayerCount: 2
Fore
SplineSet
-3.5527136788e-15 393.998039105 m 0
 2.55987680809 393.998039105 5.11975361617 393.022382008 7.07106781187 391.071067812 c 0
 10.9736962033 387.16843942 10.9736962033 380.83156058 7.07106781187 376.928932188 c 0
 5.11975361617 374.977617992 2.55987680809 374.001960895 3.5527136788e-15 374.001960895 c 0
 -92.6787054259 374.001960895 -140.424797485 409.032661861 -158.946067812 427.553932188 c 0
 -165.105212857 433.713077234 -168.008292369 437.981831759 -168.326008092 438.458405343 c 0
 -170.915519232 442.342672048 -170.497205806 447.644929818 -167.071067812 451.071067812 c 0
 -163.16843942 454.973696203 -156.83156058 454.973696203 -152.928932188 451.071067812 c 0
 -152.452441791 450.594577414 -152.034128364 450.08179934 -151.673991908 449.541594657 c 2
 -151.673991908 449.541594657 -150.192907325 447.085042949 -144.803932188 441.696067812 c 0
 -129.575202515 426.467338139 -87.3212945741 393.998039105 -3.5527136788e-15 393.998039105 c 0
EndSplineSet
EndChar

StartChar: three.hund
Encoding: 103 -1 12
Width: 320
Flags: HW
AnchorPoint: "Extension_mkmk" 0 384 mark 0
LayerCount: 2
Fore
SplineSet
9.9980391054 384 m 0
 9.9980391054 381.440123192 9.02238200756 378.880246384 7.07106781187 376.928932188 c 0
 3.16843942048 373.026303797 -3.16843942048 373.026303797 -7.07106781187 376.928932188 c 0
 -9.02238200756 378.880246384 -9.9980391054 381.440123192 -9.9980391054 384 c 0
 -9.9980391054 397.794420835 -4.36121731201 410.280918312 4.67893218813 419.321067812 c 0
 6.92402173162 421.566157355 9.38166818855 423.601343303 12.019117275 425.39241519 c 1
 3.28648507168 430.346179621 -3.71398578511 435.794072384 -9.29329003409 441.373376633 c 0
 -29.5749324021 461.655019001 -29.9980391042 482.425855117 -29.9980391054 483.999999992 c 0
 -29.9980391073 486.559876803 -29.0223820095 489.119753614 -27.0710678119 491.071067812 c 0
 -23.1684394205 494.973696203 -16.8315605795 494.973696203 -12.9289321881 491.071067812 c 0
 -11.0063852181 489.148520844 -10.0309401724 486.635222451 -10.0025970479 484.113214913 c 0
 -9.99293277241 483.844507691 -9.80980212829 479.879030658 -7.62030322006 474.186333497 c 0
 -5.62371939875 468.995215561 -1.97807113825 462.342428984 4.84884558964 455.515512256 c 0
 12.5230138271 447.841344019 24.4349032008 439.72457933 43.1724012338 433.478746652 c 0
 45.0934943555 432.838382279 46.8380412341 431.61088567 48.1106351715 429.844190039 c 0
 51.3350130112 425.367904185 50.3164288032 419.114361541 45.8374410053 415.888037425 c 0
 44.0696789744 414.614675334 42.0253964066 414.001960895 40 414.001960895 c 0
 31.7944208346 414.001960895 24.2809183117 410.638782688 18.8210678119 405.178932188 c 0
 13.361217312 399.719081688 9.9980391054 392.205579165 9.9980391054 384 c 0
EndSplineSet
EndChar

StartChar: four.hund
Encoding: 104 -1 13
Width: 320
Flags: HW
AnchorPoint: "Extension_mkmk" 0 384 mark 0
LayerCount: 2
Fore
SplineSet
9.9980391054 384 m 0
 9.9980391054 381.440123192 9.02238200756 378.880246384 7.07106781187 376.928932188 c 0
 3.16843942048 373.026303797 -3.16843942048 373.026303797 -7.07106781187 376.928932188 c 0
 -9.02238200756 378.880246384 -9.9980391054 381.440123192 -9.9980391054 384 c 0
 -9.9980391054 392.205579165 -13.361217312 399.719081688 -18.8210678119 405.178932188 c 0
 -24.2809183117 410.638782688 -31.7944208346 414.001960895 -40 414.001960895 c 0
 -42.0253964066 414.001960895 -44.0696789744 414.614675334 -45.8374410053 415.888037425 c 0
 -50.3164288032 419.114361541 -51.3350130112 425.367904185 -48.1106351715 429.844190039 c 0
 -46.8380412341 431.61088567 -45.0934943555 432.838382279 -43.1724012338 433.478746652 c 0
 -24.4349032008 439.72457933 -12.5230138271 447.841344019 -4.84884558964 455.515512256 c 0
 1.97807113825 462.342428984 5.62371939875 468.995215561 7.62030322006 474.186333497 c 0
 9.80980177079 479.879029731 9.99293271184 483.8445064 10.0025970448 484.113214781 c 0
 10.0309401379 486.635222364 11.006385186 489.14852081 12.9289321881 491.071067812 c 0
 16.8315605795 494.973696203 23.1684394205 494.973696203 27.0710678119 491.071067812 c 0
 29.0223820095 489.119753614 29.9980391073 486.559876803 29.9980391054 483.999999992 c 0
 29.9980391042 482.425855117 29.5749324021 461.655019001 9.29329003409 441.373376633 c 0
 3.71398578511 435.794072384 -3.28648507168 430.346179621 -12.019117275 425.39241519 c 1
 -9.38166818855 423.601343303 -6.92402173162 421.566157355 -4.67893218813 419.321067812 c 0
 4.36121731201 410.280918312 9.9980391054 397.794420835 9.9980391054 384 c 0
EndSplineSet
EndChar

StartChar: five.hund
Encoding: 105 -1 14
Width: 320
Flags: HW
AnchorPoint: "Extension_mkmk" 0 384 mark 0
LayerCount: 2
Fore
SplineSet
38.124020071 393.998039105 m 1
 25.9337189292 400.876003456 16.4101916439 408.647672732 9.24893218813 415.808932188 c 0
 -3.26922270623 428.327087082 -8.59346000117 438.821932195 -8.94492280983 439.524857812 c 0
 -10.8174591612 443.269930509 -10.1928408285 447.949294795 -7.07106781187 451.071067812 c 0
 -3.16843942048 454.973696203 3.16843942048 454.973696203 7.07106781187 451.071067812 c 0
 7.85192318662 450.290212437 8.47654151928 449.411904768 8.94492280983 448.475142188 c 2
 8.94492280983 448.475142188 12.4734796601 440.868655964 23.3910678119 429.951067812 c 0
 39.1510236619 414.191111962 68.8704675964 393.998039105 120 393.998039105 c 0
 125.518067753 393.998039105 129.998039105 389.518067753 129.998039105 384 c 0
 129.998039105 378.481932247 125.518067753 374.001960895 120 374.001960895 c 2
 3.5527136788e-15 374.001960895 l 2
 -2.55987680809 374.001960895 -5.11975361617 374.977617992 -7.07106781187 376.928932188 c 0
 -10.9736962033 380.83156058 -10.9736962033 387.16843942 -7.07106781187 391.071067812 c 0
 -5.11975361617 393.022382008 -2.55987680809 393.998039105 -3.5527136788e-15 393.998039105 c 2
 38.124020071 393.998039105 l 1
EndSplineSet
EndChar

StartChar: six.hund
Encoding: 106 -1 15
Width: 320
Flags: HW
AnchorPoint: "Extension_mkmk" 0 384 mark 0
LayerCount: 2
Fore
SplineSet
-120 374.001960895 m 2
 -125.518067753 374.001960895 -129.998039105 378.481932247 -129.998039105 384 c 0
 -129.998039105 389.518067753 -125.518067753 393.998039105 -120 393.998039105 c 0
 -68.8704675964 393.998039105 -39.1510236619 414.191111962 -23.3910678119 429.951067812 c 0
 -12.4734796601 440.868655964 -8.94492280983 448.475142188 -8.94492280983 448.475142188 c 2
 -8.47654151928 449.411904768 -7.85192318662 450.290212437 -7.07106781187 451.071067812 c 0
 -3.16843942048 454.973696203 3.16843942048 454.973696203 7.07106781187 451.071067812 c 0
 10.1928408285 447.949294795 10.8174591612 443.269930509 8.94492280983 439.524857812 c 0
 8.59346000117 438.821932195 3.26922270623 428.327087082 -9.24893218813 415.808932188 c 0
 -16.4101916439 408.647672732 -25.9337189292 400.876003456 -38.124020071 393.998039105 c 1
 -3.5527136788e-15 393.998039105 l 2
 2.55987680809 393.998039105 5.11975361617 393.022382008 7.07106781187 391.071067812 c 0
 10.9736962033 387.16843942 10.9736962033 380.83156058 7.07106781187 376.928932188 c 0
 5.11975361617 374.977617992 2.55987680809 374.001960895 3.5527136788e-15 374.001960895 c 2
 -120 374.001960895 l 2
EndSplineSet
EndChar

StartChar: seven.hund
Encoding: 107 -1 16
Width: 320
Flags: HW
AnchorPoint: "Extension_mkmk" 0 384 mark 0
LayerCount: 2
Fore
SplineSet
-1.24875525731 393.920321034 m 0
 1.70945914123 394.290097834 4.80178886383 393.34034676 7.07106781187 391.071067812 c 0
 10.9736962033 387.16843942 10.9736962033 380.83156058 7.07106781187 376.928932188 c 0
 5.43771836852 375.295582745 3.37797689633 374.345831671 1.24875525731 374.079678966 c 0
 -6.85909178932 373.066198085 -16.2609469247 372.001960895 -26 372.001960895 c 0
 -44.4442264949 372.001960895 -61.6338090908 374.947615477 -76.0361843248 380.144940751 c 0
 -87.5474818359 384.298974827 -97.4022961881 389.870703906 -104.68862416 397.157031878 c 0
 -111.340932287 403.809340005 -115.998039105 412.281329325 -115.998039105 422 c 0
 -115.998039105 431.718670675 -111.340932287 440.190659995 -104.68862416 446.842968122 c 0
 -97.4022961881 454.129296094 -87.5474818359 459.701025173 -76.0361843248 463.855059249 c 0
 -61.6338090908 469.052384523 -44.4442264949 471.998039105 -26 471.998039105 c 0
 3.55915497329 471.998039105 29.5946003343 464.894250273 46.170609417 451.870243137 c 0
 46.4826818859 451.62504334 46.783484059 451.358651565 47.0710678119 451.071067812 c 0
 50.9736962033 447.16843942 50.9736962033 440.83156058 47.0710678119 436.928932188 c 0
 43.4560231734 433.31388755 37.7522683321 433.047495775 33.829390583 436.129756863 c 0
 22.4053996657 445.105749727 0.440845026712 452.001960895 -26 452.001960895 c 0
 -42.2822549729 452.001960895 -57.3275660035 449.341542834 -69.2271979586 445.047372121 c 0
 -78.7575061989 441.608209408 -86.147250278 437.100070756 -90.5464885362 432.700832498 c 0
 -94.6169896751 428.630331359 -96.0019608946 425.027496004 -96.0019608946 422 c 0
 -96.0019608946 418.972503996 -94.6169896751 415.369668641 -90.5464885362 411.299167502 c 0
 -86.147250278 406.899929244 -78.7575061989 402.391790592 -69.2271979586 398.952627879 c 0
 -57.3275660035 394.658457166 -42.2822549729 391.998039105 -26 391.998039105 c 0
 -17.7390530753 391.998039105 -9.14090821068 392.933801915 -1.24875525731 393.920321034 c 0
EndSplineSet
EndChar

StartChar: eight.hund
Encoding: 108 -1 17
Width: 320
Flags: HW
AnchorPoint: "Extension_mkmk" 0 384 mark 0
LayerCount: 2
Fore
SplineSet
-1.24875525731 374.079678966 m 0
 -3.37797689633 374.345831671 -5.43771836852 375.295582745 -7.07106781187 376.928932188 c 0
 -10.9736962033 380.83156058 -10.9736962033 387.16843942 -7.07106781187 391.071067812 c 0
 -4.80178886383 393.34034676 -1.70945914123 394.290097834 1.24875525731 393.920321034 c 0
 9.14090821068 392.933801915 17.7390530753 391.998039105 26 391.998039105 c 0
 42.2822549729 391.998039105 57.3275660035 394.658457166 69.2271979586 398.952627879 c 0
 78.7575061989 402.391790592 86.147250278 406.899929244 90.5464885362 411.299167502 c 0
 94.6169896751 415.369668641 96.0019608946 418.972503996 96.0019608946 422 c 0
 96.0019608946 425.027496004 94.6169896751 428.630331359 90.5464885362 432.700832498 c 0
 86.147250278 437.100070756 78.7575061989 441.608209408 69.2271979586 445.047372121 c 0
 57.3275660035 449.341542834 42.2822549729 452.001960895 26 452.001960895 c 0
 -0.440845026712 452.001960895 -22.4053996657 445.105749727 -33.829390583 436.129756863 c 0
 -37.7522683321 433.047495775 -43.4560231734 433.31388755 -47.0710678119 436.928932188 c 0
 -50.9736962033 440.83156058 -50.9736962033 447.16843942 -47.0710678119 451.071067812 c 0
 -46.783484059 451.358651565 -46.4826818859 451.62504334 -46.170609417 451.870243137 c 0
 -29.5946003343 464.894250273 -3.55915497329 471.998039105 26 471.998039105 c 0
 44.4442264949 471.998039105 61.6338090908 469.052384523 76.0361843248 463.855059249 c 0
 87.5474818359 459.701025173 97.4022961881 454.129296094 104.68862416 446.842968122 c 0
 111.340932287 440.190659995 115.998039105 431.718670675 115.998039105 422 c 0
 115.998039105 412.281329325 111.340932287 403.809340005 104.68862416 397.157031878 c 0
 97.4022961881 389.870703906 87.5474818359 384.298974827 76.0361843248 380.144940751 c 0
 61.6338090908 374.947615477 44.4442264949 372.001960895 26 372.001960895 c 0
 16.2609469247 372.001960895 6.85909178932 373.066198085 -1.24875525731 374.079678966 c 0
EndSplineSet
EndChar

StartChar: nine.hund
Encoding: 109 -1 18
Width: 320
Flags: HW
AnchorPoint: "Extension_mkmk" 0 384 mark 0
LayerCount: 2
Fore
SplineSet
-7.07106781187 391.071067812 m 0
 -3.16843942048 394.973696203 3.16843942048 394.973696203 7.07106781187 391.071067812 c 0
 10.9736962033 387.16843942 10.9736962033 380.83156058 7.07106781187 376.928932188 c 0
 -1.86717218202 367.990692194 -11.5038660505 362.712881633 -21.2885302963 361.234780921 c 0
 -33.6665928542 359.364913687 -44.9922476217 363.922155643 -52.9419058431 371.871813864 c 0
 -71.1284385316 390.058346553 -72.9594852201 425.182650404 -47.0710678119 451.071067812 c 0
 -43.1684394205 454.973696203 -36.8315605795 454.973696203 -32.9289321881 451.071067812 c 0
 -29.0263037967 447.16843942 -29.0263037967 440.83156058 -32.9289321881 436.928932188 c 0
 -51.9647398046 417.893124572 -48.2653616661 395.479540935 -38.7997702193 386.013949488 c 0
 -34.7549139341 381.969093203 -29.9238168915 380.154880497 -24.2952443933 381.005149531 c 0
 -19.6746005942 381.703157834 -13.7220611403 384.420074483 -7.07106781187 391.071067812 c 0
EndSplineSet
EndChar

StartChar: b
Encoding: 28 98 19
Width: 320
Flags: HW
AnchorPoint: "Diacritic_down" 160 -60 basechar 0
AnchorPoint: "Diacritic_up" 160 360 basechar 0
AnchorPoint: "Extension_up" 260 280 basechar 0
AnchorPoint: "Extension_down" 160 0 basechar 0
AnchorPoint: "Diacritic_left" 60 140 basechar 0
AnchorPoint: "Diacritic_right" 260 140 basechar 0
LayerCount: 2
Fore
SplineSet
182.401684841 163.456179535 m 1
 169.998039105 175.859825271 l 1
 169.998039105 160.328086986 l 1
 174.019574147 161.003135363 178.153399833 162.034301481 182.401684841 163.456179535 c 1
260 289.998039105 m 2
 262.559876808 289.998039105 265.119753616 289.022382008 267.071067812 287.071067812 c 0
 270.973696203 283.16843942 270.973696203 276.83156058 267.071067812 272.928932188 c 0
 265.119753616 270.977617992 262.559876808 270.001960895 260 270.001960895 c 2
 70.3329141868 270.001960895 l 1
 72.6120188726 235.835794583 86.3762844794 202.765851144 107.071067812 182.071067812 c 0
 117.126089714 172.01604591 128.718405011 164.888892595 141.389813518 161.536793909 c 0
 144.191039608 160.795756613 147.062121891 160.230018562 150.004208214 159.857889913 c 1
 150.004208214 173.23898153 150.004772558 186.620073146 150.004772558 200.001164763 c 0
 150.004772558 201.275327061 150.249855928 202.570334623 150.767448756 203.81997371 c 0
 152.879293414 208.918660335 158.733133589 211.343678879 163.831577604 209.231934708 c 0
 165.081157228 208.714366509 166.170129326 207.972006297 167.071067812 207.071067812 c 2
 207.073166628 167.084016805 l 2
 207.449031606 166.708151827 207.799714719 166.297325521 208.120498966 165.852303827 c 0
 211.348302631 161.374394859 210.334421292 155.119086986 205.857800282 151.892211717 c 0
 205.412906588 151.571519736 204.950448221 151.292730206 204.475142183 151.055077188 c 0
 192.749516312 145.192264252 181.183010514 141.635838742 169.998039105 140.167872507 c 1
 169.998039105 3.5527136788e-15 l 2
 169.998039105 -2.55987680809 169.022382008 -5.11975361617 167.071067812 -7.07106781187 c 0
 163.16843942 -10.9736962033 156.83156058 -10.9736962033 152.928932188 -7.07106781187 c 0
 150.977617992 -5.11975361617 150.001960895 -2.55987680809 150.001960895 -3.5527136788e-15 c 0
 150.001960895 46.5878547563 150.003925723 93.1757095126 150.003925723 139.763564269 c 1
 145.312571676 140.204225858 140.721832218 141.025291053 136.250790049 142.208062058 c 0
 119.676656717 146.592588887 105.096132509 155.761731868 92.9289321881 167.928932188 c 0
 65.6330725481 195.224791828 50.0114493526 237.613955374 50.0114493526 279.988807573 c 0
 50.0114493526 280.385656903 50.0350772809 280.786737132 50.0835369285 281.190516116 c 0
 50.6926112058 286.265488894 55.012123883 289.998039105 60 289.998039105 c 2
 260 289.998039105 l 2
EndSplineSet
Substitution2: "Single Substitution lookup 19 subtable" b.ext.up
Substitution2: "Single Substitution lookup 18 subtable" b.ext.down
EndChar

StartChar: c
Encoding: 29 99 20
Width: 320
Flags: HW
AnchorPoint: "Diacritic_right" 200 140 basechar 0
AnchorPoint: "Diacritic_left" 0 140 basechar 0
AnchorPoint: "Diacritic_down" 160 -60 basechar 0
AnchorPoint: "Diacritic_up" 160 360 basechar 0
AnchorPoint: "Extension_up" 60 280 basechar 0
AnchorPoint: "Extension_down" 260 0 basechar 0
LayerCount: 2
Fore
SplineSet
50.0019608946 280 m 2
 50.0019608946 282.559876808 50.9776179924 285.119753616 52.9289321881 287.071067812 c 0
 56.8315605795 290.973696203 63.1684394205 290.973696203 67.0710678119 287.071067812 c 0
 69.0223820076 285.119753616 69.9980391054 282.559876808 69.9980391054 280 c 2
 69.9980391054 9.9980391054 l 1
 260 9.9980391054 l 2
 262.559876808 9.9980391054 265.119753616 9.02238200756 267.071067812 7.07106781187 c 0
 270.973696203 3.16843942048 270.973696203 -3.16843942048 267.071067812 -7.07106781187 c 0
 265.119753616 -9.02238200756 262.559876808 -9.9980391054 260 -9.9980391054 c 2
 60.0099980438 -9.98899073889 l 2
 59.7357894533 -9.98899073889 59.4593937856 -9.97776276632 59.1812910911 -9.95489970546 c 0
 53.9598793149 -9.52564296832 50.0019608946 -5.14829950126 50.0019608946 -3.5527136788e-15 c 2
 50.0019608946 280 l 2
EndSplineSet
Substitution2: "Single Substitution lookup 19 subtable" c.ext.up
Substitution2: "Single Substitution lookup 18 subtable" c.ext.down
EndChar

StartChar: d
Encoding: 30 100 21
Width: 320
Flags: HW
AnchorPoint: "Diacritic_left" 0 140 basechar 0
AnchorPoint: "Diacritic_right" 200 140 basechar 0
AnchorPoint: "Diacritic_down" 160 -60 basechar 0
AnchorPoint: "Diacritic_up" 160 360 basechar 0
AnchorPoint: "Extension_up" 260 280 basechar 0
AnchorPoint: "Extension_down" 100 0 basechar 0
LayerCount: 2
Fore
SplineSet
260 289.998039105 m 2
 262.559876808 289.998039105 265.119753616 289.022382008 267.071067812 287.071067812 c 0
 270.973696203 283.16843942 270.973696203 276.83156058 267.071067812 272.928932188 c 0
 265.119753616 270.977617992 262.559876808 270.001960895 260 270.001960895 c 2
 69.9980391054 270.001960895 l 1
 69.9980391054 164.140174729 l 1
 92.9289321881 187.071067812 l 2
 93.8298706747 187.972006298 94.9188427745 188.714366511 96.1684223996 189.23193471 c 0
 101.266866415 191.343678878 107.120706589 188.918660332 109.232551246 183.819973706 c 0
 109.750144073 182.570334621 109.995227442 181.27532706 109.995227442 180.001164763 c 2
 109.998039105 3.5527136788e-15 l 2
 109.998039105 -2.55987680809 109.022382008 -5.11975361617 107.071067812 -7.07106781187 c 0
 103.16843942 -10.9736962033 96.8315605795 -10.9736962033 92.9289321881 -7.07106781187 c 0
 90.9776179924 -5.11975361617 90.0019608946 -2.55987680809 90.0019608946 -3.5527136788e-15 c 2
 90.0019608946 155.861522003 l 1
 67.0682561489 132.930096951 l 2
 66.1673176626 132.029158465 65.0783455632 131.286798253 63.8287659386 130.769230054 c 0
 58.730321923 128.657485884 52.8764817487 131.08250443 50.7646370918 136.181191055 c 0
 50.2470442643 137.430830141 50.0019608946 138.725837703 50.0019608946 140 c 2
 50.0114493526 279.988807573 l 2
 50.0114493526 280.385656903 50.0350772809 280.786737132 50.0835369285 281.190516116 c 0
 50.6926112058 286.265488894 55.012123883 289.998039105 60 289.998039105 c 2
 260 289.998039105 l 2
EndSplineSet
Substitution2: "Single Substitution lookup 19 subtable" d.ext.up
Substitution2: "Single Substitution lookup 18 subtable" d.ext.down
EndChar

StartChar: f
Encoding: 32 102 22
Width: 320
Flags: HW
AnchorPoint: "Diacritic_left" 60 140 basechar 0
AnchorPoint: "Diacritic_right" 260 140 basechar 0
AnchorPoint: "Diacritic_down" 160 -60 basechar 0
AnchorPoint: "Diacritic_up" 160 360 basechar 0
AnchorPoint: "Extension_down" 180 0 basechar 0
AnchorPoint: "Extension_up" 260 280 basechar 0
LayerCount: 2
Fore
SplineSet
260 289.998039105 m 0
 262.559876808 289.998039105 265.119753616 289.022382008 267.071067812 287.071067812 c 0
 270.973696203 283.16843942 270.973696203 276.83156058 267.071067812 272.928932188 c 0
 265.119753616 270.977617992 262.559876808 270.001960895 260 270.001960895 c 0
 196.411004074 270.001960895 152.127625928 266.766390988 122.626479835 260.63301037 c 0
 98.924903929 255.705378547 85.3071582904 248.897011755 78.302124068 241.891977533 c 0
 72.3008103397 235.890663805 69.9980391054 229.282984048 69.9980391054 220 c 0
 69.9980391054 204.561319291 74.8816327455 194.569144854 82.2151007337 187.235676865 c 0
 93.8079210502 175.642856549 113.615619511 170.126147075 133.01955916 168.438847975 c 0
 157.372712573 166.321182461 178.345695659 169.861205625 178.345695659 169.861205625 c 2
 178.618202758 169.906623475 178.894767303 169.941182505 179.17497384 169.96439264 c 0
 184.679264621 170.420325361 189.517898741 166.32546099 189.973447613 160.825804268 c 0
 189.996638207 160.545833636 190.008025778 160.267584997 190.008025778 159.991548427 c 2
 189.998039105 3.5527136788e-15 l 2
 189.998039105 -2.55987680809 189.022382008 -5.11975361617 187.071067812 -7.07106781187 c 0
 183.16843942 -10.9736962033 176.83156058 -10.9736962033 172.928932188 -7.07106781187 c 0
 170.977617992 -5.11975361617 170.001960895 -2.55987680809 170.001960895 -3.5527136788e-15 c 2
 170.001960895 148.723835266 l 1
 160.647602691 147.87255076 146.586595828 147.18700462 131.274614605 148.518481248 c 0
 109.962087139 150.371744506 85.1586998918 156.00780646 68.0729651099 173.093541242 c 0
 56.9702191064 184.196287245 50.0019608946 199.883125153 50.0019608946 220 c 0
 50.0019608946 233.179128464 54.0060208918 245.880145604 64.1599884443 256.034113157 c 0
 75.5472236472 267.42134836 93.0864141249 274.91808001 118.532378453 280.208375646 c 0
 150.465657652 286.84740435 195.727023731 289.998039105 260 289.998039105 c 0
EndSplineSet
Substitution2: "Single Substitution lookup 19 subtable" f.ext.up
Substitution2: "Single Substitution lookup 18 subtable" f.ext.down
EndChar

StartChar: g
Encoding: 33 103 23
Width: 320
Flags: HW
HStem: -244 84G<351 446> -4 40<223 431>
AnchorPoint: "Diacritic_right" 260 140 basechar 0
AnchorPoint: "Diacritic_left" 60 140 basechar 0
AnchorPoint: "Diacritic_down" 160 -60 basechar 0
AnchorPoint: "Diacritic_up" 160 360 basechar 0
AnchorPoint: "Extension_down" 240 0 basechar 0
AnchorPoint: "Extension_up" 280 280 basechar 0
LayerCount: 2
Fore
SplineSet
280 289.998039105 m 2
 282.559876808 289.998039105 285.119753616 289.022382008 287.071067812 287.071067812 c 0
 290.973696203 283.16843942 290.973696203 276.83156058 287.071067812 272.928932188 c 0
 285.119753616 270.977617992 282.559876808 270.001960895 280 270.001960895 c 2
 50.1784732076 270.001960895 l 1
 51.9953785801 220.583616483 67.2697714541 192.270288045 83.9731642906 175.566895209 c 0
 95.3328109726 164.207248527 107.793709746 157.87743707 118.169387863 154.351721205 c 0
 123.436004506 152.56209419 127.921810776 151.506365514 131.432157329 150.884224576 c 0
 133.254835897 157.623193646 136.754492279 163.646627903 141.553932188 168.446067812 c 0
 148.819119699 175.711255323 158.889042966 179.998039105 170 179.998039105 c 0
 187.312388465 179.998039105 201.599288969 173.038714424 212.382863454 162.255139938 c 0
 221.929266925 152.708736467 228.767243746 140.5008455 233.940635321 127.269782092 c 0
 240.414265977 110.713328466 244.302854977 92.3584687731 246.711488317 74.8098544426 c 0
 252.126164394 35.360071597 250.002332475 -0.223048394235 249.980658005 -0.59151439071 c 0
 249.841876993 -2.95079158858 248.872013596 -5.27012202781 247.071067812 -7.07106781187 c 0
 243.16843942 -10.9736962033 236.83156058 -10.9736962033 232.928932188 -7.07106781187 c 0
 230.827249581 -4.96938520453 229.857386183 -2.16173442808 230.019341995 0.59151439071 c 2
 230.019341995 0.59151439071 232.043027846 34.6185762063 226.902335875 72.0721891336 c 0
 224.636121565 88.5831791107 220.955909608 105.549390552 215.317809756 119.968955658 c 0
 210.801816925 131.518707235 205.042934427 141.310797718 198.240727831 148.113004314 c 0
 190.63211599 155.721616155 181.778520625 160.001960895 170 160.001960895 c 0
 164.110957034 160.001960895 159.180880301 157.788744677 155.696067812 154.303932188 c 0
 152.211927129 150.819791505 149.997324684 145.887966288 149.997324684 140.000717097 c 0
 149.997324684 139.988114917 149.997301298 139.975507358 149.997254486 139.962894462 c 0
 149.976821457 134.457477607 145.500739878 130.001960891 139.999999993 130.001960895 c 0
 138.883933899 129.951586342 101.30420191 129.951586342 69.8310286669 161.424759585 c 0
 47.7312746568 183.524513595 30.0099663918 220.362097937 30.0099663918 279.9914014 c 0
 30.0099663918 280.199862816 30.0164361613 280.409640399 30.0295565743 280.620529277 c 0
 30.3590792483 285.917059708 34.7644358997 289.998039105 40 289.998039105 c 2
 280 289.998039105 l 2
EndSplineSet
Substitution2: "Single Substitution lookup 19 subtable" g.ext.up
Substitution2: "Single Substitution lookup 18 subtable" g.ext.down
EndChar

StartChar: h
Encoding: 34 104 24
Width: 320
Flags: HW
AnchorPoint: "Diacritic_right" 290 140 basechar 0
AnchorPoint: "Diacritic_left" 30 140 basechar 0
AnchorPoint: "Diacritic_down" 160 -60 basechar 0
AnchorPoint: "Diacritic_up" 160 360 basechar 0
AnchorPoint: "Extension_down" 200 0 basechar 0
AnchorPoint: "Extension_up" 80 280 basechar 0
LayerCount: 2
Fore
SplineSet
215.859825271 129.998039105 m 1
 209.998039105 135.859825271 l 1
 209.998039105 129.998039105 l 1
 215.859825271 129.998039105 l 1
70.0019608946 280 m 2
 70.0019608946 282.559876808 70.9776179924 285.119753616 72.9289321881 287.071067812 c 0
 76.8315605795 290.973696203 83.1684394205 290.973696203 87.0710678119 287.071067812 c 0
 89.0223820076 285.119753616 89.9980391054 282.559876808 89.9980391054 280 c 2
 89.9980391054 129.998039105 l 1
 190.00424532 129.998039105 l 1
 190.00424532 139.999080991 190.004772558 150.000122877 190.004772558 160.001164763 c 0
 190.004772558 161.275327061 190.249855928 162.570334623 190.767448756 163.81997371 c 0
 192.879293414 168.918660335 198.73313359 171.343678879 203.831577604 169.231934708 c 0
 205.081157228 168.714366509 206.170129326 167.972006297 207.071067812 167.071067812 c 2
 247.069903049 127.068256149 l 2
 247.970841535 126.167317663 248.713201747 125.078345563 249.230769946 123.828765939 c 0
 251.342514116 118.730321923 248.91749557 112.876481749 243.818808945 110.764637092 c 0
 242.569169859 110.247044264 241.274162297 110.001960895 240 110.001960895 c 0
 229.999346368 110.001960895 219.998692737 110.00103524 209.998039105 110.00103524 c 1
 209.998039105 3.5527136788e-15 l 2
 209.998039105 -2.55987680809 209.022382008 -5.11975361617 207.071067812 -7.07106781187 c 0
 203.16843942 -10.9736962033 196.83156058 -10.9736962033 192.928932188 -7.07106781187 c 0
 190.977617992 -5.11975361617 190.001960895 -2.55987680809 190.001960895 -3.5527136788e-15 c 0
 190.001960895 36.6668061194 190.003893906 73.3336122387 190.003893906 110.000418358 c 1
 153.334334327 110.000418358 116.664774747 109.997024246 79.9952151674 109.997024246 c 0
 74.6127854569 109.997024246 70.1656297444 114.285444744 70.0063575553 119.701235473 c 0
 70.0034198363 119.801127809 70.0019608946 119.900722997 70.0019608946 120 c 2
 70.0019608946 280 l 2
EndSplineSet
Substitution2: "Single Substitution lookup 19 subtable" h.ext.up
Substitution2: "Single Substitution lookup 18 subtable" h.ext.down
EndChar

StartChar: j
Encoding: 36 106 25
Width: 320
Flags: HW
AnchorPoint: "Diacritic_left" 10 140 basechar 0
AnchorPoint: "Diacritic_right" 240 140 basechar 0
AnchorPoint: "Diacritic_down" 160 -60 basechar 0
AnchorPoint: "Diacritic_up" 160 360 basechar 0
AnchorPoint: "Extension_down" 260 0 basechar 0
AnchorPoint: "Extension_up" 260 280 basechar 0
LayerCount: 2
Fore
SplineSet
260 289.998039105 m 0
 262.559876808 289.998039105 265.119753616 289.022382008 267.071067812 287.071067812 c 0
 270.973696203 283.16843942 270.973696203 276.83156058 267.071067812 272.928932188 c 0
 265.119753616 270.977617992 262.559876808 270.001960895 260 270.001960895 c 0
 208.268990679 270.001960895 170.497741494 265.213033554 143.796500389 257.289821143 c 0
 122.414892161 250.945133905 108.287426488 242.653423651 99.2850204345 233.651017598 c 0
 86.0880424808 220.454039644 82.3461794253 204.694741308 83.9938087499 185.855092439 c 0
 86.0620445638 162.20606172 97.3451367264 134.648273151 108.415484814 108.190700343 c 0
 117.285146942 86.9926558333 126.017731961 66.5896852755 128.896129221 47.9093476298 c 0
 130.95243919 34.5642249571 129.918359849 20.8113230124 121.461532924 9.9980391054 c 1
 260 9.9980391054 l 2
 262.559876808 9.9980391054 265.119753616 9.02238200756 267.071067812 7.07106781187 c 0
 270.973696203 3.16843942048 270.973696203 -3.16843942048 267.071067812 -7.07106781187 c 0
 265.119753616 -9.02238200756 262.559876808 -9.9980391054 260 -9.9980391054 c 2
 60 -9.9980391054 l 2
 54.4819322471 -9.9980391054 50.0019608946 -5.51806775286 50.0019608946 0 c 0
 50.0019608946 5.51806775286 54.4819322471 9.9980391054 60 9.9980391054 c 0
 85.7702522248 9.9980391054 98.716274269 15.1457789801 104.275400819 20.7049055297 c 0
 109.200451239 25.6299559503 110.97844102 32.8784580798 109.134715304 44.8439429638 c 0
 106.857182233 59.6247681644 98.8331658215 79.2692287112 89.9683123429 100.455780794 c 0
 78.9117081296 126.880506435 66.545530353 155.843278583 64.0743078689 184.100219136 c 0
 62.0903705551 206.785347284 66.9472203115 229.597488722 85.1428848108 247.793153221 c 0
 97.2486468049 259.898915215 114.534741795 269.469757793 138.083395274 276.457484797 c 0
 167.544981305 285.199790189 207.056404638 289.998039105 260 289.998039105 c 0
EndSplineSet
Substitution2: "Single Substitution lookup 19 subtable" j.ext.up
Substitution2: "Single Substitution lookup 18 subtable" j.ext.down
EndChar

StartChar: k
Encoding: 37 107 26
Width: 320
Flags: HW
AnchorPoint: "Diacritic_right" 200 140 basechar 0
AnchorPoint: "Diacritic_left" 0 140 basechar 0
AnchorPoint: "Diacritic_down" 160 -60 basechar 0
AnchorPoint: "Diacritic_up" 160 360 basechar 0
AnchorPoint: "Extension_down" 200 0 basechar 0
AnchorPoint: "Extension_up" 280 280 basechar 0
LayerCount: 2
Fore
SplineSet
280 289.998039105 m 2
 282.559876808 289.998039105 285.119753616 289.022382008 287.071067812 287.071067812 c 0
 290.973696203 283.16843942 290.973696203 276.83156058 287.071067812 272.928932188 c 0
 285.119753616 270.977617992 282.559876808 270.001960895 280 270.001960895 c 2
 48.2726089721 270.001960895 l 1
 29.0483951986 163.937835814 56.7098015424 95.4941861234 96.597896044 55.6060916219 c 0
 128.127883363 24.0761043032 168.06096407 9.9980391054 200 9.9980391054 c 0
 202.559876808 9.9980391054 205.119753616 9.02238200756 207.071067812 7.07106781187 c 0
 210.973696203 3.16843942048 210.973696203 -3.16843942048 207.071067812 -7.07106781187 c 0
 205.119753616 -9.02238200756 202.559876808 -9.9980391054 200 -9.9980391054 c 0
 162.457668584 -9.9980391054 117.82294317 6.09677324822 82.4557604203 41.4639559981 c 0
 36.1803614812 87.7393549372 7.07414109178 166.309716842 30.2085792742 281.981907755 c 0
 31.1382281975 286.630152371 35.2519826425 289.998039105 40 289.998039105 c 2
 280 289.998039105 l 2
EndSplineSet
Substitution2: "Single Substitution lookup 19 subtable" k.ext.up
Substitution2: "Single Substitution lookup 18 subtable" k.ext.down
EndChar

StartChar: l
Encoding: 38 108 27
Width: 320
Flags: HW
AnchorPoint: "Diacritic_left" 20 140 basechar 0
AnchorPoint: "Diacritic_right" 220 140 basechar 0
AnchorPoint: "Diacritic_down" 160 -60 basechar 0
AnchorPoint: "Diacritic_up" 160 360 basechar 0
AnchorPoint: "Extension_up" 60 280 basechar 0
AnchorPoint: "Extension_down" 260 0 basechar 0
LayerCount: 2
Fore
SplineSet
50.0019608946 280 m 2
 50.0019608946 282.559876808 50.9776179924 285.119753616 52.9289321881 287.071067812 c 0
 56.8315605795 290.973696203 63.1684394205 290.973696203 67.0710678119 287.071067812 c 0
 69.0223820076 285.119753616 69.9980391054 282.559876808 69.9980391054 280 c 2
 69.9980391054 149.916005256 l 1
 97.5442794216 149.452323567 118.591527049 147.031623893 134.628376753 142.873922118 c 0
 148.916419467 139.169614747 159.547280703 134.082854921 166.880347812 126.749787812 c 0
 171.567277674 122.06285795 174.687916789 116.466011264 175.966690279 110.451039668 c 0
 177.961950364 101.065927415 175.510719652 91.8465799995 171.364342009 83.5267242059 c 0
 166.133758716 73.031370801 157.824883256 63.0215906079 148.213066309 53.4097736607 c 0
 131.689053074 36.8857604255 110.902217545 21.3775857888 94.2425955729 9.9980391054 c 1
 260 9.9980391054 l 2
 262.559876808 9.9980391054 265.119753616 9.02238200756 267.071067812 7.07106781187 c 0
 270.973696203 3.16843942048 270.973696203 -3.16843942048 267.071067812 -7.07106781187 c 0
 265.119753616 -9.02238200756 262.559876808 -9.9980391054 260 -9.9980391054 c 2
 59.9983946739 -9.99209875287 l 2
 58.3096043517 -9.99209875287 56.5984538291 -9.56405275928 55.0303013767 -8.66325499715 c 0
 50.2446165412 -5.91420200578 48.591371366 0.203470415754 51.3407219998 4.98967340155 c 0
 52.241617292 6.5579956391 53.5041545869 7.78999911177 54.9629756139 8.64097804462 c 2
 54.9629756139 8.64097804462 103.714209261 37.1951878602 134.070930686 67.5519092844 c 0
 142.784516527 76.2654951255 149.760384429 85.0245472201 153.46294481 92.4538677224 c 0
 156.463082106 98.4737510544 157.093342532 103.053881401 156.409868539 106.268740552 c 0
 155.966598693 108.353750572 154.984693235 110.361171141 152.738212188 112.607652188 c 0
 149.175919297 116.169945079 141.920913866 120.321940808 129.58495658 123.520151957 c 0
 114.236906975 127.499275928 91.4662671551 130.007530727 60.008813609 130.007530727 c 0
 59.3417883137 130.007530727 58.6649219159 130.074714425 57.9862622753 130.214382543 c 0
 53.2601236388 131.187021626 50.0019608946 135.354882136 50.0019608946 140 c 2
 50.0019608946 280 l 2
EndSplineSet
Substitution2: "Single Substitution lookup 19 subtable" l.ext.up
Substitution2: "Single Substitution lookup 18 subtable" l.ext.down
EndChar

StartChar: m
Encoding: 39 109 28
Width: 320
Flags: HW
AnchorPoint: "Diacritic_right" 230 140 basechar 0
AnchorPoint: "Diacritic_left" 30 140 basechar 0
AnchorPoint: "Diacritic_down" 160 -60 basechar 0
AnchorPoint: "Diacritic_up" 160 360 basechar 0
AnchorPoint: "Extension_up" 90 280 basechar 0
AnchorPoint: "Extension_down" 230 0 basechar 0
LayerCount: 2
Fore
SplineSet
80.0019608946 280 m 2
 80.0019608946 282.559876808 80.9776179924 285.119753616 82.9289321881 287.071067812 c 0
 86.8315605795 290.973696203 93.1684394205 290.973696203 97.0710678119 287.071067812 c 0
 99.0223820076 285.119753616 99.9980391054 282.559876808 99.9980391054 280 c 2
 99.9980391054 149.826534064 l 1
 149.901430618 148.086006984 182.997953517 133.242834896 204.29365107 111.947137343 c 0
 240.565311452 75.6754769606 239.998039105 24.4885459991 239.998039105 3.5527136788e-15 c 0
 239.998039105 -2.55987680809 239.022382008 -5.11975361617 237.071067812 -7.07106781187 c 0
 233.16843942 -10.9736962033 226.83156058 -10.9736962033 222.928932188 -7.07106781187 c 0
 220.977617992 -5.11975361617 220.001960895 -2.55987680809 220.001960895 -3.5527136788e-15 c 0
 220.001960895 24.8181099924 219.434688548 68.5218286172 190.151515446 97.8050017193 c 0
 172.037572671 115.918944495 141.887591127 130.008616473 90.0096595699 130.008616473 c 0
 89.3928143979 130.008616473 88.7672257681 130.066024568 88.1391483911 130.185101787 c 0
 83.3457339331 131.093885457 80.0019608946 135.292308441 80.0019608946 140 c 2
 80.0019608946 280 l 2
EndSplineSet
Substitution2: "Single Substitution lookup 19 subtable" m.ext.up
Substitution2: "Single Substitution lookup 18 subtable" m.ext.down
EndChar

StartChar: n
Encoding: 40 110 29
Width: 320
Flags: HW
AnchorPoint: "Diacritic_right" 240 140 basechar 0
AnchorPoint: "Diacritic_left" 40 140 basechar 0
AnchorPoint: "Diacritic_down" 160 -60 basechar 0
AnchorPoint: "Diacritic_up" 160 360 basechar 0
AnchorPoint: "Extension_up" 90 280 basechar 0
AnchorPoint: "Extension_down" 230 0 basechar 0
LayerCount: 2
Fore
SplineSet
80.0019608946 280 m 2
 80.0019608946 282.559876808 80.9776179924 285.119753616 82.9289321881 287.071067812 c 0
 86.8315605795 290.973696203 93.1684394205 290.973696203 97.0710678119 287.071067812 c 0
 99.0223820076 285.119753616 99.9980391054 282.559876808 99.9980391054 280 c 2
 99.9980391054 160 l 2
 99.9980391054 151.794420835 103.361217312 144.280918312 108.821067812 138.821067812 c 0
 112.200957856 135.441177767 116.367840229 132.864766108 120.998711487 131.392283162 c 1
 122.945100935 142.270506925 127.695586376 151.999222625 134.839988009 159.143624258 c 0
 141.373618335 165.677254584 150.116330511 169.998039105 160 169.998039105 c 0
 178.239560367 169.998039105 193.361944126 163.32730355 204.719069207 151.970178469 c 0
 218.776056869 137.913190807 226.876686543 117.765566549 231.97030088 95.0171263246 c 0
 238.359171268 66.4839813941 239.998039105 33.1209905094 239.998039105 3.5527136788e-15 c 0
 239.998039105 -2.55987680809 239.022382008 -5.11975361617 237.071067812 -7.07106781187 c 0
 233.16843942 -10.9736962033 226.83156058 -10.9736962033 222.928932188 -7.07106781187 c 0
 220.977617992 -5.11975361617 220.001960895 -2.55987680809 220.001960895 -3.5527136788e-15 c 0
 220.001960895 32.4261043187 218.284249325 64.6102082622 212.459610183 90.6234567267 c 0
 207.782416897 111.512131218 200.443803669 127.96117276 190.576933583 137.828042845 c 0
 182.765276815 145.639699613 173.271861615 150.001960895 160 150.001960895 c 0
 156.113563106 150.001960895 152.398389174 148.417754176 148.982123633 145.001488634 c 0
 143.918630359 139.937995361 140.00911621 130.809814712 140.00911621 119.991395991 c 0
 140.00911621 118.600373587 139.717394064 117.187449063 139.101135502 115.840810828 c 0
 137.421192703 112.169827013 133.791976642 110.001960895 130 110.001960895 c 0
 116.205579165 110.001960895 103.719081688 115.638782688 94.6789321881 124.678932188 c 0
 85.638782688 133.719081688 80.0019608946 146.205579165 80.0019608946 160 c 2
 80.0019608946 280 l 2
EndSplineSet
Substitution2: "Single Substitution lookup 19 subtable" n.ext.up
Substitution2: "Single Substitution lookup 18 subtable" n.ext.down
EndChar

StartChar: p
Encoding: 42 112 30
Width: 320
Flags: HW
AnchorPoint: "Diacritic_left" 40 140 basechar 0
AnchorPoint: "Diacritic_right" 240 140 basechar 0
AnchorPoint: "Diacritic_down" 160 -60 basechar 0
AnchorPoint: "Diacritic_up" 160 360 basechar 0
AnchorPoint: "Extension_down" 180 0 basechar 0
AnchorPoint: "Extension_up" 260 280 basechar 0
LayerCount: 2
Fore
SplineSet
260 289.998039105 m 2
 262.559876808 289.998039105 265.119753616 289.022382008 267.071067812 287.071067812 c 0
 270.973696203 283.16843942 270.973696203 276.83156058 267.071067812 272.928932188 c 0
 265.119753616 270.977617992 262.559876808 270.001960895 260 270.001960895 c 2
 70.2248338035 270.001960895 l 1
 71.7670243273 236.838250137 81.1334241443 213.008711479 97.0710678119 197.071067812 c 0
 114.567203221 179.574932403 141.57414489 169.998039105 180 169.998039105 c 0
 181.87626796 169.998039105 183.773406112 169.471047378 185.459562087 168.368538884 c 0
 188.39183368 166.451246304 189.985570818 163.251480724 189.985570818 159.988599161 c 2
 189.998039105 3.5527136788e-15 l 2
 189.998039105 -2.55987680809 189.022382008 -5.11975361617 187.071067812 -7.07106781187 c 0
 183.16843942 -10.9736962033 176.83156058 -10.9736962033 172.928932188 -7.07106781187 c 0
 170.977617992 -5.11975361617 170.001960895 -2.55987680809 170.001960895 -3.5527136788e-15 c 2
 170.001960895 150.210777789 l 1
 133.114891469 151.782152891 103.597763058 162.260101318 82.9289321881 182.928932188 c 0
 60.4199788278 205.437885548 50.0114493526 238.430968865 50.0114493526 279.988807573 c 0
 50.0114493526 280.385656903 50.0350772809 280.786737132 50.0835369285 281.190516116 c 0
 50.6926112058 286.265488894 55.012123883 289.998039105 60 289.998039105 c 2
 260 289.998039105 l 2
EndSplineSet
Substitution2: "Single Substitution lookup 19 subtable" p.ext.up
Substitution2: "Single Substitution lookup 18 subtable" p.ext.down
EndChar

StartChar: r
Encoding: 43 114 31
Width: 320
Flags: HW
AnchorPoint: "Diacritic_right" 260 140 basechar 0
AnchorPoint: "Diacritic_left" 60 140 basechar 0
AnchorPoint: "Diacritic_down" 160 -60 basechar 0
AnchorPoint: "Diacritic_up" 160 360 basechar 0
AnchorPoint: "Extension_up" 60 280 basechar 0
AnchorPoint: "Extension_down" 260 0 basechar 0
LayerCount: 2
Fore
SplineSet
60 270.001960895 m 0
 57.4401231919 270.001960895 54.8802463838 270.977617992 52.9289321881 272.928932188 c 0
 49.0263037967 276.83156058 49.0263037967 283.16843942 52.9289321881 287.071067812 c 0
 54.8802463838 289.022382008 57.4401231919 289.998039105 60 289.998039105 c 0
 102.108916243 289.998039105 134.915238022 276.726897602 157.071067812 254.571067812 c 0
 174.562399476 237.079736148 184.996869728 214.508666763 188.579579082 189.907969336 c 0
 195.742629716 140.722834889 175.876687182 83.5213423888 130.576386906 38.2210421127 c 0
 120.508456614 28.153111821 109.181963502 18.6741570009 96.6038006598 9.9980391054 c 1
 260 9.9980391054 l 2
 262.559876808 9.9980391054 265.119753616 9.02238200756 267.071067812 7.07106781187 c 0
 270.973696203 3.16843942048 270.973696203 -3.16843942048 267.071067812 -7.07106781187 c 0
 265.119753616 -9.02238200756 262.559876808 -9.9980391054 260 -9.9980391054 c 2
 59.9985940692 -9.99208789931 l 2
 58.2051296728 -9.99208789931 56.3898519834 -9.51015075292 54.7533638953 -8.49892249713 c 0
 50.0579974215 -5.5975342841 48.6011023135 0.569400177074 51.5019827779 5.26394495251 c 0
 52.5130340668 6.900146652 53.9208600445 8.14292392631 55.5248578167 8.94492281243 c 0
 79.704615242 21.0348015251 99.9945792959 35.9235057499 116.434251282 52.3631777364 c 0
 157.945613765 93.8745402192 174.867167975 145.302283341 168.793549337 187.006825797 c 0
 165.757924056 207.850966822 157.068018168 226.289846208 142.928932188 240.428932188 c 0
 125.084761978 258.273102398 97.8910837574 270.001960895 60 270.001960895 c 0
EndSplineSet
Substitution2: "Single Substitution lookup 19 subtable" r.ext.up
Substitution2: "Single Substitution lookup 18 subtable" r.ext.down
EndChar

StartChar: s
Encoding: 44 115 32
Width: 320
Flags: HW
AnchorPoint: "Diacritic_left" 0 140 basechar 0
AnchorPoint: "Diacritic_right" 240 140 basechar 0
AnchorPoint: "Diacritic_down" 160 -60 basechar 0
AnchorPoint: "Diacritic_up" 160 360 basechar 0
AnchorPoint: "Extension_up" 260 280 basechar 0
AnchorPoint: "Extension_down" 220 0 basechar 0
LayerCount: 2
Fore
SplineSet
250.164127104 281.799700904 m 0
 250.515318106 283.731251415 251.436919801 285.579055424 252.928932188 287.071067812 c 0
 256.83156058 290.973696203 263.16843942 290.973696203 267.071067812 287.071067812 c 0
 269.481683816 284.660451808 270.40328551 281.321068474 269.835872896 278.200299096 c 0
 260.395698958 226.279342435 244.288572901 192.631644378 223.648218472 171.991289949 c 0
 200.515969551 148.859041028 172.586434851 143.665928586 147.13654106 147.069112058 c 0
 124.588830515 150.084212887 103.789323534 159.474136687 87.5179598241 168.790804617 c 0
 81.1128891337 172.458224132 75.3953081101 176.133469318 70.5564830766 179.457473527 c 1
 74.1591170657 114.950864527 94.7467015778 75.4549694722 119.288872868 50.9127981817 c 0
 154.115065302 16.0866057483 199.087684435 9.9980391054 220 9.9980391054 c 0
 222.559876808 9.9980391054 225.119753616 9.02238200756 227.071067812 7.07106781187 c 0
 230.973696203 3.16843942048 230.973696203 -3.16843942048 227.071067812 -7.07106781187 c 0
 225.119753616 -9.02238200756 222.559876808 -9.9980391054 220 -9.9980391054 c 0
 195.936134274 -9.9980391054 145.361150029 -3.44375022636 105.146737245 36.7706625579 c 0
 73.7571426406 68.1602571619 50.0030744512 119.223320559 50.0030744512 200.000505946 c 0
 50.0030744512 201.16816397 50.2090261603 202.35539042 50.6435075693 203.512415467 c 0
 52.5837758509 208.679354612 58.3514812557 211.299920689 63.5154077775 209.360783695 c 0
 64.6717582125 208.926555614 65.7004057235 208.300271273 66.5787723196 207.531700502 c 2
 66.5787723196 207.531700502 107.032625965 172.607202599 149.805079669 166.887630301 c 0
 170.748415703 164.087067924 191.369935471 167.997278195 209.506082848 186.133425572 c 0
 226.007285087 202.634627812 241.142762581 232.182196027 250.164127104 281.799700904 c 0
EndSplineSet
Substitution2: "Single Substitution lookup 19 subtable" s.ext.up
Substitution2: "Single Substitution lookup 18 subtable" s.ext.down
EndChar

StartChar: t
Encoding: 45 116 33
Width: 320
Flags: HW
AnchorPoint: "Diacritic_left" 0 140 basechar 0
AnchorPoint: "Diacritic_right" 200 140 basechar 0
AnchorPoint: "Diacritic_down" 160 -60 basechar 0
AnchorPoint: "Diacritic_up" 160 360 basechar 0
AnchorPoint: "Extension_up" 260 280 basechar 0
AnchorPoint: "Extension_down" 60 0 basechar 0
LayerCount: 2
Fore
SplineSet
260 289.998039105 m 2
 262.559876808 289.998039105 265.119753616 289.022382008 267.071067812 287.071067812 c 0
 270.973696203 283.16843942 270.973696203 276.83156058 267.071067812 272.928932188 c 0
 265.119753616 270.977617992 262.559876808 270.001960895 260 270.001960895 c 2
 69.9980391054 270.001960895 l 1
 69.9980391054 3.5527136788e-15 l 2
 69.9980391054 -2.55987680809 69.0223820076 -5.11975361617 67.0710678119 -7.07106781187 c 0
 63.1684394205 -10.9736962033 56.8315605795 -10.9736962033 52.9289321881 -7.07106781187 c 0
 50.9776179924 -5.11975361617 50.0019608946 -2.55987680809 50.0019608946 -3.5527136788e-15 c 2
 50.0114493526 279.988807573 l 2
 50.0114493526 280.385656903 50.0350772809 280.786737132 50.0835369285 281.190516116 c 0
 50.6926112058 286.265488894 55.012123883 289.998039105 60 289.998039105 c 2
 260 289.998039105 l 2
EndSplineSet
Substitution2: "Single Substitution lookup 19 subtable" t.ext.up
Substitution2: "Single Substitution lookup 18 subtable" t.ext.down
EndChar

StartChar: v
Encoding: 47 118 34
Width: 320
Flags: HW
HStem: -244 84G<300 340> -104 40<271 300> -4 40<240 400>
VStem: 200 40<-94 -4> 300 40<-204 -104>
AnchorPoint: "Diacritic_left" 60 140 basechar 0
AnchorPoint: "Diacritic_right" 260 140 basechar 0
AnchorPoint: "Diacritic_down" 160 -60 basechar 0
AnchorPoint: "Diacritic_up" 160 360 basechar 0
AnchorPoint: "Extension_up" 260 280 basechar 0
AnchorPoint: "Extension_down" 60 0 basechar 0
LayerCount: 2
Fore
SplineSet
111.782052666 157.482908947 m 1
 120.33669376 147.217339634 l 1
 120.431987548 150.499648245 120.551687548 153.737129473 120.700700609 156.92941454 c 0
 117.812170944 157.145455088 114.839678718 157.33043537 111.782052666 157.482908947 c 1
260 289.998039105 m 0
 262.559876808 289.998039105 265.119753616 289.022382008 267.071067812 287.071067812 c 0
 270.973696203 283.16843942 270.973696203 276.83156058 267.071067812 272.928932188 c 0
 265.119753616 270.977617992 262.559876808 270.001960895 260 270.001960895 c 0
 211.592551751 270.001960895 183.940389618 259.94147815 167.606565642 243.607654174 c 0
 157.238503477 233.239592009 150.569753998 219.576542462 146.376223233 202.018818119 c 0
 144.400480988 193.746662823 143.007654719 184.651915757 142.039137493 174.792965088 c 1
 153.614022721 173.173229245 163.848025593 170.961700907 172.866156588 168.209339628 c 0
 189.410562768 163.159936045 202.016587148 156.255253906 210.94274995 147.329091104 c 0
 221.137589978 137.134251075 225.851661507 124.518560392 225.54138364 111.561760176 c 0
 225.295369554 101.288531867 222.082519301 91.1470275339 216.981088163 81.4263459979 c 0
 211.231532913 70.4706760996 203.00074931 59.8928856759 193.065934447 49.9580708124 c 0
 174.622008807 31.5141451727 150.253566186 15.2538549877 124.155959191 4.25928055433 c 0
 103.28492944 -4.53340645883 81.2180069678 -9.9980391054 60 -9.9980391054 c 0
 57.4401231919 -9.9980391054 54.8802463838 -9.02238200756 52.9289321881 -7.07106781187 c 0
 49.0263037967 -3.16843942048 49.0263037967 3.16843942048 52.9289321881 7.07106781187 c 0
 54.8802463838 9.02238200756 57.4401231919 9.9980391054 60 9.9980391054 c 0
 77.7339318514 9.9980391054 97.4009022293 14.6935863993 116.376372366 22.6876993792 c 0
 140.08689023 32.6766249372 162.577520963 47.7539285758 178.923798823 64.1002064361 c 0
 187.711442921 72.8878505337 194.7078667 82.0324254056 199.268907736 90.7234037173 c 0
 203.332451074 98.4664094791 205.39984554 105.728766598 205.551080197 112.044129189 c 0
 205.737363259 119.823067598 203.318314504 126.669255302 196.800614326 133.18695548 c 0
 190.993100803 138.994469004 181.420246073 144.686655279 167.004644386 149.086341192 c 0
 159.513602292 151.372630248 150.755746475 153.300553992 140.651816411 154.772230782 c 1
 140.162274657 143.895759777 139.998039105 132.285251137 139.998039105 120 c 0
 139.998039105 118.580337597 139.694242709 117.138698971 139.052529601 115.769308849 c 0
 136.710918314 110.772403958 130.750917139 108.617605942 125.751479188 110.960404252 c 0
 124.381394887 111.602442661 123.224722258 112.516058613 122.315581618 113.607027382 c 2
 82.3110364542 161.605384108 l 2
 81.5885405022 162.472379251 81.0020533152 163.477224631 80.5961749082 164.599037316 c 0
 78.7196351936 169.785630195 81.4098185447 175.521025778 86.5999093585 177.398831065 c 0
 87.7224786144 177.804983204 88.8706429633 177.997617807 89.9998023902 177.997617807 c 0
 101.548146108 177.997617807 112.235866818 177.620912863 122.117135108 176.889585197 c 1
 123.160908271 187.393188525 124.694567585 197.331620867 126.929506144 206.688994727 c 0
 131.6801455 226.579254501 139.750571532 244.035931312 153.464430018 257.749789798 c 0
 175.285008469 279.570368249 209.239339825 289.998039105 260 289.998039105 c 0
EndSplineSet
Substitution2: "Single Substitution lookup 19 subtable" v.ext.up
Substitution2: "Single Substitution lookup 18 subtable" v.ext.down
EndChar

StartChar: x
Encoding: 49 120 35
Width: 320
Flags: HW
HStem: -244 84G<269 379> -4 40<229 431>
AnchorPoint: "Diacritic_left" 40 140 basechar 0
AnchorPoint: "Diacritic_right" 240 140 basechar 0
AnchorPoint: "Diacritic_up" 160 360 basechar 0
AnchorPoint: "Diacritic_down" 160 -60 basechar 0
AnchorPoint: "Extension_up" 280 280 basechar 0
AnchorPoint: "Extension_down" 280 0 basechar 0
LayerCount: 2
Fore
SplineSet
280 289.998039105 m 2
 282.559876808 289.998039105 285.119753616 289.022382008 287.071067812 287.071067812 c 0
 290.973696203 283.16843942 290.973696203 276.83156058 287.071067812 272.928932188 c 0
 285.119753616 270.977617992 282.559876808 270.001960895 280 270.001960895 c 2
 50.1079976458 270.001960895 l 1
 51.3601927345 214.272844356 63.1674319721 185.247996751 78.340013496 170.075415227 c 0
 97.7134966342 150.701932089 126.566824998 149.998039105 160 149.998039105 c 0
 161.88991539 149.998039105 163.800529793 149.463453344 165.494573125 148.345656687 c 0
 168.406300927 146.424383752 169.985620087 143.237141148 169.985620087 139.988747743 c 0
 169.985620087 77.7137563904 182.296370504 46.1190582195 198.340013496 30.0754152271 c 0
 217.713496634 10.7019320889 246.566824998 9.9980391054 280 9.9980391054 c 0
 282.559876808 9.9980391054 285.119753616 9.02238200756 287.071067812 7.07106781187 c 0
 290.973696203 3.16843942048 290.973696203 -3.16843942048 287.071067812 -7.07106781187 c 0
 285.119753616 -9.02238200756 282.559876808 -9.9980391054 280 -9.9980391054 c 0
 247.706468101 -9.9980391054 210.833089565 -10.7019320889 184.197877872 15.9332796034 c 0
 163.422352797 36.7088046785 151.326417263 71.7107680713 150.104547071 130.009249962 c 1
 120.37287381 130.138064946 88.1467934367 131.984364039 64.1978778723 155.933279603 c 0
 42.2572196642 177.873937811 30.0099663918 215.669662062 30.0099663918 279.9914014 c 0
 30.0099663918 280.199862816 30.0164361613 280.409640399 30.0295565743 280.620529277 c 0
 30.3590792483 285.917059708 34.7644358997 289.998039105 40 289.998039105 c 2
 280 289.998039105 l 2
EndSplineSet
Substitution2: "Single Substitution lookup 19 subtable" x.ext.up
Substitution2: "Single Substitution lookup 18 subtable" x.ext.down
EndChar

StartChar: z
Encoding: 51 122 36
Width: 320
Flags: HW
AnchorPoint: "Diacritic_left" 0 140 basechar 0
AnchorPoint: "Diacritic_right" 300 140 basechar 0
AnchorPoint: "Diacritic_up" 160 360 basechar 0
AnchorPoint: "Diacritic_down" 160 -60 basechar 0
AnchorPoint: "Extension_up" 80 280 basechar 0
AnchorPoint: "Extension_down" 240 0 basechar 0
LayerCount: 2
Fore
SplineSet
70.745484177 156.603348553 m 1
 64.1401747291 149.998039105 l 1
 71.2471626762 149.998039105 l 1
 71.0590944435 152.171928927 70.8917318851 154.373593905 70.745484177 156.603348553 c 1
80 270.001960895 m 0
 77.4401231919 270.001960895 74.8802463838 270.977617992 72.9289321881 272.928932188 c 0
 69.0263037967 276.83156058 69.0263037967 283.16843942 72.9289321881 287.071067812 c 0
 74.8802463838 289.022382008 77.4401231919 289.998039105 80 289.998039105 c 0
 140.390754704 289.998039105 180.296236563 270.540113937 205.838911538 244.997438961 c 0
 249.998039105 200.838311394 249.998039105 140.000000006 249.998039105 140.000000006 c 1
 249.998039109 134.482152949 245.518379178 130.002230586 240.000471791 130.001970201 c 0
 191.300992395 130.001970201 142.601512999 130.001963403 93.9020336036 130.001963403 c 1
 100.55213973 91.0819448028 115.069438491 65.1124100765 132.600534168 47.5813143993 c 0
 163.864153849 16.3176947178 207.235793233 9.9980391054 240 9.9980391054 c 0
 242.559876808 9.9980391054 245.119753616 9.02238200756 247.071067812 7.07106781187 c 0
 250.973696203 3.16843942048 250.973696203 -3.16843942048 247.071067812 -7.07106781187 c 0
 245.119753616 -9.02238200756 242.559876808 -9.9980391054 240 -9.9980391054 c 0
 205.152926887 -9.9980391054 155.517257685 -3.619680365 118.458398544 33.4391787756 c 0
 97.027742746 54.8698345739 80.6387061893 85.9354007243 73.6704920389 130.001962461 c 1
 62.4469946926 130.001962461 51.2234973463 130.001960895 40 130.001960895 c 0
 38.7258377026 130.001960895 37.4308301411 130.247044264 36.1811910548 130.764637092 c 0
 31.0825044294 132.876481749 28.6574858843 138.730321923 30.7692300538 143.828765939 c 0
 31.2867982527 145.078345563 32.0291584647 146.167317663 32.9300969509 147.068256149 c 2
 72.9289321881 187.071067812 l 2
 73.8298706746 187.972006298 74.9188427745 188.714366511 76.1684223994 189.231934709 c 0
 81.2668664153 191.343678878 87.1207065893 188.918660332 89.2325512456 183.819973706 c 0
 89.7501440728 182.570334621 89.9952274424 181.27532706 89.9952274424 180.001164763 c 0
 89.9952274424 169.33052808 90.4485690587 159.344672842 91.3062455888 149.998039105 c 1
 229.271289647 149.998039105 l 1
 227.267315535 167.086494047 219.767156943 202.78492231 191.696775915 230.855303338 c 0
 170.116986578 252.435092675 135.97288166 270.001960895 80 270.001960895 c 0
EndSplineSet
Substitution2: "Single Substitution lookup 19 subtable" z.ext.up
Substitution2: "Single Substitution lookup 18 subtable" z.ext.down
EndChar

StartChar: zcaron
Encoding: 72 382 37
Width: 320
Flags: HW
AnchorPoint: "Diacritic_right" 280 140 basechar 0
AnchorPoint: "Diacritic_left" 40 140 basechar 0
AnchorPoint: "Diacritic_up" 160 360 basechar 0
AnchorPoint: "Diacritic_down" 160 -60 basechar 0
AnchorPoint: "Extension_up" 100 280 basechar 0
AnchorPoint: "Extension_down" 220 0 basechar 0
LayerCount: 2
Fore
SplineSet
90.0019608946 280 m 0
 90.0019608946 282.559876808 90.9776179924 285.119753616 92.9289321881 287.071067812 c 0
 96.8315605795 290.973696203 103.16843942 290.973696203 107.071067812 287.071067812 c 0
 109.022382008 285.119753616 109.998039105 282.559876808 109.998039105 280 c 0
 109.998039105 236.84975018 122.181215962 201.032963307 144.912055201 178.302124068 c 0
 162.609781226 160.604398043 187.190580427 149.998039105 220 149.998039105 c 0
 225.518067753 149.998039105 229.998039105 145.518067753 229.998039105 140 c 0
 229.998039105 134.481932247 225.518067753 130.001960895 220 130.001960895 c 0
 171.772011246 130.001960895 140.179662611 116.691910016 124.012293109 100.524540513 c 0
 113.222575431 89.7348228353 109.085419633 77.8343600146 110.161501146 66.5772645659 c 0
 111.029036791 57.5018075202 115.378630277 48.1091223184 124.012293109 39.4754594866 c 0
 140.179662611 23.3080899843 171.772011246 9.9980391054 220 9.9980391054 c 0
 222.559876808 9.9980391054 225.119753616 9.02238200756 227.071067812 7.07106781187 c 0
 230.973696203 3.16843942048 230.973696203 -3.16843942048 227.071067812 -7.07106781187 c 0
 225.119753616 -9.02238200756 222.559876808 -9.9980391054 220 -9.9980391054 c 0
 168.345607331 -9.9980391054 131.232106164 3.97137518422 109.870157485 25.3333238628 c 0
 95.5617636122 39.6417177357 88.5442031653 57.4235118135 90.2568007129 75.3393237802 c 0
 91.6202083175 89.6021926668 98.4253310761 103.221849728 109.870157485 114.666676137 c 0
 121.959360857 126.755879509 139.093283425 136.477490214 161.052496709 142.639469541 c 1
 149.637167814 148.17235803 139.513617894 155.416290128 130.769919577 164.159988444 c 0
 103.046108964 191.883799057 90.0019608946 233.301799771 90.0019608946 280 c 0
EndSplineSet
Substitution2: "Single Substitution lookup 19 subtable" zcaron.ext.up
Substitution2: "Single Substitution lookup 18 subtable" zcaron.ext.down
EndChar

StartChar: zdotaccent
Encoding: 71 380 38
Width: 320
Flags: HW
AnchorPoint: "Diacritic_right" 260 140 basechar 0
AnchorPoint: "Diacritic_left" 20 140 basechar 0
AnchorPoint: "Diacritic_up" 160 360 basechar 0
AnchorPoint: "Diacritic_down" 160 -60 basechar 0
AnchorPoint: "Extension_up" 120 280 basechar 0
AnchorPoint: "Extension_down" 260 0 basechar 0
LayerCount: 2
Fore
SplineSet
110.001960895 280 m 2
 110.001960895 282.559876808 110.977617992 285.119753616 112.928932188 287.071067812 c 0
 116.83156058 290.973696203 123.16843942 290.973696203 127.071067812 287.071067812 c 0
 129.022382008 285.119753616 129.998039105 282.559876808 129.998039105 280 c 2
 129.998039105 48 l 2
 129.998039105 33.7837583831 123.664092122 20.9388556072 113.866439827 11.1412033121 c 0
 113.481003082 10.7557665666 113.090087336 10.3746858043 112.693802248 9.9980391054 c 1
 260 9.9980391054 l 2
 262.559876808 9.9980391054 265.119753616 9.02238200756 267.071067812 7.07106781187 c 0
 270.973696203 3.16843942048 270.973696203 -3.16843942048 267.071067812 -7.07106781187 c 0
 265.119753616 -9.02238200756 262.559876808 -9.9980391054 260 -9.9980391054 c 2
 60 -9.9980391054 l 2
 54.4819322471 -9.9980391054 50.0019608946 -5.51806775286 50.0019608946 0 c 0
 50.0019608946 5.51806775286 54.4819322471 9.9980391054 60 9.9980391054 c 0
 76.3298519438 9.9980391054 90.7608790645 16.3199137969 99.7243042034 25.2833389358 c 0
 106.433428707 31.9924634392 110.001960895 39.9483841645 110.001960895 48 c 2
 110.001960895 280 l 2
EndSplineSet
Substitution2: "Single Substitution lookup 19 subtable" zdotaccent.ext.up
Substitution2: "Single Substitution lookup 18 subtable" zdotaccent.ext.down
EndChar

StartChar: tcedilla
Encoding: 70 355 39
Width: 320
Flags: HW
AnchorPoint: "Diacritic_right" 260 140 basechar 0
AnchorPoint: "Diacritic_left" 20 140 basechar 0
AnchorPoint: "Diacritic_up" 160 360 basechar 0
AnchorPoint: "Diacritic_down" 160 -60 basechar 0
AnchorPoint: "Extension_up" 260 280 basechar 0
AnchorPoint: "Extension_down" 200 0 basechar 0
LayerCount: 2
Fore
SplineSet
260 289.998039105 m 0
 262.559876808 289.998039105 265.119753616 289.022382008 267.071067812 287.071067812 c 0
 270.973696203 283.16843942 270.973696203 276.83156058 267.071067812 272.928932188 c 0
 265.119753616 270.977617992 262.559876808 270.001960895 260 270.001960895 c 0
 169.250788821 270.001960895 122.593304351 249.052301686 98.4493491267 224.908346461 c 0
 74.1832301421 200.642227477 70.6123961204 171.280957012 70.0880502976 149.823379811 c 1
 119.941232074 148.068152527 153.010759857 133.230028556 174.29365107 111.947137343 c 0
 210.565311452 75.6754769606 209.998039105 24.4885459991 209.998039105 3.5527136788e-15 c 0
 209.998039105 -2.55987680809 209.022382008 -5.11975361617 207.071067812 -7.07106781187 c 0
 203.16843942 -10.9736962033 196.83156058 -10.9736962033 192.928932188 -7.07106781187 c 0
 190.977617992 -5.11975361617 190.001960895 -2.55987680809 190.001960895 -3.5527136788e-15 c 0
 190.001960895 24.8181099924 189.434688548 68.5218286172 160.151515446 97.8050017193 c 0
 142.036596816 115.91992035 111.888998899 130.007530727 60.008813609 130.007530727 c 0
 59.3417883137 130.007530727 58.6649219159 130.074714425 57.9862622753 130.214382543 c 0
 53.2601236388 131.187021626 50.0019608946 135.354882136 50.0019608946 140 c 0
 50.0019608946 161.59211736 49.7795229528 204.522791535 84.3072135029 239.050482085 c 0
 113.763761815 268.507030397 166.487076346 289.998039105 260 289.998039105 c 0
EndSplineSet
Substitution2: "Single Substitution lookup 19 subtable" tcedilla.ext.up
Substitution2: "Single Substitution lookup 18 subtable" tcedilla.ext.down
EndChar

StartChar: scaron
Encoding: 69 353 40
Width: 320
Flags: HW
AnchorPoint: "Diacritic_right" 260 140 basechar 0
AnchorPoint: "Diacritic_left" 20 140 basechar 0
AnchorPoint: "Diacritic_up" 160 360 basechar 0
AnchorPoint: "Diacritic_down" 160 -60 basechar 0
AnchorPoint: "Extension_up" 180 280 basechar 0
AnchorPoint: "Extension_down" 260 0 basechar 0
LayerCount: 2
Fore
SplineSet
260 9.9980391054 m 0
 262.559876808 9.9980391054 265.119753616 9.02238200756 267.071067812 7.07106781187 c 0
 270.973696203 3.16843942048 270.973696203 -3.16843942048 267.071067812 -7.07106781187 c 0
 265.119753616 -9.02238200756 262.559876808 -9.9980391054 260 -9.9980391054 c 0
 195.727023731 -9.9980391054 150.465657652 -6.84740435034 118.532378453 -0.208375645788 c 0
 93.0864141249 5.08191999007 75.5472236472 12.5786516403 64.1599884443 23.9658868432 c 0
 54.0060208918 34.1198543957 50.0019608946 46.820871536 50.0019608946 60 c 0
 50.0019608946 80.1168748467 56.9702191064 95.8037127548 68.0729651099 106.906458758 c 0
 85.1586998918 123.99219354 109.962087139 129.628255494 131.274614605 131.481518752 c 0
 146.586595828 132.81299538 160.647602691 132.12744924 170.001960895 131.276164734 c 1
 170.001960895 280 l 2
 170.001960895 282.559876808 170.977617992 285.119753616 172.928932188 287.071067812 c 0
 176.83156058 290.973696203 183.16843942 290.973696203 187.071067812 287.071067812 c 0
 189.022382008 285.119753616 189.998039105 282.559876808 189.998039105 280 c 2
 190.008025778 120.008451573 l 2
 190.008025778 119.732415002 189.996638207 119.454166363 189.973447613 119.174195732 c 0
 189.517898741 113.674539009 184.67926462 109.579674639 179.17497384 110.03560736 c 0
 178.894767303 110.058817495 178.618202758 110.093376525 178.345695659 110.138794375 c 2
 178.345695659 110.138794375 157.372712573 113.678817539 133.01955916 111.561152025 c 0
 113.615619511 109.873852925 93.8079210502 104.357143451 82.2151007337 92.7643231346 c 0
 74.8816327455 85.4308551464 69.9980391054 75.4386807089 69.9980391054 60 c 0
 69.9980391054 50.7170159516 72.3008103397 44.1093361953 78.302124068 38.1080224669 c 0
 85.3071582904 31.1029882446 98.924903929 24.294621453 122.626479835 19.3669896304 c 0
 152.127625928 13.2336090119 196.411004074 9.9980391054 260 9.9980391054 c 0
EndSplineSet
Substitution2: "Single Substitution lookup 19 subtable" scaron.ext.up
Substitution2: "Single Substitution lookup 18 subtable" scaron.ext.down
EndChar

StartChar: rcaron
Encoding: 68 345 41
Width: 320
Flags: HW
AnchorPoint: "Diacritic_right" 260 140 basechar 0
AnchorPoint: "Diacritic_left" 20 140 basechar 0
AnchorPoint: "Diacritic_up" 160 360 basechar 0
AnchorPoint: "Diacritic_down" 160 -60 basechar 0
AnchorPoint: "Extension_up" 60 280 basechar 0
AnchorPoint: "Extension_down" 260 0 basechar 0
LayerCount: 2
Fore
SplineSet
199.66330624 147.217339634 m 1
 208.217947334 157.482908947 l 1
 205.160321282 157.33043537 202.187829056 157.145455088 199.299299391 156.92941454 c 0
 199.448312452 153.737129473 199.568012452 150.499648245 199.66330624 147.217339634 c 1
60 270.001960895 m 0
 57.4401231919 270.001960895 54.8802463838 270.977617992 52.9289321881 272.928932188 c 0
 49.0263037967 276.83156058 49.0263037967 283.16843942 52.9289321881 287.071067812 c 0
 54.8802463838 289.022382008 57.4401231919 289.998039105 60 289.998039105 c 0
 110.760660175 289.998039105 144.714991531 279.570368249 166.535569982 257.749789798 c 0
 180.249428468 244.035931312 188.3198545 226.579254501 193.070493856 206.688994727 c 0
 195.305432415 197.331620867 196.839091729 187.393188525 197.882864892 176.889585197 c 1
 207.764133182 177.620912863 218.451853892 177.997617807 230.00019761 177.997617807 c 0
 231.129357037 177.997617807 232.277521386 177.804983204 233.400090642 177.398831065 c 0
 238.590181455 175.521025777 241.280364806 169.785630195 239.403825092 164.599037316 c 0
 238.997946685 163.477224631 238.411459498 162.472379251 237.688963546 161.605384108 c 2
 197.684418382 113.607027382 l 2
 196.775277742 112.516058613 195.618605113 111.602442661 194.248520812 110.960404252 c 0
 189.249082861 108.617605942 183.289081686 110.772403958 180.947470399 115.769308849 c 0
 180.305757291 117.138698971 180.001960895 118.580337597 180.001960895 120 c 0
 180.001960895 132.285251137 179.837725343 143.895759777 179.348183589 154.772230782 c 1
 169.244253525 153.300553992 160.486397708 151.372630248 152.995355614 149.086341192 c 0
 138.579753927 144.686655279 129.006899197 138.994469004 123.199385674 133.18695548 c 0
 116.681685496 126.669255302 114.262636741 119.823067598 114.448919803 112.044129189 c 0
 114.60015446 105.728766598 116.667548926 98.4664094791 120.731092264 90.7234037173 c 0
 125.2921333 82.0324254056 132.288557079 72.8878505337 141.076201177 64.1002064361 c 0
 157.422479037 47.7539285758 179.91310977 32.6766249372 203.623627634 22.6876993792 c 0
 222.599097771 14.6935863993 242.266068149 9.9980391054 260 9.9980391054 c 0
 262.559876808 9.9980391054 265.119753616 9.02238200756 267.071067812 7.07106781187 c 0
 270.973696203 3.16843942048 270.973696203 -3.16843942048 267.071067812 -7.07106781187 c 0
 265.119753616 -9.02238200756 262.559876808 -9.9980391054 260 -9.9980391054 c 0
 238.781993032 -9.9980391054 216.71507056 -4.53340645883 195.844040809 4.25928055433 c 0
 169.746433814 15.2538549877 145.377991193 31.5141451727 126.934065553 49.9580708124 c 0
 116.99925069 59.8928856759 108.768467087 70.4706760996 103.018911837 81.4263459979 c 0
 97.9174806992 91.1470275339 94.7046304464 101.288531867 94.45861636 111.561760176 c 0
 94.1483384928 124.518560392 98.8624100216 137.134251075 109.05725005 147.329091104 c 0
 117.983412852 156.255253906 130.589437232 163.159936045 147.133843412 168.209339628 c 0
 156.151974407 170.961700907 166.385977279 173.173229245 177.960862507 174.792965088 c 1
 176.992345281 184.651915757 175.599519012 193.746662823 173.623776767 202.018818119 c 0
 169.430246002 219.576542462 162.761496523 233.239592009 152.393434358 243.607654174 c 0
 136.059610382 259.94147815 108.407448249 270.001960895 60 270.001960895 c 0
EndSplineSet
Substitution2: "Single Substitution lookup 19 subtable" rcaron.ext.up
Substitution2: "Single Substitution lookup 18 subtable" rcaron.ext.down
EndChar

StartChar: ncaron
Encoding: 66 328 42
Width: 320
Flags: HW
AnchorPoint: "Diacritic_right" 260 140 basechar 0
AnchorPoint: "Diacritic_left" 20 140 basechar 0
AnchorPoint: "Diacritic_up" 160 360 basechar 0
AnchorPoint: "Diacritic_down" 160 -60 basechar 0
AnchorPoint: "Extension_up" 120 280 basechar 0
AnchorPoint: "Extension_down" 240 0 basechar 0
LayerCount: 2
Fore
SplineSet
102.974725385 131.167410239 m 1
 110.001960895 124.140174729 l 1
 110.001960895 131.018184479 l 1
 107.706716306 131.111422056 105.364670167 131.167410239 102.974725385 131.167410239 c 1
129.998039105 149.121928124 m 1
 163.050831341 144.139558702 187.561525506 130.347339491 205.256819042 112.652045955 c 0
 225.469189906 92.4396750914 236.387088074 67.9349929041 242.429675634 47.1484917005 c 0
 249.992491628 21.1324046812 249.998039105 0.604860131957 249.998039105 5.07873298972e-09 c 0
 249.998039107 -2.5598768047 249.022382009 -5.11975361488 247.071067812 -7.07106781187 c 0
 243.16843942 -10.9736962033 236.83156058 -10.9736962033 232.928932188 -7.07106781187 c 0
 230.977617994 -5.11975361746 230.001960896 -2.55987681147 230.001960895 -5.07873298972e-09 c 2
 230.001960895 -5.07873298972e-09 229.698182948 59.9264108025 191.114683418 98.5099103317 c 0
 176.977484814 112.647108936 157.537343423 124.302511422 129.998039105 128.972334321 c 1
 129.998039105 100 l 2
 129.998039105 98.7258377028 129.752955736 97.4308301416 129.235362908 96.1811910554 c 0
 127.123518252 91.0825044299 121.269678077 88.6574858844 116.171234062 90.7692300536 c 0
 114.921654437 91.2867982525 113.832682337 92.0291584646 112.931743851 92.9300969509 c 2
 72.9289321881 132.928932188 l 2
 72.1407206189 133.717143757 71.4720501589 134.651405942 70.9674911545 135.715805133 c 0
 68.603528059 140.702735076 70.7314512788 146.669972902 75.716418746 149.033005722 c 0
 76.7803990711 149.53736617 77.8890892142 149.837031071 78.9979188291 149.947914032 c 0
 89.9838692891 151.046509078 100.307674326 151.360556955 110.001960895 150.982774046 c 1
 110.001960895 280 l 2
 110.001960895 282.559876808 110.977617992 285.119753616 112.928932188 287.071067812 c 0
 116.83156058 290.973696203 123.16843942 290.973696203 127.071067812 287.071067812 c 0
 129.022382008 285.119753616 129.998039105 282.559876808 129.998039105 280 c 2
 129.998039105 149.121928124 l 1
EndSplineSet
Substitution2: "Single Substitution lookup 19 subtable" ncaron.ext.up
Substitution2: "Single Substitution lookup 18 subtable" ncaron.ext.down
EndChar

StartChar: lcedilla
Encoding: 65 316 43
Width: 320
Flags: HW
HStem: -244 84G<295 405> -124 40<275 306> -44 80G<235 275> -44 80G<235 275>
VStem: 235 40<-84 -4>
AnchorPoint: "Diacritic_left" 20 140 basechar 0
AnchorPoint: "Diacritic_right" 260 140 basechar 0
AnchorPoint: "Diacritic_up" 160 360 basechar 0
AnchorPoint: "Diacritic_down" 160 -60 basechar 0
AnchorPoint: "Extension_up" 60 280 basechar 0
AnchorPoint: "Extension_down" 260 0 basechar 0
LayerCount: 2
Fore
SplineSet
156.668744351 129.189120026 m 1
 149.212652066 136.645212311 l 1
 149.172043536 134.112866511 149.148723214 131.630636977 149.142417375 129.197713317 c 1
 151.582858207 129.197713317 154.092077453 129.159732658 156.668744351 129.189120026 c 1
50.0019608946 280 m 0
 50.0019608946 282.559876808 50.9776179924 285.119753616 52.9289321881 287.071067812 c 0
 56.8315605795 290.973696203 63.1684394205 290.973696203 67.0710678119 287.071067812 c 0
 69.0223820076 285.119753616 69.9980391054 282.559876808 69.9980391054 280 c 0
 69.9980391054 235.653165295 73.1682307629 203.808031625 79.0729305712 181.609726147 c 0
 83.8039570532 163.823763357 90.1800072515 152.455970605 97.5661254472 145.069852409 c 0
 105.623955846 137.012022011 115.690632031 132.716921238 129.138084572 130.674007976 c 1
 129.193758705 139.983599772 129.486455448 149.91017706 130.01612991 160.503666286 c 0
 130.075755557 161.696179238 130.351564627 162.897735553 130.86462808 164.053644615 c 0
 133.103117552 169.096861492 139.015661244 171.37362431 144.059766709 169.134740429 c 0
 145.215879437 168.621586576 146.226670125 167.915465499 147.071067812 167.071067812 c 2
 187.070451181 127.069466477 l 2
 187.914848867 126.22506879 188.620969945 125.214278103 189.134123797 124.058165375 c 0
 191.373007679 119.014059911 189.096244862 113.101516218 184.053027985 110.863026746 c 0
 182.897118922 110.349963292 181.695562607 110.074154222 180.503049655 110.014528575 c 0
 169.581939834 109.468473084 159.274011844 109.048495668 149.513413858 109.177797677 c 1
 150.285849369 90.7977965737 152.240594787 75.8403364648 155.20726407 63.8009661474 c 0
 159.463372468 46.5287796507 165.672160823 35.4458769018 173.069442903 28.0485948218 c 0
 182.561356755 18.5566809699 195.179414412 13.9240842752 212.248208542 11.7597428532 c 0
 225.839827603 10.0363109632 241.936804094 9.9980391054 260 9.9980391054 c 0
 262.559876808 9.9980391054 265.119753616 9.02238200756 267.071067812 7.07106781187 c 0
 270.973696203 3.16843942048 270.973696203 -3.16843942048 267.071067812 -7.07106781187 c 0
 265.119753616 -9.02238200756 262.559876808 -9.9980391054 260 -9.9980391054 c 0
 241.937554503 -9.9980391054 225.171544508 -10.0363109632 209.715326538 -8.07644592964 c 0
 190.474324379 -5.63666619722 172.743756772 0.0900097055445 158.92730728 13.906459198 c 0
 148.266412219 24.5673542586 140.642863684 39.3151788058 135.79429134 58.9917090842 c 0
 132.285311706 73.2318893104 130.161940733 90.1494741968 129.423544473 110.449505382 c 1
 111.948176479 112.655984351 96.0579785396 118.293728069 83.4239898235 130.927716786 c 0
 72.7389627538 141.612743855 65.0596777457 156.487459372 59.7511790802 176.4443884 c 0
 53.1064724543 201.424697694 50.0019608946 234.727528091 50.0019608946 280 c 0
EndSplineSet
Substitution2: "Single Substitution lookup 19 subtable" lcedilla.ext.up
Substitution2: "Single Substitution lookup 18 subtable" lcedilla.ext.down
EndChar

StartChar: ccedilla
Encoding: 57 231 44
Width: 320
Flags: HW
AnchorPoint: "Diacritic_left" 20 140 basechar 0
AnchorPoint: "Diacritic_right" 270 140 basechar 0
AnchorPoint: "Diacritic_up" 160 360 basechar 0
AnchorPoint: "Diacritic_down" 160 -60 basechar 0
AnchorPoint: "Extension_up" 260 280 basechar 0
AnchorPoint: "Extension_down" 180 0 basechar 0
LayerCount: 2
Fore
SplineSet
260 289.998039105 m 2
 262.559876808 289.998039105 265.119753616 289.022382008 267.071067812 287.071067812 c 0
 270.973696203 283.16843942 270.973696203 276.83156058 267.071067812 272.928932188 c 0
 265.119753616 270.977617992 262.559876808 270.001960895 260 270.001960895 c 2
 100.215746771 270.001960895 l 1
 102.144539213 226.542977403 116.645245744 199.629853868 133.933584214 182.341515399 c 1
 166.276756842 182.341515399 210 149.998039105 210 149.998039105 c 1
 215.518067765 149.998039105 219.998039117 145.518067753 219.998039117 140 c 0
 219.998039117 134.481932247 215.518067765 130.001960894 210 130.001960895 c 2
 209.999999809 130.001960895 l 1
 209.30992821 130.001960895 l 1
 70.2157467708 130.001960895 l 1
 72.1445392133 86.5429774029 86.6452457443 59.6298538683 103.933584214 42.341515399 c 0
 136.332246569 9.94285304357 180.000000006 9.9980391054 180.000000006 9.9980391054 c 1
 182.559876812 9.99803910392 185.119753618 9.02238200608 187.071067812 7.07106781187 c 0
 190.973696203 3.16843942048 190.973696203 -3.16843942048 187.071067812 -7.07106781187 c 0
 185.119753615 -9.02238200904 182.559876804 -9.99803910689 179.999999994 -9.9980391054 c 0
 179.123746771 -9.9980391049 128.809960254 -10.8191318892 89.7914485899 28.1993797752 c 0
 67.2167073038 50.7741210614 50.0082863651 86.2382436688 50.0082863651 139.990591628 c 0
 50.0082863651 140.623285718 50.0686991858 141.265069082 50.1940997427 141.909154684 c 0
 51.123241043 146.681434395 55.3121244088 149.998039105 60 149.998039105 c 2
 142.833077744 149.998039105 l 1
 135.022481948 154.813428113 127.203183573 160.787644793 119.79144859 168.199379775 c 0
 97.2150577899 190.775770575 80.0104133003 226.23681339 80.0104133003 279.990832243 c 0
 80.0104133003 280.222936251 80.018442793 280.456648633 80.0347504852 280.691683595 c 0
 80.4003907508 285.961481735 84.7959177414 289.998039105 90 289.998039105 c 2
 260 289.998039105 l 2
EndSplineSet
Substitution2: "Single Substitution lookup 19 subtable" ccedilla.ext.up
Substitution2: "Single Substitution lookup 18 subtable" ccedilla.ext.down
EndChar

StartChar: ccaron
Encoding: 64 269 45
Width: 320
Flags: HW
AnchorPoint: "Diacritic_right" 230 140 basechar 0
AnchorPoint: "Diacritic_left" 20 140 basechar 0
AnchorPoint: "Diacritic_up" 160 360 basechar 0
AnchorPoint: "Diacritic_down" 160 -60 basechar 0
AnchorPoint: "Extension_up" 242 280 basechar 0
AnchorPoint: "Extension_down" 242 0 basechar 0
LayerCount: 2
Fore
SplineSet
242 289.998039105 m 0
 244.559876808 289.998039105 247.119753616 289.022382008 249.071067812 287.071067812 c 0
 252.973696203 283.16843942 252.973696203 276.83156058 249.071067812 272.928932188 c 0
 247.119753616 270.977617992 244.559876808 270.001960895 242 270.001960895 c 0
 187.688775831 270.001960895 148.4367676 252.346904388 123.049065018 226.959201807 c 0
 74.9770955946 178.887232383 74.9770955946 101.112767617 123.049065018 53.0407981935 c 0
 148.4367676 27.6530956118 187.688775831 9.9980391054 242 9.9980391054 c 0
 244.559876808 9.9980391054 247.119753616 9.02238200756 249.071067812 7.07106781187 c 0
 252.973696203 3.16843942048 252.973696203 -3.16843942048 249.071067812 -7.07106781187 c 0
 247.119753616 -9.02238200756 244.559876808 -9.9980391054 242 -9.9980391054 c 0
 183.238984116 -9.9980391054 138.476323817 9.32926814655 108.906929394 38.8986625697 c 0
 53.0375729347 94.7680190293 53.0375729347 185.231980971 108.906929394 241.10133743 c 0
 138.476323817 270.670731853 183.238984116 289.998039105 242 289.998039105 c 0
EndSplineSet
Substitution2: "Single Substitution lookup 19 subtable" ccaron.ext.up
Substitution2: "Single Substitution lookup 18 subtable" ccaron.ext.down
EndChar

StartChar: Z
Encoding: 23 90 46
Width: 320
Flags: HW
AnchorPoint: "Diacritic_down" 160 -60 basechar 0
AnchorPoint: "Diacritic_up" 160 360 basechar 0
AnchorPoint: "Extension_down" 240 0 basechar 0
AnchorPoint: "Extension_up" 80 280 basechar 0
AnchorPoint: "Diacritic_right" 320 140 basechar 0
AnchorPoint: "Diacritic_left" 100 140 basechar 0
LayerCount: 2
Fore
SplineSet
72.2323655292 9.9980391054 m 1
 240 9.9980391054 l 2
 242.559876808 9.9980391054 245.119753616 9.02238200756 247.071067812 7.07106781187 c 0
 250.973696203 3.16843942048 250.973696203 -3.16843942048 247.071067812 -7.07106781187 c 0
 245.119753616 -9.02238200756 242.559876808 -9.9980391054 240 -9.9980391054 c 2
 19.9993994987 -9.9931865716 l 2
 17.8476607408 -9.9931865716 15.6798037893 -9.30251580877 13.8531091319 -7.87719453422 c 0
 9.50119462819 -4.48151135206 8.72308014568 1.80627962286 12.1165759239 6.15539074519 c 0
 13.5409790464 7.98090869711 15.4754043514 9.17655342249 17.5625713512 9.69834517246 c 0
 36.4474732903 14.4195706572 64.3699217766 27.0771798103 94.7357749934 45.3111748885 c 0
 132.718431138 68.1188845964 174.727036731 99.5871400519 209.90896808 134.769071401 c 0
 235.664085156 160.524188476 257.740135365 188.279299163 272.079485289 215.808328445 c 0
 281.706376104 234.290265249 287.788806229 252.549555134 289.503295282 270.001960895 c 1
 80 270.001960895 l 2
 77.4401231919 270.001960895 74.8802463838 270.977617992 72.9289321881 272.928932188 c 0
 69.0263037967 276.83156058 69.0263037967 283.16843942 72.9289321881 287.071067812 c 0
 74.8802463838 289.022382008 77.4401231919 289.998039105 80 289.998039105 c 2
 300 289.998039105 l 2
 300.070735051 289.998039105 300.141634239 289.997299692 300.212690058 289.995813666 c 0
 305.658495657 289.881922841 310.001720652 285.424823629 310.001720652 280.00360212 c 0
 310.001720652 255.335221628 302.322962768 230.56895305 289.819960909 206.565389004 c 0
 274.176363762 176.532434498 250.844214536 147.42004661 224.051103704 120.626935777 c 0
 187.450820807 84.0266528803 144.353737639 51.7725628783 105.026581919 28.1575121597 c 0
 93.7001420466 21.3562460333 82.7032460899 15.2662876892 72.2323655292 9.9980391054 c 1
EndSplineSet
LCarets2: 1 0
EndChar

StartChar: bar
Encoding: 53 124 47
Width: 320
Flags: HW
AnchorPoint: "Extension_down" 160 0 basechar 0
AnchorPoint: "Extension_up" 160 280 basechar 0
AnchorPoint: "Diacritic_down" 160 -60 basechar 0
AnchorPoint: "Diacritic_up" 160 360 basechar 0
AnchorPoint: "Diacritic_right" 260 140 basechar 0
AnchorPoint: "Diacritic_left" 60 140 basechar 0
LayerCount: 2
Fore
SplineSet
150.001960895 280 m 2
 150.001960895 282.559876808 150.977617992 285.119753616 152.928932188 287.071067812 c 0
 156.83156058 290.973696203 163.16843942 290.973696203 167.071067812 287.071067812 c 0
 169.022382008 285.119753616 169.998039105 282.559876808 169.998039105 280 c 2
 169.998039105 3.5527136788e-15 l 2
 169.998039105 -2.55987680809 169.022382008 -5.11975361617 167.071067812 -7.07106781187 c 0
 163.16843942 -10.9736962033 156.83156058 -10.9736962033 152.928932188 -7.07106781187 c 0
 150.977617992 -5.11975361617 150.001960895 -2.55987680809 150.001960895 -3.5527136788e-15 c 2
 150.001960895 280 l 2
EndSplineSet
Ligature2: "FlipCores subtable" bar quotesingle
LCarets2: 1 160
EndChar

StartChar: braceleft
Encoding: 52 123 48
Width: 320
Flags: HW
AnchorPoint: "Diacritic_left" 60 140 basechar 0
AnchorPoint: "Diacritic_right" 260 140 basechar 0
AnchorPoint: "Diacritic_up" 160 360 basechar 0
AnchorPoint: "Diacritic_down" 160 -60 basechar 0
AnchorPoint: "Extension_up" 180 280 basechar 0
AnchorPoint: "Extension_down" 140 0 basechar 0
LayerCount: 2
Fore
SplineSet
149.998039105 3.5527136788e-15 m 2
 149.998039105 -2.55987680809 149.022382008 -5.11975361617 147.071067812 -7.07106781187 c 0
 143.16843942 -10.9736962033 136.83156058 -10.9736962033 132.928932188 -7.07106781187 c 0
 130.977617992 -5.11975361617 130.001960895 -2.55987680809 130.001960895 -3.5527136788e-15 c 2
 130.001960895 100 l 2
 130.001960895 110.404743564 132.418624974 119.12495438 136.204581793 126.291229789 c 0
 140.923390594 135.223260732 147.404337951 141.546473575 152.928932188 147.071067812 c 0
 158.515449062 152.657584686 163.145612816 157.445482954 166.108559845 163.053918403 c 0
 168.46800769 167.520016108 170.001960895 172.626965786 170.001960895 180 c 2
 170.001960895 280 l 2
 170.001960895 282.559876808 170.977617992 285.119753616 172.928932188 287.071067812 c 0
 176.83156058 290.973696203 183.16843942 290.973696203 187.071067812 287.071067812 c 0
 189.022382008 285.119753616 189.998039105 282.559876808 189.998039105 280 c 2
 189.998039105 180 l 2
 189.998039105 169.595256436 187.581375026 160.87504562 183.795418207 153.708770211 c 0
 179.076609406 144.776739268 172.595662049 138.453526425 167.071067812 132.928932188 c 0
 161.484550938 127.342415314 156.854387184 122.554517046 153.891440155 116.946081597 c 0
 151.53199231 112.479983892 149.998039105 107.373034214 149.998039105 100 c 2
 149.998039105 3.5527136788e-15 l 2
EndSplineSet
Ligature2: "FlipCores subtable" braceright quotesingle
LCarets2: 1 160
EndChar

StartChar: braceright
Encoding: 54 125 49
Width: 320
Flags: HW
AnchorPoint: "Diacritic_left" 60 140 basechar 0
AnchorPoint: "Diacritic_right" 260 140 basechar 0
AnchorPoint: "Diacritic_up" 160 360 basechar 0
AnchorPoint: "Diacritic_down" 160 -60 basechar 0
AnchorPoint: "Extension_up" 140 280 basechar 0
AnchorPoint: "Extension_down" 180 0 basechar 0
LayerCount: 2
Fore
SplineSet
130.001960895 280 m 2
 130.001960895 282.559876808 130.977617992 285.119753616 132.928932188 287.071067812 c 0
 136.83156058 290.973696203 143.16843942 290.973696203 147.071067812 287.071067812 c 0
 149.022382008 285.119753616 149.998039105 282.559876808 149.998039105 280 c 2
 149.998039105 143.027665453 l 1
 171.673991905 175.541594652 l 2
 172.55711186 176.866274585 173.769695163 177.998628305 175.270377432 178.802053169 c 0
 180.137413261 181.40773305 186.203562821 179.573196085 188.808321258 174.707881381 c 0
 189.611462008 173.207729796 189.992350191 171.593475272 189.992350191 170.001720453 c 2
 189.998039105 3.5527136788e-15 l 2
 189.998039105 -2.55987680809 189.022382008 -5.11975361617 187.071067812 -7.07106781187 c 0
 183.16843942 -10.9736962033 176.83156058 -10.9736962033 172.928932188 -7.07106781187 c 0
 170.977617992 -5.11975361617 170.001960895 -2.55987680809 170.001960895 -3.5527136788e-15 c 2
 170.001960895 136.977031168 l 1
 148.320319181 104.460125801 l 2
 147.437199226 103.135445868 146.224615923 102.003092147 144.723933654 101.199667284 c 0
 139.856897824 98.5939874023 133.790748265 100.428524368 131.185989827 105.293839072 c 0
 130.382849078 106.793990657 130.001960895 108.40824518 130.001960895 110 c 2
 130.001960895 280 l 2
EndSplineSet
Ligature2: "FlipCores subtable" braceleft quotesingle
LCarets2: 1 160
EndChar

StartChar: Sigma
Encoding: 77 931 50
Width: 320
Flags: HW
AnchorPoint: "Diacritic_up" 160 360 basechar 0
AnchorPoint: "Diacritic_down" 160 -60 basechar 0
AnchorPoint: "Extension_down" 270 0 basechar 0
AnchorPoint: "Extension_up" 248 280 basechar 0
AnchorPoint: "Diacritic_left" 60 100 basechar 0
AnchorPoint: "Diacritic_right" 180 220 basechar 0
LayerCount: 2
Fore
SplineSet
150.63040875 132.76858048 m 1
 111.835432976 139.694024333 79.4580080091 153.340296806 60.2985548556 172.49974996 c 0
 49.8008620111 182.997442804 43.0019608946 195.742443652 43.0019608946 210 c 0
 43.0019608946 224.141007944 49.7481876417 236.802530637 60.1904533973 247.244796393 c 0
 72.7703833159 259.824726312 90.9307135868 269.798077967 112.828475687 277.271114306 c 0
 140.222417489 286.619828646 173.715349756 291.998039105 210 291.998039105 c 0
 223.984030443 291.998039105 237.524731497 292.035779676 251.530366674 289.881066572 c 0
 253.559042105 289.56896266 255.509839218 288.632296406 257.071067812 287.071067812 c 0
 260.973696203 283.16843942 260.973696203 276.83156058 257.071067812 272.928932188 c 0
 254.729668015 270.587532391 251.512070713 269.650866138 248.469633326 270.118933428 c 0
 236.475268503 271.964220324 224.015969557 272.001960895 210 272.001960895 c 0
 175.713919672 272.001960895 144.228925981 266.852539142 119.309578856 258.348328266 c 0
 99.356709815 251.539024433 83.7717766446 242.541848393 74.332589021 233.102660769 c 0
 66.454634352 225.2247061 62.9980391054 217.455628825 62.9980391054 210 c 0
 62.9980391054 202.425618788 66.5069558438 194.575620219 74.4406904794 186.641885583 c 0
 91.3376407178 169.744935345 127.001924235 155.206644962 171.192501433 149.930158133 c 0
 172.146791783 149.816213016 173.100423905 149.561587394 174.025545295 149.155425804 c 0
 179.076781074 146.937751481 181.377496178 141.036824895 179.160095893 135.986213299 c 0
 178.753984492 135.061206225 178.224306959 134.228463446 177.598915796 133.498840422 c 2
 71.741086096 9.9980391054 l 1
 270 9.9980391054 l 2
 272.559876808 9.9980391054 275.119753616 9.02238200756 277.071067812 7.07106781187 c 0
 280.973696203 3.16843942048 280.973696203 -3.16843942048 277.071067812 -7.07106781187 c 0
 275.119753616 -9.02238200756 272.559876808 -9.9980391054 270 -9.9980391054 c 2
 50 -9.9980391054 l 2
 48.8486497849 -9.9980391054 47.6779639055 -9.79778210561 46.5354741551 -9.37541288499 c 0
 41.3586302908 -7.46157557707 38.7085077731 -1.70747865982 40.6211442451 3.46611699718 c 0
 41.0432484504 4.60788989315 41.6525323514 5.62658083697 42.4014641548 6.50033460759 c 2
 150.63040875 132.76858048 l 1
EndSplineSet
EndChar

StartChar: zero
Encoding: 5 48 52
Width: 320
Flags: HW
HStem: -222 84G<240 249> -12 80G<372 409>
VStem: 240 37<-185 -142> 372 37<-12 31>
AnchorPoint: "Extension_down" 80 0 basechar 0
AnchorPoint: "Extension_up" 240 280 basechar 0
AnchorPoint: "Diacritic_left" 80 280 basechar 0
LayerCount: 2
Fore
SplineSet
89.9980391054 3.5527136788e-15 m 0
 89.9980391054 -2.55987680809 89.0223820076 -5.11975361617 87.0710678119 -7.07106781187 c 0
 83.1684394205 -10.9736962033 76.8315605795 -10.9736962033 72.9289321881 -7.07106781187 c 0
 70.9776179924 -5.11975361617 70.0019608946 -2.55987680809 70.0019608946 -3.5527136788e-15 c 0
 70.0019608946 55.7916054476 89.1812141908 89.9900164812 114.41041367 115.21921596 c 0
 126.937338668 127.746140958 140.677386448 138.009392554 154.007400094 148.006902788 c 0
 167.344053115 158.009392554 180.270672001 167.746140958 191.447450707 178.922919664 c 0
 213.625658635 201.101127592 230.001960895 229.124938781 230.001960895 280 c 0
 230.001960895 282.559876808 230.977617992 285.119753616 232.928932188 287.071067812 c 0
 236.83156058 290.973696203 243.16843942 290.973696203 247.071067812 287.071067812 c 0
 249.022382008 285.119753616 249.998039105 282.559876808 249.998039105 280 c 0
 249.998039105 224.208394552 230.818785809 190.009983519 205.58958633 164.78078404 c 0
 193.062661332 152.253859042 179.322613552 141.990607446 165.992599906 131.993097212 c 0
 152.655946885 121.990607446 139.729327999 112.253859042 128.552549293 101.077080336 c 0
 106.374341365 78.8988724077 89.9980391054 50.8750612191 89.9980391054 3.5527136788e-15 c 0
EndSplineSet
Substitution2: "Single Substitution lookup 16 subtable" zero.thou
Substitution2: "Single Substitution lookup 15 subtable" zero.hund
Substitution2: "Single Substitution lookup 14 subtable" zero.ten
EndChar

StartChar: one
Encoding: 6 49 53
Width: 320
Flags: HW
HStem: -222 84G<240 277> -12 80G<370 407>
VStem: 370 37<-174 31>
AnchorPoint: "Diacritic_left" 80 280 basechar 0
AnchorPoint: "Extension_down" 80 0 basechar 0
AnchorPoint: "Extension_up" 240 280 basechar 0
LayerCount: 2
Fore
SplineSet
89.9980391054 3.5527136788e-15 m 0
 89.9980391054 -2.55987680809 89.0223820076 -5.11975361617 87.0710678119 -7.07106781187 c 0
 83.1684394205 -10.9736962033 76.8315605795 -10.9736962033 72.9289321881 -7.07106781187 c 0
 70.9776179924 -5.11975361617 70.0019608946 -2.55987680809 70.0019608946 -3.5527136788e-15 c 0
 70.0019608946 15.8282729726 74.9932501991 29.2909198754 84.5841827941 38.8818524704 c 0
 95.2846481068 49.5823177831 110.422658105 54.4865693047 127.257071577 54.9598126507 c 0
 156.652800954 55.786175467 193.048908565 43.5394824945 230.001960895 19.2531230474 c 1
 230.001960895 280 l 2
 230.001960895 282.559876808 230.977617992 285.119753616 232.928932188 287.071067812 c 0
 236.83156058 290.973696203 243.16843942 290.973696203 247.071067812 287.071067812 c 0
 249.022382008 285.119753616 249.998039105 282.559876808 249.998039105 280 c 2
 249.999202798 0.000582689235422 l 2
 249.999202798 -1.0467435034 249.833415414 -2.11172929424 249.484410695 -3.15950215852 c 0
 247.740123553 -8.39615553213 242.075562692 -11.2325392517 236.842700168 -9.48951481132 c 0
 235.795685794 -9.14076274011 234.844775786 -8.63493455755 234.007400094 -8.00690278841 c 0
 194.109087647 21.9168315472 154.697161529 35.727161007 127.823260769 34.9716909851 c 0
 114.404841222 34.5944769067 104.715351893 30.728750322 98.7263184178 24.7397168467 c 0
 93.4199955592 19.433393988 89.9980391054 11.6888511184 89.9980391054 3.5527136788e-15 c 0
EndSplineSet
Substitution2: "Single Substitution lookup 16 subtable" one.thou
Substitution2: "Single Substitution lookup 15 subtable" one.hund
Substitution2: "Single Substitution lookup 14 subtable" one.ten
EndChar

StartChar: two
Encoding: 7 50 54
Width: 320
Flags: HW
AnchorPoint: "Diacritic_left" 80 280 basechar 0
AnchorPoint: "Extension_down" 80 0 basechar 0
AnchorPoint: "Extension_up" 240 280 basechar 0
LayerCount: 2
Fore
SplineSet
89.9980391054 3.5527136788e-15 m 0
 89.9980391054 -2.55987680809 89.0223820076 -5.11975361617 87.0710678119 -7.07106781187 c 0
 83.1684394205 -10.9736962033 76.8315605795 -10.9736962033 72.9289321881 -7.07106781187 c 0
 70.9776179924 -5.11975361617 70.0019608946 -2.55987680809 70.0019608946 -3.5527136788e-15 c 0
 70.0019608946 13.3456456909 73.9836068998 24.4522731358 81.7919059491 32.260572185 c 0
 90.9633754471 41.4320416831 103.598079311 44.7732864437 116.529638182 45.4308233355 c 0
 124.827950913 45.8527714405 133.577921606 45.1935182298 142.471388943 43.8168754913 c 1
 138.590686781 47.0560509798 135.041154121 50.2918461048 131.803939358 53.5290608676 c 0
 120.358157603 64.9748426229 112.800291434 76.5326535755 108.839954555 88.3296590605 c 0
 103.861715594 103.158779442 104.932593255 117.834364665 109.803987741 131.230813139 c 0
 116.792570295 150.449578191 131.090817139 167.411521339 147.033520113 183.354224314 c 0
 156.269981549 192.590685749 166.149371082 201.498865652 175.758199175 210.169631614 c 0
 185.074222253 218.57617766 194.136485271 226.761209343 202.070024203 234.694748275 c 0
 211.609257862 244.233981934 219.464990279 253.429533508 224.291880151 261.842039046 c 0
 228.168914688 268.599096979 230.001960895 274.609050139 230.001960895 280 c 0
 230.001960895 282.559876808 230.977617992 285.119753616 232.928932188 287.071067812 c 0
 236.83156058 290.973696203 243.16843942 290.973696203 247.071067812 287.071067812 c 0
 249.022382008 285.119753616 249.998039105 282.559876808 249.998039105 280 c 0
 249.998039105 269.992381708 246.644174974 260.603766714 241.64496994 251.890943108 c 0
 235.37656035 240.96609672 226.37241638 230.712869205 216.212159826 220.552612651 c 0
 207.757076682 212.097529506 198.465393488 203.720419526 189.146303896 195.311106335 c 0
 179.540189469 186.642789116 169.905700881 177.942133833 161.175655737 169.21208869 c 0
 146.021950204 154.058383157 133.859194663 138.852454276 128.595085464 124.37603118 c 0
 124.957666232 114.373043439 124.371731831 104.912639536 127.794628814 94.7165537689 c 0
 130.555200691 86.4933943341 136.155330001 77.4619414717 145.946074982 67.6711964914 c 0
 160.499971137 53.1172999999 184.268865835 37.1028252962 219.911381706 20.055845156 c 0
 234.619250623 13.8892759758 244.320016068 9.02248586992 244.475142181 8.94492281332 c 0
 246.677080053 7.84395387807 248.479419158 5.93394374523 249.391392722 3.44250929012 c 0
 251.288447757 -1.74008422722 248.619042212 -7.48858042271 243.434028506 -9.38652135249 c 0
 240.941430591 -10.2989207931 238.318322592 -10.156415367 236.055471285 -9.18662194957 c 0
 227.452709922 -5.49972329889 219.354171206 -1.84673792257 211.736084504 1.77838752575 c 0
 198.415116115 7.34949076338 180.92561848 13.9914735766 163.06674378 18.8620757674 c 0
 146.740566995 23.3146694362 130.326771435 26.110264836 117.552742479 25.4607379399 c 0
 107.217327393 24.9352083592 100.031117588 22.2155125767 95.9340415728 18.1184365613 c 0
 92.5470053451 14.7314003336 89.9980391054 9.51149716623 89.9980391054 3.5527136788e-15 c 0
EndSplineSet
Substitution2: "Single Substitution lookup 16 subtable" two.thou
Substitution2: "Single Substitution lookup 15 subtable" two.hund
Substitution2: "Single Substitution lookup 14 subtable" two.ten
EndChar

StartChar: three
Encoding: 8 51 55
Width: 320
Flags: HW
HStem: -222 84G<240 277> -131 80G<257 330> -12 80G<363 400>
VStem: 240 37<-185 -171> 363 37<7 31>
AnchorPoint: "Diacritic_left" 80 280 basechar 0
AnchorPoint: "Extension_up" 240 280 basechar 0
AnchorPoint: "Extension_down" 80 0 basechar 0
LayerCount: 2
Fore
SplineSet
89.9980391054 3.5527136788e-15 m 0
 89.9980391054 -2.55987680809 89.0223820076 -5.11975361617 87.0710678119 -7.07106781187 c 0
 83.1684394205 -10.9736962033 76.8315605795 -10.9736962033 72.9289321881 -7.07106781187 c 0
 70.9776179924 -5.11975361617 70.0019608946 -2.55987680809 70.0019608946 -3.5527136788e-15 c 0
 70.0019608946 15.8282729726 74.9932501991 29.2909198754 84.5841827941 38.8818524704 c 0
 95.2846481068 49.5823177831 110.422658105 54.4865693047 127.257071577 54.9598126507 c 0
 156.437600111 55.7801258147 192.516385011 43.71809354 229.19047298 19.7845751151 c 1
 226.124408632 55.4964824606 214.60112026 79.1133487008 198.577646697 95.1368222636 c 0
 171.02353749 122.690931471 126.810275443 130.001960895 80 130.001960895 c 0
 74.4819322471 130.001960895 70.0019608946 134.481932247 70.0019608946 140 c 0
 70.0019608946 145.518067753 74.4819322471 149.998039105 80 149.998039105 c 0
 138.42585511 149.998039105 175.432796779 164.574932403 197.928932188 187.071067812 c 0
 220.425067597 209.567203221 230.001960895 241.57414489 230.001960895 280 c 0
 230.001960895 282.559876808 230.977617992 285.119753616 232.928932188 287.071067812 c 0
 236.83156058 290.973696203 243.16843942 290.973696203 247.071067812 287.071067812 c 0
 249.022382008 285.119753616 249.998039105 282.559876808 249.998039105 280 c 0
 249.998039105 238.42585511 239.574932403 200.432796779 212.071067812 172.928932188 c 0
 198.057233205 158.915097582 180.022201647 148.037585473 157.556981685 140.738517298 c 1
 178.205501618 134.628978551 197.206739427 124.792000782 212.719782321 109.278957887 c 0
 236.112371696 85.8863685124 249.999202798 50.6225812016 249.999202798 0.000582689235422 c 0
 249.999202798 -1.0467435034 249.833415414 -2.11172929424 249.484410695 -3.15950215852 c 0
 247.740123553 -8.39615553213 242.075562692 -11.2325392517 236.842700168 -9.48951481132 c 0
 235.795685794 -9.14076274011 234.844775786 -8.63493455755 234.007400094 -8.00690278841 c 0
 194.109087647 21.9168315472 154.697161529 35.727161007 127.823260769 34.9716909851 c 0
 114.404841222 34.5944769067 104.715351893 30.728750322 98.7263184178 24.7397168467 c 0
 93.4199955592 19.433393988 89.9980391054 11.6888511184 89.9980391054 3.5527136788e-15 c 0
EndSplineSet
Substitution2: "Single Substitution lookup 16 subtable" three.thou
Substitution2: "Single Substitution lookup 15 subtable" three.hund
Substitution2: "Single Substitution lookup 14 subtable" three.ten
EndChar

StartChar: four
Encoding: 9 52 56
Width: 320
Flags: HW
AnchorPoint: "Diacritic_left" 80 280 basechar 0
AnchorPoint: "Extension_up" 240 280 basechar 0
AnchorPoint: "Extension_down" 80 0 basechar 0
LayerCount: 2
Fore
SplineSet
89.9980391054 126.574725205 m 1
 89.9980391054 3.5527136788e-15 l 2
 89.9980391054 -2.55987680809 89.0223820076 -5.11975361617 87.0710678119 -7.07106781187 c 0
 83.1684394205 -10.9736962033 76.8315605795 -10.9736962033 72.9289321881 -7.07106781187 c 0
 70.9776179924 -5.11975361617 70.0019608946 -2.55987680809 70.0019608946 -3.5527136788e-15 c 2
 70.0019608946 140 l 2
 70.0019608946 140.531485616 70.0445231095 141.069872145 70.1324436313 141.611282181 c 0
 71.0171199845 147.059073504 76.1613913287 150.763239158 81.6130139343 149.877940637 c 0
 82.154804729 149.789958283 82.6793721336 149.659937083 83.1839200559 149.491754442 c 0
 106.611065298 141.682706028 126.27042088 139.635724081 142.690419166 141.578324304 c 0
 163.157278762 143.999696422 179.01417008 152.54506821 191.5869317 165.11782983 c 0
 218.342527527 191.873425657 230.001960895 238.291074096 230.001960895 280 c 0
 230.001960895 282.559876808 230.977617992 285.119753616 232.928932188 287.071067812 c 0
 236.83156058 290.973696203 243.16843942 290.973696203 247.071067812 287.071067812 c 0
 249.022382008 285.119753616 249.998039105 282.559876808 249.998039105 280 c 0
 249.998039105 235.258938105 238.302471253 183.549098135 205.729067324 150.975694206 c 0
 190.259612687 135.506239569 170.037558674 124.677126084 145.056263647 121.721664796 c 0
 128.602138792 119.775027161 110.280043876 121.218701616 89.9980391054 126.574725205 c 1
EndSplineSet
Substitution2: "Single Substitution lookup 16 subtable" four.thou
Substitution2: "Single Substitution lookup 15 subtable" four.hund
Substitution2: "Single Substitution lookup 14 subtable" four.ten
EndChar

StartChar: five
Encoding: 10 53 57
Width: 320
Flags: HW
AnchorPoint: "Diacritic_left" 80 280 basechar 0
AnchorPoint: "Extension_up" 240 280 basechar 0
AnchorPoint: "Extension_down" 80 0 basechar 0
LayerCount: 2
Fore
SplineSet
230.001960895 10.210246416 m 1
 230.001960895 280 l 2
 230.001960895 282.559876808 230.977617992 285.119753616 232.928932188 287.071067812 c 0
 236.83156058 290.973696203 243.16843942 290.973696203 247.071067812 287.071067812 c 0
 249.022382008 285.119753616 249.998039105 282.559876808 249.998039105 280 c 2
 249.996180857 0.00187739457403 l 2
 249.996180857 -0.0322019096202 249.996009608 -0.0663200894464 249.995666302 -0.100476320328 c 0
 249.940549936 -5.58410913488 245.471282573 -9.9980391054 240 -9.9980391054 c 0
 185.097905098 -9.9980391054 140.704086058 7.44501431898 110.948258189 37.2008421873 c 0
 102.791264265 45.3578361117 95.7882634135 54.3955144904 89.9980391054 64.1647134729 c 1
 89.9980391054 3.5527136788e-15 l 2
 89.9980391054 -2.55987680809 89.0223820076 -5.11975361617 87.0710678119 -7.07106781187 c 0
 83.1684394205 -10.9736962033 76.8315605795 -10.9736962033 72.9289321881 -7.07106781187 c 0
 70.9776179924 -5.11975361617 70.0019608946 -2.55987680809 70.0019608946 -3.5527136788e-15 c 2
 70.0019608946 140 l 2
 70.0019608946 145.518067753 74.4819322471 149.998039105 80 149.998039105 c 0
 85.5180677529 149.998039105 89.9980391054 145.518067753 89.9980391054 140 c 0
 89.9980391054 104.646774812 102.417973754 74.01539787 125.090393813 51.342977811 c 0
 148.747751264 27.6856203605 184.193312754 12.1769911992 230.001960895 10.210246416 c 1
EndSplineSet
Substitution2: "Single Substitution lookup 16 subtable" five.thou
Substitution2: "Single Substitution lookup 15 subtable" five.hund
Substitution2: "Single Substitution lookup 14 subtable" five.ten
EndChar

StartChar: six
Encoding: 11 54 58
Width: 320
Flags: HW
HStem: -222 84G<240 277> -129 80G<317 414> -70 84G<332 339> -12 80G<372 409>
VStem: 372 37<7 31>
AnchorPoint: "Diacritic_left" 80 280 basechar 0
AnchorPoint: "Extension_up" 240 280 basechar 0
AnchorPoint: "Extension_down" 80 0 basechar 0
LayerCount: 2
Fore
SplineSet
170 170.001960895 m 0
 164.481932247 170.001960895 160.001960895 174.481932247 160.001960895 180 c 0
 160.001960895 185.518067753 164.481932247 189.998039105 170 189.998039105 c 0
 186.784606064 189.998039105 201.761872544 196.654008168 212.553932188 207.446067812 c 0
 223.345991832 218.238127456 230.001960895 233.215393936 230.001960895 250 c 2
 230.001960895 280 l 2
 230.001960895 282.559876808 230.977617992 285.119753616 232.928932188 287.071067812 c 0
 236.83156058 290.973696203 243.16843942 290.973696203 247.071067812 287.071067812 c 0
 249.022382008 285.119753616 249.998039105 282.559876808 249.998039105 280 c 2
 249.998039105 250 l 2
 249.998039105 227.784606064 241.154008168 207.761872544 226.696067812 193.303932188 c 0
 221.480237158 188.088101535 215.54016546 183.602904259 209.034180023 180 c 1
 215.54016546 176.397095741 221.480237158 171.911898465 226.696067812 166.696067812 c 0
 241.154008168 152.238127456 249.998039105 132.215393936 249.998039105 110 c 0
 249.998039105 71.4699933684 238.428928924 35.9482056894 215.820573243 13.3398500087 c 0
 201.325467793 -1.15525544092 182.228656148 -9.9980391054 160 -9.9980391054 c 0
 137.771343852 -9.9980391054 118.674532207 -1.15525544092 104.179426757 13.3398500087 c 0
 98.8324994699 18.6867772958 94.1030338396 24.7559957141 89.9980391054 31.4164755701 c 1
 89.9980391054 3.5527136788e-15 l 2
 89.9980391054 -2.55987680809 89.0223820076 -5.11975361617 87.0710678119 -7.07106781187 c 0
 83.1684394205 -10.9736962033 76.8315605795 -10.9736962033 72.9289321881 -7.07106781187 c 0
 70.9776179924 -5.11975361617 70.0019608946 -2.55987680809 70.0019608946 -3.5527136788e-15 c 2
 70.0019608946 110 l 2
 70.0019608946 115.518067753 74.4819322471 119.998039105 80 119.998039105 c 0
 85.5180677529 119.998039105 89.9980391054 115.518067753 89.9980391054 110 c 0
 89.9980391054 75.2919308378 100.778161199 45.0253868146 118.321562381 27.4819856324 c 0
 129.46303177 16.3405162428 143.260385976 9.9980391054 160 9.9980391054 c 0
 176.739614024 9.9980391054 190.53696823 16.3405162428 201.678437619 27.4819856324 c 0
 219.221838801 45.0253868146 230.001960895 75.2919308378 230.001960895 110 c 0
 230.001960895 126.784606064 223.345991832 141.761872544 212.553932188 152.553932188 c 0
 201.761872544 163.345991832 186.784606064 170.001960895 170 170.001960895 c 0
EndSplineSet
Substitution2: "Single Substitution lookup 16 subtable" six.thou
Substitution2: "Single Substitution lookup 15 subtable" six.hund
Substitution2: "Single Substitution lookup 14 subtable" six.ten
EndChar

StartChar: seven
Encoding: 12 55 59
Width: 320
Flags: HW
AnchorPoint: "Diacritic_left" 80 280 basechar 0
AnchorPoint: "Extension_up" 240 280 basechar 0
AnchorPoint: "Extension_down" 80 0 basechar 0
LayerCount: 2
Fore
SplineSet
89.9980391054 3.5527136788e-15 m 0
 89.9980391054 -2.55987680809 89.0223820076 -5.11975361617 87.0710678119 -7.07106781187 c 0
 83.1684394205 -10.9736962033 76.8315605795 -10.9736962033 72.9289321881 -7.07106781187 c 0
 70.9776179924 -5.11975361617 70.0019608946 -2.55987680809 70.0019608946 -3.5527136788e-15 c 0
 70.0019608946 44.7410618946 81.6975287474 96.450901865 114.270932676 129.024305794 c 0
 129.740387313 144.493760431 149.962441326 155.322873916 174.943736353 158.278335204 c 0
 191.397861208 160.224972839 209.719956124 158.781298384 230.001960895 153.425274795 c 1
 230.001960895 280 l 2
 230.001960895 282.559876808 230.977617992 285.119753616 232.928932188 287.071067812 c 0
 236.83156058 290.973696203 243.16843942 290.973696203 247.071067812 287.071067812 c 0
 249.022382008 285.119753616 249.998039105 282.559876808 249.998039105 280 c 2
 250.008688164 140.007667923 l 2
 250.008688164 139.476182307 249.966125949 138.937795778 249.878205427 138.396385742 c 0
 248.993529074 132.948594419 243.84925773 129.244428765 238.397635124 130.129727286 c 0
 237.85584433 130.21770964 237.331276925 130.34773084 236.826729003 130.515913481 c 0
 213.390149709 138.328106579 193.723933756 140.363608033 177.309580834 138.421675696 c 0
 156.842721238 136.000303578 140.98582992 127.45493179 128.4130683 114.88217017 c 0
 101.657472473 88.1265743429 89.9980391054 41.7089259043 89.9980391054 3.5527136788e-15 c 0
EndSplineSet
Substitution2: "Single Substitution lookup 16 subtable" seven.thou
Substitution2: "Single Substitution lookup 15 subtable" seven.hund
Substitution2: "Single Substitution lookup 14 subtable" seven.ten
EndChar

StartChar: eight
Encoding: 13 56 60
Width: 320
Flags: HW
AnchorPoint: "Diacritic_left" 80 280 basechar 0
AnchorPoint: "Extension_up" 240 280 basechar 0
AnchorPoint: "Extension_down" 80 0 basechar 0
LayerCount: 2
Fore
SplineSet
89.9980391054 3.5527136788e-15 m 0
 89.9980391054 -2.55987680809 89.0223820076 -5.11975361617 87.0710678119 -7.07106781187 c 0
 83.1684394205 -10.9736962033 76.8315605795 -10.9736962033 72.9289321881 -7.07106781187 c 0
 70.9776179924 -5.11975361617 70.0019608946 -2.55987680809 70.0019608946 -3.5527136788e-15 c 0
 70.0019608946 38.1310315544 86.7613913872 71.8314833659 112.322732386 97.3928243645 c 0
 125.386744127 110.456836106 140.773609246 121.477015413 157.582926282 130.001960895 c 1
 80 130.001960895 l 2
 74.4819322471 130.001960895 70.0019608946 134.481932247 70.0019608946 140 c 0
 70.0019608946 145.518067753 74.4819322471 149.998039105 80 149.998039105 c 0
 122.149403849 149.998039105 164.728223853 167.942403122 193.53513199 196.749311259 c 0
 216.003641634 219.217820903 230.001960895 247.979481604 230.001960895 280 c 0
 230.001960895 282.559876808 230.977617992 285.119753616 232.928932188 287.071067812 c 0
 236.83156058 290.973696203 243.16843942 290.973696203 247.071067812 287.071067812 c 0
 249.022382008 285.119753616 249.998039105 282.559876808 249.998039105 280 c 0
 249.998039105 241.868968446 233.238608613 208.168516634 207.677267614 182.607175635 c 0
 194.613255873 169.543163894 179.226390754 158.522984587 162.417073718 149.998039105 c 1
 240 149.998039105 l 2
 245.518067753 149.998039105 249.998039105 145.518067753 249.998039105 140 c 0
 249.998039105 134.481932247 245.518067753 130.001960895 240 130.001960895 c 0
 197.850596151 130.001960895 155.271776147 112.057596878 126.46486801 83.2506887408 c 0
 103.996358366 60.782179097 89.9980391054 32.0205183962 89.9980391054 3.5527136788e-15 c 0
EndSplineSet
Substitution2: "Single Substitution lookup 16 subtable" eight.thou
Substitution2: "Single Substitution lookup 15 subtable" eight.hund
Substitution2: "Single Substitution lookup 14 subtable" eight.ten
EndChar

StartChar: nine
Encoding: 14 57 61
Width: 320
Flags: HW
HStem: -222 84G<240 277> -12 80G<375 411>
VStem: 240 37<-185 -148> 375 37<-49 31>
AnchorPoint: "Diacritic_left" 80 280 basechar 0
AnchorPoint: "Extension_up" 240 280 basechar 0
AnchorPoint: "Extension_down" 80 0 basechar 0
LayerCount: 2
Fore
SplineSet
89.9980391054 3.5527136788e-15 m 0
 89.9980391054 -2.55987680809 89.0223820076 -5.11975361617 87.0710678119 -7.07106781187 c 0
 83.1684394205 -10.9736962033 76.8315605795 -10.9736962033 72.9289321881 -7.07106781187 c 0
 70.9776179924 -5.11975361617 70.0019608946 -2.55987680809 70.0019608946 -3.5527136788e-15 c 0
 70.0019608946 54.9679466162 86.2594289456 91.2952004069 107.693659852 112.729431313 c 0
 125.667689 130.703460462 146.926386648 137.996697048 164.316929255 136.588350244 c 0
 172.991063967 135.885888556 181.136737006 133.005398618 187.071067812 127.071067812 c 0
 187.972006298 126.170129326 188.71436651 125.081157226 189.231934709 123.831577602 c 0
 191.343678878 118.733133586 188.918660333 112.879293412 183.819973708 110.767448755 c 0
 182.570334622 110.249855927 181.27532706 110.004772558 180.001164763 110.004772558 c 0
 171.241271904 110.004772558 164.652862898 106.86327643 159.259538318 101.469951851 c 0
 151.406323963 93.6167374953 146.198788997 80.1511524339 145.186355494 65.4773103177 c 0
 143.914085099 47.0374870029 149.387805874 28.4017805931 159.259538318 18.5300481494 c 0
 164.654769034 13.1348174334 171.240770748 9.9980391054 180 9.9980391054 c 0
 195.087289747 9.9980391054 204.283017298 14.0506095712 210.857660182 20.6252524555 c 0
 218.374186601 28.1417788746 223.474651434 40.6609364459 226.351076579 58.1299021324 c 0
 229.923827311 79.8277585972 230.001960895 108.163408656 230.001960895 140 c 2
 230.001960895 280 l 2
 230.001960895 282.559876808 230.977617992 285.119753616 232.928932188 287.071067812 c 0
 236.83156058 290.973696203 243.16843942 290.973696203 247.071067812 287.071067812 c 0
 249.022382008 285.119753616 249.998039105 282.559876808 249.998039105 280 c 2
 249.998039105 140 l 2
 249.998039105 108.146356767 250.076172689 79.1299690933 246.079900099 54.8600002178 c 0
 242.901106587 35.5547056322 237.102177837 18.5854988623 224.999795806 6.48311683173 c 0
 214.109709374 -4.4069696007 198.930893574 -9.9980391054 180 -9.9980391054 c 0
 165.841268577 -9.9980391054 153.886250628 -4.38093540837 145.117402694 4.38791252564 c 0
 132.59909645 16.9062187704 126.489119971 35.0035250941 125.238051185 53.1360600058 c 0
 123.77105651 74.3981471102 128.873139159 97.2109372333 142.507769044 112.819347071 c 1
 135.739603846 109.940487416 128.592902317 105.34440253 121.835795475 98.5872956892 c 0
 104.96239104 81.7138912536 89.9980391054 51.0502367048 89.9980391054 3.5527136788e-15 c 0
EndSplineSet
Substitution2: "Single Substitution lookup 16 subtable" nine.thou
Substitution2: "Single Substitution lookup 15 subtable" nine.hund
Substitution2: "Single Substitution lookup 14 subtable" nine.ten
EndChar

StartChar: b.flip
Encoding: 110 -1 62
Width: 320
Flags: HW
AnchorPoint: "Diacritic_left" 40 140 basechar 0
AnchorPoint: "Diacritic_right" 280 140 basechar 0
AnchorPoint: "Diacritic_up" 160 360 basechar 0
AnchorPoint: "Diacritic_down" 160 -60 basechar 0
AnchorPoint: "Extension_up" 160 280 basechar 0
AnchorPoint: "Extension_down" 60 0 basechar 0
LayerCount: 2
Fore
SplineSet
137.598315159 116.543820465 m 1
 150.001960895 104.140174729 l 1
 150.001960895 119.671913014 l 1
 145.980425853 118.996864637 141.846600167 117.965698519 137.598315159 116.543820465 c 1
60 -9.9980391054 m 2
 57.4401231919 -9.9980391054 54.8802463838 -9.02238200756 52.9289321881 -7.07106781187 c 0
 49.0263037967 -3.16843942048 49.0263037967 3.16843942048 52.9289321881 7.07106781187 c 0
 54.8802463838 9.02238200756 57.4401231919 9.9980391054 60 9.9980391054 c 2
 249.667085813 9.9980391054 l 1
 247.387981127 44.1642054173 233.623715521 77.2341488557 212.928932188 97.9289321881 c 0
 202.873910286 107.98395409 191.281594989 115.111107405 178.610186482 118.463206091 c 0
 175.808960392 119.204243387 172.937878109 119.769981438 169.995791786 120.142110087 c 1
 169.995791786 106.76101847 169.995227442 93.3799268537 169.995227442 79.9988352373 c 0
 169.995227442 78.7246729409 169.750144073 77.4296653806 169.232551246 76.1800262953 c 0
 167.120706591 71.0813396692 161.266866417 68.656321122 156.168422401 70.7680652898 c 0
 154.918842776 71.2856334887 153.829870675 72.0279937012 152.928932188 72.9289321881 c 2
 112.926833372 112.915983195 l 2
 112.550968394 113.291848173 112.200285281 113.702674479 111.879501035 114.147696173 c 0
 108.651697369 118.625605141 109.665578708 124.880913014 114.142199717 128.107788282 c 0
 114.587093412 128.428480264 115.049551779 128.707269793 115.524857817 128.944922812 c 0
 127.250483688 134.807735748 138.816989486 138.364161258 150.001960895 139.832127493 c 1
 150.001960895 280 l 2
 150.001960895 282.559876808 150.977617992 285.119753616 152.928932188 287.071067812 c 0
 156.83156058 290.973696203 163.16843942 290.973696203 167.071067812 287.071067812 c 0
 169.022382008 285.119753616 169.998039105 282.559876808 169.998039105 280 c 0
 169.998039105 233.412145244 169.996074277 186.824290487 169.996074277 140.236435731 c 1
 174.687428324 139.795774142 179.278167782 138.974708947 183.749209951 137.791937942 c 0
 200.323343283 133.407411113 214.903867491 124.238268132 227.071067812 112.071067812 c 0
 254.362442759 84.7796928645 269.996976519 42.3907588868 269.996976519 0.00106860339897 c 0
 269.996976519 -0.0178905550993 269.996923569 -0.0368618444103 269.996817528 -0.0558451236113 c 0
 269.966100147 -5.55484350819 265.492011198 -9.9980391054 260 -9.9980391054 c 2
 60 -9.9980391054 l 2
EndSplineSet
Ligature2: "FlipCores subtable" b quotesingle
LCarets2: 1 320
EndChar

StartChar: c.flip
Encoding: 111 -1 63
Width: 320
Flags: HW
AnchorPoint: "Diacritic_left" 120 140 basechar 0
AnchorPoint: "Diacritic_right" 320 140 basechar 0
AnchorPoint: "Diacritic_up" 160 360 basechar 0
AnchorPoint: "Diacritic_down" 160 -60 basechar 0
AnchorPoint: "Extension_down" 260 0 basechar 0
AnchorPoint: "Extension_up" 60 280 basechar 0
LayerCount: 2
Fore
SplineSet
269.998039105 3.5527136788e-15 m 2
 269.998039105 -2.55987680809 269.022382008 -5.11975361617 267.071067812 -7.07106781187 c 0
 263.16843942 -10.9736962033 256.83156058 -10.9736962033 252.928932188 -7.07106781187 c 0
 250.977617992 -5.11975361617 250.001960895 -2.55987680809 250.001960895 -3.5527136788e-15 c 2
 250.001960895 270.001960895 l 1
 60 270.001960895 l 2
 57.4401231919 270.001960895 54.8802463838 270.977617992 52.9289321881 272.928932188 c 0
 49.0263037967 276.83156058 49.0263037967 283.16843942 52.9289321881 287.071067812 c 0
 54.8802463838 289.022382008 57.4401231919 289.998039105 60 289.998039105 c 2
 260.012459043 290.010523651 l 2
 261.743839793 290.010523651 263.497400163 289.560837207 265.093900192 288.615543158 c 0
 268.245564294 286.749430245 269.998039105 283.417933264 269.998039105 280 c 2
 269.998039105 3.5527136788e-15 l 2
EndSplineSet
Ligature2: "FlipCores subtable" c quotesingle
LCarets2: 1 320
EndChar

StartChar: d.flip
Encoding: 112 -1 64
Width: 320
Flags: HW
AnchorPoint: "Diacritic_right" 320 140 basechar 0
AnchorPoint: "Diacritic_left" 120 140 basechar 0
AnchorPoint: "Diacritic_up" 160 360 basechar 0
AnchorPoint: "Diacritic_down" 160 -60 basechar 0
AnchorPoint: "Extension_down" 60 0 basechar 0
AnchorPoint: "Extension_up" 220 280 basechar 0
LayerCount: 2
Fore
SplineSet
60 -9.9980391054 m 2
 57.4401231919 -9.9980391054 54.8802463838 -9.02238200756 52.9289321881 -7.07106781187 c 0
 49.0263037967 -3.16843942048 49.0263037967 3.16843942048 52.9289321881 7.07106781187 c 0
 54.8802463838 9.02238200756 57.4401231919 9.9980391054 60 9.9980391054 c 2
 250.001960895 9.9980391054 l 1
 250.001960895 115.859825271 l 1
 227.071067812 92.9289321881 l 2
 226.170129326 92.0279937024 225.081157227 91.2856334906 223.831577604 90.7680652918 c 0
 218.733133589 88.6563211213 212.879293414 91.0813396654 210.767448756 96.1800262904 c 0
 210.249855928 97.4296653772 210.004772558 98.7246729392 210.004772558 99.9988352372 c 2
 210.001960895 280 l 2
 210.001960895 282.559876808 210.977617992 285.119753616 212.928932188 287.071067812 c 0
 216.83156058 290.973696203 223.16843942 290.973696203 227.071067812 287.071067812 c 0
 229.022382008 285.119753616 229.998039105 282.559876808 229.998039105 280 c 2
 229.998039105 124.138477997 l 1
 252.931743851 147.069903049 l 2
 253.832682338 147.970841535 254.921654437 148.713201748 256.171234062 149.230769947 c 0
 261.269678078 151.342514116 267.123518252 148.91749557 269.235362908 143.818808944 c 0
 269.752955736 142.569169858 269.998039105 141.274162297 269.998039105 140 c 2
 269.996976519 0.00106860339897 l 2
 269.996976519 -0.0178905550993 269.996923569 -0.0368618444103 269.996817528 -0.0558451236113 c 0
 269.966100147 -5.55484350819 265.492011198 -9.9980391054 260 -9.9980391054 c 2
 60 -9.9980391054 l 2
EndSplineSet
Ligature2: "FlipCores subtable" d quotesingle
LCarets2: 1 320
EndChar

StartChar: f.flip
Encoding: 113 -1 65
Width: 320
Flags: HW
AnchorPoint: "Diacritic_right" 300 140 basechar 0
AnchorPoint: "Diacritic_left" 70 140 basechar 0
AnchorPoint: "Diacritic_up" 160 360 basechar 0
AnchorPoint: "Diacritic_down" 160 -60 basechar 0
AnchorPoint: "Extension_down" 60 0 basechar 0
AnchorPoint: "Extension_up" 140 280 basechar 0
LayerCount: 2
Fore
SplineSet
60 -9.9980391054 m 0
 57.4401231919 -9.9980391054 54.8802463838 -9.02238200756 52.9289321881 -7.07106781187 c 0
 49.0263037967 -3.16843942048 49.0263037967 3.16843942048 52.9289321881 7.07106781187 c 0
 54.8802463838 9.02238200756 57.4401231919 9.9980391054 60 9.9980391054 c 0
 123.588995926 9.9980391054 167.872374072 13.2336090119 197.373520165 19.3669896304 c 0
 221.075096071 24.294621453 234.69284171 31.1029882446 241.697875932 38.1080224669 c 0
 247.69918966 44.1093361953 250.001960895 50.7170159516 250.001960895 60 c 0
 250.001960895 75.4386807089 245.118367255 85.4308551464 237.784899266 92.7643231346 c 0
 226.19207895 104.357143451 206.384380489 109.873852925 186.98044084 111.561152025 c 0
 162.627287427 113.678817539 141.654304341 110.138794375 141.654304341 110.138794375 c 2
 141.381797242 110.093376525 141.105232697 110.058817495 140.82502616 110.03560736 c 0
 135.32073538 109.579674639 130.482101259 113.674539009 130.026552387 119.174195732 c 0
 130.003361793 119.454166364 129.991974222 119.732415003 129.991974222 120.008451573 c 2
 130.001960895 280 l 2
 130.001960895 282.559876808 130.977617992 285.119753616 132.928932188 287.071067812 c 0
 136.83156058 290.973696203 143.16843942 290.973696203 147.071067812 287.071067812 c 0
 149.022382008 285.119753616 149.998039105 282.559876808 149.998039105 280 c 2
 149.998039105 131.276164734 l 1
 159.352397309 132.12744924 173.413404172 132.81299538 188.725385395 131.481518752 c 0
 210.037912861 129.628255494 234.841300108 123.99219354 251.92703489 106.906458758 c 0
 263.029780894 95.8037127548 269.998039105 80.1168748467 269.998039105 60 c 0
 269.998039105 46.820871536 265.993979108 34.1198543957 255.840011556 23.9658868432 c 0
 244.452776353 12.5786516403 226.913585875 5.08191999007 201.467621547 -0.208375645788 c 0
 169.534342348 -6.84740435034 124.272976269 -9.9980391054 60 -9.9980391054 c 0
EndSplineSet
Ligature2: "FlipCores subtable" f quotesingle
LCarets2: 1 320
EndChar

StartChar: g.flip
Encoding: 114 -1 66
Width: 320
Flags: HW
HStem: 440 84G<-126 -31> 244 40<-111 97>
AnchorPoint: "Diacritic_right" 320 140 basechar 0
AnchorPoint: "Diacritic_left" 40 140 basechar 0
AnchorPoint: "Diacritic_up" 160 360 basechar 0
AnchorPoint: "Diacritic_down" 160 -60 basechar 0
AnchorPoint: "Extension_down" 40 0 basechar 0
AnchorPoint: "Extension_up" 80 280 basechar 0
LayerCount: 2
Fore
SplineSet
40 -9.9980391054 m 2
 37.4401231919 -9.9980391054 34.8802463838 -9.02238200756 32.9289321881 -7.07106781187 c 0
 29.0263037967 -3.16843942048 29.0263037967 3.16843942048 32.9289321881 7.07106781187 c 0
 34.8802463838 9.02238200756 37.4401231919 9.9980391054 40 9.9980391054 c 2
 269.821526792 9.9980391054 l 1
 268.00462142 59.4163835171 252.730228546 87.7297119549 236.026835709 104.433104791 c 0
 224.667189027 115.792751473 212.206290254 122.12256293 201.830612137 125.648278795 c 0
 196.563995494 127.43790581 192.078189224 128.493634486 188.567842671 129.115775424 c 0
 186.745164103 122.376806354 183.245507721 116.353372097 178.446067812 111.553932188 c 0
 171.180880301 104.288744677 161.110957034 100.001960895 150 100.001960895 c 0
 132.687611535 100.001960895 118.400711031 106.961285576 107.617136546 117.744860062 c 0
 98.0707330748 127.291263533 91.232756254 139.4991545 86.059364679 152.730217908 c 0
 79.5857340225 169.286671534 75.6971450226 187.641531227 73.2885116832 205.190145557 c 0
 67.8738356063 244.639928403 69.9976675252 280.223048394 70.0193419954 280.591514391 c 0
 70.1581230065 282.950791589 71.1279864041 285.270122028 72.9289321881 287.071067812 c 0
 76.8315605795 290.973696203 83.1684394205 290.973696203 87.0710678119 287.071067812 c 0
 89.1727504192 284.969385205 90.1426138168 282.161734428 89.9806580046 279.408485609 c 2
 89.9806580046 279.408485609 87.9569721541 245.381423794 93.0976641245 207.927810866 c 0
 95.3638784351 191.416820889 99.0440903924 174.450609448 104.682190244 160.031044342 c 0
 109.198183075 148.481292765 114.957065573 138.689202282 121.759272169 131.886995686 c 0
 129.36788401 124.278383845 138.221479375 119.998039105 150 119.998039105 c 0
 155.889042966 119.998039105 160.819119699 122.211255323 164.303932188 125.696067812 c 0
 167.789616689 129.181752313 170.001031992 134.109564621 170.001031992 140.000924378 c 0
 170.001031992 145.496424027 174.449151954 149.971312011 179.950719185 149.997919914 c 0
 179.967155174 149.997999405 179.983582145 149.998039105 180.000000007 149.998039105 c 0
 181.116066101 150.048413658 218.69579809 150.048413658 250.168971333 118.575240415 c 0
 272.26483114 96.4793806082 289.997062072 59.6410582596 289.997062072 0.00098210017804 c 0
 289.997062072 -0.01640115096 289.997017562 -0.0337946087306 289.996928436 -0.0511981645969 c 0
 289.968759129 -5.55179000435 285.494174299 -9.9980391054 280 -9.9980391054 c 2
 40 -9.9980391054 l 2
EndSplineSet
Ligature2: "FlipCores subtable" g quotesingle
LCarets2: 1 320
EndChar

StartChar: h.flip
Encoding: 115 -1 67
Width: 320
Flags: HW
AnchorPoint: "Diacritic_right" 300 140 basechar 0
AnchorPoint: "Diacritic_left" 40 140 basechar 0
AnchorPoint: "Diacritic_up" 160 360 basechar 0
AnchorPoint: "Diacritic_down" 160 -60 basechar 0
AnchorPoint: "Extension_down" 240 0 basechar 0
AnchorPoint: "Extension_up" 120 280 basechar 0
LayerCount: 2
Fore
SplineSet
104.140174729 150.001960895 m 1
 110.001960895 144.140174729 l 1
 110.001960895 150.001960895 l 1
 104.140174729 150.001960895 l 1
249.998039105 3.5527136788e-15 m 2
 249.998039105 -2.55987680809 249.022382008 -5.11975361617 247.071067812 -7.07106781187 c 0
 243.16843942 -10.9736962033 236.83156058 -10.9736962033 232.928932188 -7.07106781187 c 0
 230.977617992 -5.11975361617 230.001960895 -2.55987680809 230.001960895 -3.5527136788e-15 c 2
 230.001960895 150.001960895 l 1
 129.99575468 150.001960895 l 1
 129.99575468 140.000919009 129.995227442 129.999877123 129.995227442 119.998835237 c 0
 129.995227442 118.72467294 129.750144073 117.429665379 129.232551245 116.180026293 c 0
 127.120706588 111.081339667 121.266866414 108.656321122 116.168422399 110.768065291 c 0
 114.918842774 111.28563349 113.829870674 112.027993702 112.928932188 112.928932188 c 2
 72.9300969509 152.931743851 l 2
 72.0291584639 153.832682338 71.2867982514 154.921654439 70.7692300525 156.171234064 c 0
 68.6574858847 161.269678081 71.0825044319 167.123518254 76.181191058 169.235362909 c 0
 77.4308301434 169.752955736 78.7258377037 169.998039105 80 169.998039105 c 0
 90.0006536315 169.998039105 100.001307263 169.996258108 110.001960895 169.996258108 c 1
 110.001960895 280 l 2
 110.001960895 282.559876808 110.977617992 285.119753616 112.928932188 287.071067812 c 0
 116.83156058 290.973696203 123.16843942 290.973696203 127.071067812 287.071067812 c 0
 129.022382008 285.119753616 129.998039105 282.559876808 129.998039105 280 c 0
 129.998039105 243.331690401 129.996106015 206.663380801 129.996106015 169.995071202 c 1
 166.660342647 169.995071202 203.324579279 169.988541737 239.988815912 169.988541737 c 0
 240.382944705 169.988541737 240.781254196 169.965238785 241.18224519 169.917452956 c 0
 246.260552447 169.312274468 249.998039105 164.99140165 249.998039105 160 c 2
 249.998039105 3.5527136788e-15 l 2
EndSplineSet
Ligature2: "FlipCores subtable" h quotesingle
LCarets2: 1 320
EndChar

StartChar: j.flip
Encoding: 116 -1 68
Width: 320
Flags: HW
AnchorPoint: "Diacritic_right" 320 140 basechar 0
AnchorPoint: "Diacritic_left" 120 140 basechar 0
AnchorPoint: "Diacritic_up" 160 360 basechar 0
AnchorPoint: "Diacritic_down" 160 -60 basechar 0
AnchorPoint: "Extension_down" 60 0 basechar 0
AnchorPoint: "Extension_up" 260 280 basechar 0
LayerCount: 2
Fore
SplineSet
60 -9.9980391054 m 0
 57.4401231919 -9.9980391054 54.8802463838 -9.02238200756 52.9289321881 -7.07106781187 c 0
 49.0263037967 -3.16843942048 49.0263037967 3.16843942048 52.9289321881 7.07106781187 c 0
 54.8802463838 9.02238200756 57.4401231919 9.9980391054 60 9.9980391054 c 0
 111.731009321 9.9980391054 149.502258506 14.7869664464 176.203499611 22.7101788573 c 0
 197.585107839 29.0548660954 211.712573512 37.3465763488 220.714979565 46.3489824024 c 0
 233.911957519 59.5459603561 237.653820575 75.3052586918 236.00619125 94.1449075608 c 0
 233.937955436 117.79393828 222.654863274 145.351726849 211.584515186 171.809299657 c 0
 202.714853058 193.007344167 193.982268039 213.410314724 191.103870779 232.09065237 c 0
 189.04756081 245.435775043 190.081640151 259.188676988 198.538467076 270.001960895 c 1
 60 270.001960895 l 2
 57.4401231919 270.001960895 54.8802463838 270.977617992 52.9289321881 272.928932188 c 0
 49.0263037967 276.83156058 49.0263037967 283.16843942 52.9289321881 287.071067812 c 0
 54.8802463838 289.022382008 57.4401231919 289.998039105 60 289.998039105 c 2
 260 289.998039105 l 2
 265.518067753 289.998039105 269.998039105 285.518067753 269.998039105 280 c 0
 269.998039105 274.481932247 265.518067753 270.001960895 260 270.001960895 c 0
 234.229747775 270.001960895 221.283725731 264.85422102 215.724599181 259.29509447 c 0
 210.799548761 254.37004405 209.02155898 247.12154192 210.865284696 235.156057036 c 0
 213.142817767 220.375231836 221.166834178 200.730771289 230.031687657 179.544219206 c 0
 241.08829187 153.119493565 253.454469647 124.156721417 255.925692131 95.8997808645 c 0
 257.909629445 73.2146527157 253.052779688 50.4025112779 234.857115189 32.2068467787 c 0
 222.751353195 20.1010847845 205.465258205 10.5302422067 181.916604726 3.54251520267 c 0
 152.455018695 -5.19979018915 112.943595362 -9.9980391054 60 -9.9980391054 c 0
EndSplineSet
Ligature2: "FlipCores subtable" j quotesingle
LCarets2: 1 320
EndChar

StartChar: k.flip
Encoding: 117 -1 69
Width: 320
Flags: HW
AnchorPoint: "Diacritic_right" 320 140 basechar 0
AnchorPoint: "Diacritic_left" 120 140 basechar 0
AnchorPoint: "Diacritic_up" 160 360 basechar 0
AnchorPoint: "Diacritic_down" 160 -60 basechar 0
AnchorPoint: "Extension_down" 40 0 basechar 0
AnchorPoint: "Extension_up" 120 280 basechar 0
LayerCount: 2
Fore
SplineSet
40 -9.9980391054 m 2
 37.4401231919 -9.9980391054 34.8802463838 -9.02238200756 32.9289321881 -7.07106781187 c 0
 29.0263037967 -3.16843942048 29.0263037967 3.16843942048 32.9289321881 7.07106781187 c 0
 34.8802463838 9.02238200756 37.4401231919 9.9980391054 40 9.9980391054 c 2
 271.727391028 9.9980391054 l 1
 290.951604801 116.062164186 263.290198458 184.505813877 223.402103956 224.393908378 c 0
 191.872116637 255.923895697 151.93903593 270.001960895 120 270.001960895 c 0
 117.440123192 270.001960895 114.880246384 270.977617992 112.928932188 272.928932188 c 0
 109.026303797 276.83156058 109.026303797 283.16843942 112.928932188 287.071067812 c 0
 114.880246384 289.022382008 117.440123192 289.998039105 120 289.998039105 c 0
 157.542331416 289.998039105 202.17705683 273.903226752 237.54423958 238.536044002 c 0
 283.819638519 192.260645063 312.925858908 113.690283158 289.791420726 -1.98190775451 c 0
 288.861771803 -6.63015237069 284.748017358 -9.9980391054 280 -9.9980391054 c 2
 40 -9.9980391054 l 2
EndSplineSet
Ligature2: "FlipCores subtable" k quotesingle
LCarets2: 1 320
EndChar

StartChar: l.flip
Encoding: 118 -1 70
Width: 320
Flags: HW
AnchorPoint: "Diacritic_right" 320 140 basechar 0
AnchorPoint: "Diacritic_left" 120 140 basechar 0
AnchorPoint: "Diacritic_up" 160 360 basechar 0
AnchorPoint: "Diacritic_down" 160 -60 basechar 0
AnchorPoint: "Extension_down" 260 0 basechar 0
AnchorPoint: "Extension_up" 60 280 basechar 0
LayerCount: 2
Fore
SplineSet
269.998039105 3.5527136788e-15 m 2
 269.998039105 -2.55987680809 269.022382008 -5.11975361617 267.071067812 -7.07106781187 c 0
 263.16843942 -10.9736962033 256.83156058 -10.9736962033 252.928932188 -7.07106781187 c 0
 250.977617992 -5.11975361617 250.001960895 -2.55987680809 250.001960895 -3.5527136788e-15 c 2
 250.001960895 130.083994744 l 1
 222.455720578 130.547676433 201.408472951 132.968376107 185.371623247 137.126077882 c 0
 171.083580533 140.830385253 160.452719297 145.917145079 153.119652188 153.250212188 c 0
 148.432722326 157.93714205 145.312083211 163.533988736 144.033309721 169.548960332 c 0
 142.038049636 178.934072585 144.489280348 188.15342 148.635657991 196.473275794 c 0
 153.866241284 206.968629199 162.175116744 216.978409392 171.786933691 226.590226339 c 0
 188.310946926 243.114239575 209.097782455 258.622414211 225.757404427 270.001960895 c 1
 60 270.001960895 l 2
 57.4401231919 270.001960895 54.8802463838 270.977617992 52.9289321881 272.928932188 c 0
 49.0263037967 276.83156058 49.0263037967 283.16843942 52.9289321881 287.071067812 c 0
 54.8802463838 289.022382008 57.4401231919 289.998039105 60 289.998039105 c 2
 260.001605326 289.992098753 l 2
 261.690395648 289.992098753 263.40154617 289.56405276 264.969698622 288.663254998 c 0
 269.755383458 285.914202007 271.408628634 279.796529586 268.659278001 275.0103266 c 0
 267.758382709 273.442004362 266.495845414 272.210000888 265.037024386 271.359021955 c 2
 265.037024386 271.359021955 216.285790739 242.80481214 185.929069314 212.448090716 c 0
 177.215483473 203.734504874 170.239615571 194.97545278 166.53705519 187.546132278 c 0
 163.536917894 181.526248946 162.906657468 176.946118599 163.590131461 173.731259448 c 0
 164.033401307 171.646249428 165.015306765 169.638828859 167.261787812 167.392347812 c 0
 170.824080703 163.830054921 178.079086134 159.678059192 190.41504342 156.479848043 c 0
 205.784278613 152.495231512 228.501175419 150.010705711 260.012051439 150.010705711 c 0
 261.666562622 150.010705711 263.343586441 149.599586186 264.888279823 148.733740743 c 0
 268.157047833 146.901501467 269.998039105 143.501156469 269.998039105 140 c 2
 269.998039105 3.5527136788e-15 l 2
EndSplineSet
Ligature2: "FlipCores subtable" l quotesingle
LCarets2: 1 320
EndChar

StartChar: m.flip
Encoding: 119 -1 71
Width: 320
Flags: HW
AnchorPoint: "Diacritic_right" 280 140 basechar 0
AnchorPoint: "Diacritic_left" 80 140 basechar 0
AnchorPoint: "Diacritic_up" 160 360 basechar 0
AnchorPoint: "Diacritic_down" 160 -60 basechar 0
AnchorPoint: "Extension_down" 230 0 basechar 0
AnchorPoint: "Extension_up" 90 280 basechar 0
LayerCount: 2
Fore
SplineSet
239.998039105 3.5527136788e-15 m 2
 239.998039105 -2.55987680809 239.022382008 -5.11975361617 237.071067812 -7.07106781187 c 0
 233.16843942 -10.9736962033 226.83156058 -10.9736962033 222.928932188 -7.07106781187 c 0
 220.977617992 -5.11975361617 220.001960895 -2.55987680809 220.001960895 -3.5527136788e-15 c 2
 220.001960895 130.173465936 l 1
 170.098569382 131.913993016 137.002046483 146.757165104 115.70634893 168.052862657 c 0
 79.4346885479 204.324523039 80.0019608946 255.511454001 80.0019608946 280 c 0
 80.0019608946 282.559876808 80.9776179924 285.119753616 82.9289321881 287.071067812 c 0
 86.8315605795 290.973696203 93.1684394205 290.973696203 97.0710678119 287.071067812 c 0
 99.0223820076 285.119753616 99.9980391054 282.559876808 99.9980391054 280 c 0
 99.9980391054 255.181890008 100.565311452 211.478171383 129.848484554 182.194998281 c 0
 147.960308133 164.083174701 178.115215791 149.988948803 229.988816828 149.988948803 c 0
 230.447291275 149.988948803 230.911180517 149.957352187 231.378063374 149.892329728 c 0
 236.376500296 149.196200797 239.998039105 144.908416689 239.998039105 140 c 2
 239.998039105 3.5527136788e-15 l 2
EndSplineSet
Ligature2: "FlipCores subtable" m quotesingle
LCarets2: 1 320
EndChar

StartChar: n.flip
Encoding: 120 -1 72
Width: 320
Flags: HW
AnchorPoint: "Diacritic_right" 290 140 basechar 0
AnchorPoint: "Diacritic_left" 70 140 basechar 0
AnchorPoint: "Diacritic_down" 160 -60 basechar 0
AnchorPoint: "Diacritic_up" 160 360 basechar 0
AnchorPoint: "Extension_down" 230 0 basechar 0
AnchorPoint: "Extension_up" 90 280 basechar 0
LayerCount: 2
Fore
SplineSet
239.998039105 3.5527136788e-15 m 2
 239.998039105 -2.55987680809 239.022382008 -5.11975361617 237.071067812 -7.07106781187 c 0
 233.16843942 -10.9736962033 226.83156058 -10.9736962033 222.928932188 -7.07106781187 c 0
 220.977617992 -5.11975361617 220.001960895 -2.55987680809 220.001960895 -3.5527136788e-15 c 2
 220.001960895 120 l 2
 220.001960895 128.205579165 216.638782688 135.719081688 211.178932188 141.178932188 c 0
 207.799042144 144.558822233 203.632159771 147.135233892 199.001288513 148.607716838 c 1
 197.054899065 137.729493075 192.304413624 128.000777375 185.160011991 120.856375742 c 0
 178.626381665 114.322745416 169.883669489 110.001960895 160 110.001960895 c 0
 141.760439633 110.001960895 126.638055874 116.67269645 115.280930793 128.029821531 c 0
 101.223943131 142.086809193 93.1233134573 162.234433451 88.0296991196 184.982873675 c 0
 81.6408287318 213.516018606 80.0019608946 246.879009491 80.0019608946 280 c 0
 80.0019608946 282.559876808 80.9776179924 285.119753616 82.9289321881 287.071067812 c 0
 86.8315605795 290.973696203 93.1684394205 290.973696203 97.0710678119 287.071067812 c 0
 99.0223820076 285.119753616 99.9980391054 282.559876808 99.9980391054 280 c 0
 99.9980391054 247.573895681 101.715750675 215.389791738 107.540389817 189.376543273 c 0
 112.217583103 168.487868782 119.556196331 152.03882724 129.423066417 142.171957155 c 0
 137.234723185 134.360300387 146.728138385 129.998039105 160 129.998039105 c 0
 163.886436894 129.998039105 167.601610826 131.582245824 171.017876367 134.998511366 c 0
 176.071105463 140.051740461 180.001527314 149.207519767 180.001527314 159.996539738 c 0
 180.001527314 160.896590122 180.124084212 161.811457404 180.381090811 162.719864298 c 0
 181.626292652 167.121112904 185.639238842 169.998039105 190 169.998039105 c 0
 203.794420835 169.998039105 216.280918312 164.361217312 225.321067812 155.321067812 c 0
 234.361217312 146.280918312 239.998039105 133.794420835 239.998039105 120 c 2
 239.998039105 3.5527136788e-15 l 2
EndSplineSet
Ligature2: "FlipCores subtable" n quotesingle
LCarets2: 1 320
EndChar

StartChar: p.flip
Encoding: 121 -1 73
Width: 320
Flags: HW
AnchorPoint: "Diacritic_right" 270 140 basechar 0
AnchorPoint: "Diacritic_left" 70 140 basechar 0
AnchorPoint: "Diacritic_down" 160 -60 basechar 0
AnchorPoint: "Diacritic_up" 160 360 basechar 0
AnchorPoint: "Extension_down" 60 0 basechar 0
AnchorPoint: "Extension_up" 140 280 basechar 0
LayerCount: 2
Fore
SplineSet
60 -9.9980391054 m 2
 57.4401231919 -9.9980391054 54.8802463838 -9.02238200756 52.9289321881 -7.07106781187 c 0
 49.0263037967 -3.16843942048 49.0263037967 3.16843942048 52.9289321881 7.07106781187 c 0
 54.8802463838 9.02238200756 57.4401231919 9.9980391054 60 9.9980391054 c 2
 249.775166197 9.9980391054 l 1
 248.232975673 43.1617498626 238.866575856 66.9912885206 222.928932188 82.9289321881 c 0
 205.432796779 100.425067597 178.42585511 110.001960895 140 110.001960895 c 0
 138.519132457 110.001960895 137.01586328 110.332170074 135.598306206 111.029412674 c 0
 132.064340716 112.76763636 130.012079473 116.320207744 130.012079473 120.012006041 c 2
 130.001960895 280 l 2
 130.001960895 282.559876808 130.977617992 285.119753616 132.928932188 287.071067812 c 0
 136.83156058 290.973696203 143.16843942 290.973696203 147.071067812 287.071067812 c 0
 149.022382008 285.119753616 149.998039105 282.559876808 149.998039105 280 c 2
 149.998039105 129.789222211 l 1
 186.885108531 128.217847109 216.402236942 117.739898682 237.071067812 97.0710678119 c 0
 259.575536479 74.5665991442 269.996976519 41.5737453964 269.996976519 0.00106860339897 c 0
 269.996976519 -0.0178905550993 269.996923569 -0.0368618444103 269.996817528 -0.0558451236113 c 0
 269.966100147 -5.55484350819 265.492011198 -9.9980391054 260 -9.9980391054 c 2
 60 -9.9980391054 l 2
EndSplineSet
Ligature2: "FlipCores subtable" p quotesingle
LCarets2: 1 320
EndChar

StartChar: r.flip
Encoding: 122 -1 74
Width: 320
Flags: HW
AnchorPoint: "Diacritic_right" 260 140 basechar 0
AnchorPoint: "Diacritic_left" 60 140 basechar 0
AnchorPoint: "Diacritic_down" 160 -60 basechar 0
AnchorPoint: "Diacritic_up" 160 360 basechar 0
AnchorPoint: "Extension_down" 260 0 basechar 0
AnchorPoint: "Extension_up" 60 280 basechar 0
LayerCount: 2
Fore
SplineSet
260 9.9980391054 m 0
 262.559876808 9.9980391054 265.119753616 9.02238200756 267.071067812 7.07106781187 c 0
 270.973696203 3.16843942048 270.973696203 -3.16843942048 267.071067812 -7.07106781187 c 0
 265.119753616 -9.02238200756 262.559876808 -9.9980391054 260 -9.9980391054 c 0
 217.891083757 -9.9980391054 185.084761978 3.2731023981 162.928932188 25.4289321881 c 0
 145.437600524 42.920263852 135.003130272 65.4913332367 131.420420918 90.0920306635 c 0
 124.257370284 139.277165111 144.123312818 196.478657611 189.423613094 241.778957887 c 0
 199.491543386 251.846888179 210.818036498 261.325842999 223.39619934 270.001960895 c 1
 60 270.001960895 l 2
 57.4401231919 270.001960895 54.8802463838 270.977617992 52.9289321881 272.928932188 c 0
 49.0263037967 276.83156058 49.0263037967 283.16843942 52.9289321881 287.071067812 c 0
 54.8802463838 289.022382008 57.4401231919 289.998039105 60 289.998039105 c 2
 260.001405931 289.992087899 l 2
 261.794870326 289.992087899 263.610148015 289.510150753 265.246636102 288.498922498 c 0
 269.942002577 285.597534287 271.398897687 279.430599826 268.498017223 274.73605505 c 0
 267.486965935 273.099853349 266.079139956 271.857076074 264.475142183 271.055077188 c 0
 240.295384758 258.965198475 220.005420704 244.07649425 203.565748718 227.636822264 c 0
 162.054386235 186.125459781 145.132832025 134.697716659 151.206450663 92.993174203 c 0
 154.242075944 72.1490331784 162.931981832 53.7101537916 177.071067812 39.5710678119 c 0
 194.915238022 21.7268976019 222.108916243 9.9980391054 260 9.9980391054 c 0
EndSplineSet
Ligature2: "FlipCores subtable" r quotesingle
LCarets2: 1 320
EndChar

StartChar: s.flip
Encoding: 123 -1 75
Width: 320
Flags: HW
AnchorPoint: "Diacritic_right" 320 140 basechar 0
AnchorPoint: "Diacritic_left" 70 140 basechar 0
AnchorPoint: "Diacritic_down" 160 -60 basechar 0
AnchorPoint: "Diacritic_up" 160 360 basechar 0
AnchorPoint: "Extension_down" 60 0 basechar 0
AnchorPoint: "Extension_up" 100 280 basechar 0
LayerCount: 2
Fore
SplineSet
69.8358728961 -1.79970090443 m 0
 69.4846818942 -3.7312514146 68.5630801995 -5.57905542425 67.0710678119 -7.07106781187 c 0
 63.1684394205 -10.9736962033 56.8315605795 -10.9736962033 52.9289321881 -7.07106781187 c 0
 50.5183161844 -4.66045180809 49.5967144896 -1.32106847428 50.1641271039 1.79970090443 c 0
 59.6043010422 53.7206575651 75.7114270992 87.3683556224 96.3517815281 108.008710051 c 0
 119.484030449 131.140958972 147.413565149 136.334071414 172.86345894 132.930887942 c 0
 195.411169485 129.915787113 216.210676466 120.525863313 232.482040176 111.209195383 c 0
 238.887110866 107.541775868 244.60469189 103.866530682 249.443516923 100.542526473 c 1
 245.840882934 165.049135473 225.253298422 204.545030528 200.711127132 229.087201818 c 0
 165.884934698 263.913394252 120.912315565 270.001960895 100 270.001960895 c 0
 97.4401231919 270.001960895 94.8802463838 270.977617992 92.9289321881 272.928932188 c 0
 89.0263037967 276.83156058 89.0263037967 283.16843942 92.9289321881 287.071067812 c 0
 94.8802463838 289.022382008 97.4401231919 289.998039105 100 289.998039105 c 0
 124.063865726 289.998039105 174.638849971 283.443750226 214.853262755 243.229337442 c 0
 246.242857359 211.839742838 269.996925549 160.776679441 269.996925549 79.9994940538 c 0
 269.996925549 78.8318360301 269.79097384 77.6446095797 269.356492431 76.4875845327 c 0
 267.416224149 71.3206453885 261.648518744 68.7000793111 256.484592223 70.6392163047 c 0
 255.328241788 71.0734443861 254.299594277 71.6997287273 253.42122768 72.4682994982 c 2
 253.42122768 72.4682994982 212.967374035 107.392797401 170.194920331 113.112369699 c 0
 149.251584297 115.912932076 128.630064529 112.002721805 110.493917152 93.8665744276 c 0
 93.9927149126 77.3653721883 78.8572374193 47.8178039734 69.8358728961 -1.79970090443 c 0
EndSplineSet
Ligature2: "FlipCores subtable" s quotesingle
LCarets2: 1 320
EndChar

StartChar: t.flip
Encoding: 124 -1 76
Width: 320
Flags: HW
AnchorPoint: "Diacritic_right" 320 140 basechar 0
AnchorPoint: "Diacritic_left" 120 140 basechar 0
AnchorPoint: "Diacritic_down" 160 -60 basechar 0
AnchorPoint: "Diacritic_up" 160 360 basechar 0
AnchorPoint: "Extension_down" 60 0 basechar 0
AnchorPoint: "Extension_up" 260 280 basechar 0
LayerCount: 2
Fore
SplineSet
60 -9.9980391054 m 2
 57.4401231919 -9.9980391054 54.8802463838 -9.02238200756 52.9289321881 -7.07106781187 c 0
 49.0263037967 -3.16843942048 49.0263037967 3.16843942048 52.9289321881 7.07106781187 c 0
 54.8802463838 9.02238200756 57.4401231919 9.9980391054 60 9.9980391054 c 2
 250.001960895 9.9980391054 l 1
 250.001960895 280 l 2
 250.001960895 282.559876808 250.977617992 285.119753616 252.928932188 287.071067812 c 0
 256.83156058 290.973696203 263.16843942 290.973696203 267.071067812 287.071067812 c 0
 269.022382008 285.119753616 269.998039105 282.559876808 269.998039105 280 c 2
 269.996976519 0.00106860339897 l 2
 269.996976519 -0.0178905550993 269.996923569 -0.0368618444103 269.996817528 -0.0558451236113 c 0
 269.966100147 -5.55484350819 265.492011198 -9.9980391054 260 -9.9980391054 c 2
 60 -9.9980391054 l 2
EndSplineSet
Ligature2: "FlipCores subtable" t quotesingle
LCarets2: 1 320
EndChar

StartChar: v.flip
Encoding: 125 -1 77
Width: 320
Flags: HW
HStem: 440 84G<-20 20> 344 40<20 49> 244 40<-80 80>
VStem: 80 40<284 374> -20 40<384 484>
AnchorPoint: "Diacritic_right" 280 140 basechar 0
AnchorPoint: "Diacritic_left" 60 140 basechar 0
AnchorPoint: "Diacritic_down" 160 -60 basechar 0
AnchorPoint: "Diacritic_up" 160 360 basechar 0
AnchorPoint: "Extension_down" 60 0 basechar 0
AnchorPoint: "Extension_up" 260 280 basechar 0
LayerCount: 2
Fore
SplineSet
208.217947334 122.517091053 m 1
 199.66330624 132.782660366 l 1
 199.568012452 129.500351755 199.448312452 126.262870527 199.299299391 123.07058546 c 0
 202.187829056 122.854544912 205.160321282 122.66956463 208.217947334 122.517091053 c 1
60 -9.9980391054 m 0
 57.4401231919 -9.9980391054 54.8802463838 -9.02238200756 52.9289321881 -7.07106781187 c 0
 49.0263037967 -3.16843942048 49.0263037967 3.16843942048 52.9289321881 7.07106781187 c 0
 54.8802463838 9.02238200756 57.4401231919 9.9980391054 60 9.9980391054 c 0
 108.407448249 9.9980391054 136.059610382 20.0585218495 152.393434358 36.3923458259 c 0
 162.761496523 46.7604079908 169.430246002 60.423457538 173.623776767 77.9811818815 c 0
 175.599519012 86.253337177 176.992345281 95.3480842429 177.960862507 105.207034912 c 1
 166.385977279 106.826770755 156.151974407 109.038299093 147.133843412 111.790660372 c 0
 130.589437232 116.840063955 117.983412852 123.744746094 109.05725005 132.670908896 c 0
 98.8624100216 142.865748925 94.1483384928 155.481439608 94.45861636 168.438239824 c 0
 94.7046304464 178.711468133 97.9174806992 188.852972466 103.018911837 198.573654002 c 0
 108.768467087 209.5293239 116.99925069 220.107114324 126.934065553 230.041929188 c 0
 145.377991193 248.485854827 169.746433814 264.746145012 195.844040809 275.740719446 c 0
 216.71507056 284.533406459 238.781993032 289.998039105 260 289.998039105 c 0
 262.559876808 289.998039105 265.119753616 289.022382008 267.071067812 287.071067812 c 0
 270.973696203 283.16843942 270.973696203 276.83156058 267.071067812 272.928932188 c 0
 265.119753616 270.977617992 262.559876808 270.001960895 260 270.001960895 c 0
 242.266068149 270.001960895 222.599097771 265.306413601 203.623627634 257.312300621 c 0
 179.91310977 247.323375063 157.422479037 232.246071424 141.076201177 215.899793564 c 0
 132.288557079 207.112149466 125.2921333 197.967574594 120.731092264 189.276596283 c 0
 116.667548926 181.533590521 114.60015446 174.271233402 114.448919803 167.955870811 c 0
 114.262636741 160.176932402 116.681685496 153.330744698 123.199385674 146.81304452 c 0
 129.006899197 141.005530996 138.579753927 135.313344721 152.995355614 130.913658808 c 0
 160.486397708 128.627369752 169.244253525 126.699446008 179.348183589 125.227769218 c 1
 179.837725343 136.104240223 180.001960895 147.714748863 180.001960895 160 c 0
 180.001960895 161.419662403 180.305757291 162.861301029 180.947470399 164.230691151 c 0
 183.289081687 169.227596042 189.249082861 171.382394058 194.248520812 169.039595747 c 0
 195.618605113 168.397557339 196.775277742 167.483941387 197.684418382 166.392972618 c 2
 237.688963546 118.394615892 l 2
 238.411459498 117.527620749 238.997946685 116.522775369 239.403825092 115.400962684 c 0
 241.280364806 110.214369805 238.590181455 104.478974222 233.400090641 102.601168935 c 0
 232.277521386 102.195016796 231.129357037 102.002382193 230.00019761 102.002382193 c 0
 218.451853892 102.002382193 207.764133182 102.379087137 197.882864892 103.110414803 c 1
 196.839091729 92.6068114753 195.305432415 82.6683791325 193.070493856 73.3110052732 c 0
 188.3198545 53.4207454993 180.249428468 35.9640686876 166.535569982 22.2502102022 c 0
 144.714991531 0.429631751348 110.760660175 -9.9980391054 60 -9.9980391054 c 0
EndSplineSet
Ligature2: "FlipCores subtable" v quotesingle
LCarets2: 1 320
EndChar

StartChar: x.flip
Encoding: 126 -1 78
Width: 320
Flags: HW
HStem: 440 84G<-59 51> 244 40<-111 91>
AnchorPoint: "Diacritic_right" 310 140 basechar 0
AnchorPoint: "Diacritic_left" 70 140 basechar 0
AnchorPoint: "Diacritic_down" 160 -60 basechar 0
AnchorPoint: "Diacritic_up" 160 360 basechar 0
AnchorPoint: "Extension_down" 40 0 basechar 0
AnchorPoint: "Extension_up" 40 280 basechar 0
LayerCount: 2
Fore
SplineSet
40 -9.9980391054 m 2
 37.4401231919 -9.9980391054 34.8802463838 -9.02238200756 32.9289321881 -7.07106781187 c 0
 29.0263037967 -3.16843942048 29.0263037967 3.16843942048 32.9289321881 7.07106781187 c 0
 34.8802463838 9.02238200756 37.4401231919 9.9980391054 40 9.9980391054 c 2
 269.892002354 9.9980391054 l 1
 268.639807266 65.7271556442 256.832568028 94.752003249 241.659986504 109.924584773 c 0
 222.286503366 129.298067911 193.433175002 130.001960895 160 130.001960895 c 0
 158.128830215 130.001960895 156.236728458 130.526129627 154.553544031 131.622947596 c 0
 151.613591852 133.538716496 150.014445416 136.743155568 150.014445416 140.011454394 c 0
 150.014445416 202.286017082 137.703542661 233.881028616 121.659986504 249.924584773 c 0
 102.286503366 269.298067911 73.4331750017 270.001960895 40 270.001960895 c 0
 37.4401231919 270.001960895 34.8802463838 270.977617992 32.9289321881 272.928932188 c 0
 29.0263037967 276.83156058 29.0263037967 283.16843942 32.9289321881 287.071067812 c 0
 34.8802463838 289.022382008 37.4401231919 289.998039105 40 289.998039105 c 0
 72.2935318989 289.998039105 109.166910435 290.701932089 135.802122128 264.066720397 c 0
 156.577647203 243.291195322 168.673582737 208.289231929 169.895452929 149.990750038 c 1
 199.62712619 149.861935054 231.853206563 148.015635961 255.802122128 124.066720397 c 0
 277.738886133 102.129956392 289.997062072 64.3334941353 289.997062072 0.00098210017804 c 0
 289.997062072 -0.01640115096 289.997017562 -0.0337946087306 289.996928436 -0.0511981645969 c 0
 289.968759129 -5.55179000435 285.494174299 -9.9980391054 280 -9.9980391054 c 2
 40 -9.9980391054 l 2
EndSplineSet
Ligature2: "FlipCores subtable" x quotesingle
LCarets2: 1 320
EndChar

StartChar: z.flip
Encoding: 127 -1 79
Width: 320
Flags: HW
AnchorPoint: "Diacritic_right" 320 140 basechar 0
AnchorPoint: "Diacritic_left" 30 140 basechar 0
AnchorPoint: "Diacritic_down" 160 -60 basechar 0
AnchorPoint: "Diacritic_up" 160 360 basechar 0
AnchorPoint: "Extension_down" 240 0 basechar 0
AnchorPoint: "Extension_up" 80 280 basechar 0
LayerCount: 2
Fore
SplineSet
249.254515823 123.396651447 m 1
 255.859825271 130.001960895 l 1
 248.752837324 130.001960895 l 1
 248.940905557 127.828071073 249.108268115 125.626406095 249.254515823 123.396651447 c 1
240 9.9980391054 m 0
 242.559876808 9.9980391054 245.119753616 9.02238200756 247.071067812 7.07106781187 c 0
 250.973696203 3.16843942048 250.973696203 -3.16843942048 247.071067812 -7.07106781187 c 0
 245.119753616 -9.02238200756 242.559876808 -9.9980391054 240 -9.9980391054 c 0
 179.609245296 -9.9980391054 139.703763437 9.45988606306 114.161088462 35.0025610386 c 0
 70.0019608946 79.1616886056 70.0019608946 139.999999994 70.0019608946 139.999999994 c 1
 70.0019608915 145.517984987 74.4818154568 149.997937972 79.9998230711 149.998035618 c 0
 128.69920409 149.998035618 177.398585109 149.998038165 226.097966128 149.998038165 c 1
 219.44785988 188.918055895 204.930561274 214.887590159 187.399465832 232.418685601 c 0
 156.135846151 263.682305282 112.764206767 270.001960895 80 270.001960895 c 0
 77.4401231919 270.001960895 74.8802463838 270.977617992 72.9289321881 272.928932188 c 0
 69.0263037967 276.83156058 69.0263037967 283.16843942 72.9289321881 287.071067812 c 0
 74.8802463838 289.022382008 77.4401231919 289.998039105 80 289.998039105 c 0
 114.847073113 289.998039105 164.482742315 283.619680365 201.541601456 246.560821224 c 0
 222.972257095 225.130165585 239.361293568 194.064599736 246.329507806 149.998038518 c 1
 280 149.998039105 l 2
 281.2741623 149.998039105 282.569169864 149.752955735 283.818808953 149.235362905 c 0
 288.917495577 147.123518243 291.342514117 141.269678067 289.230769943 136.171234053 c 0
 288.713201744 134.921654432 287.970841533 133.832682335 287.069903049 132.931743851 c 2
 247.071067812 92.9289321881 l 2
 246.170129326 92.0279937025 245.081157228 91.2856334908 243.831577604 90.7680652919 c 0
 238.733133589 88.6563211213 232.879293414 91.0813396652 230.767448756 96.1800262901 c 0
 230.249855928 97.429665377 230.004772558 98.7246729391 230.004772558 99.9988352372 c 0
 230.004772558 110.66947192 229.551430941 120.655327158 228.693754411 130.001960895 c 1
 90.7287103532 130.001960895 l 1
 92.732684465 112.913505953 100.232843057 77.2150776905 128.303224085 49.1446966624 c 0
 149.883013422 27.5649073254 184.02711834 9.9980391054 240 9.9980391054 c 0
EndSplineSet
Ligature2: "FlipCores subtable" z quotesingle
LCarets2: 1 320
EndChar

StartChar: ccedilla.flip
Encoding: 128 -1 80
Width: 320
Flags: HW
AnchorPoint: "Diacritic_right" 310 140 basechar 0
AnchorPoint: "Diacritic_left" 70 140 basechar 0
AnchorPoint: "Diacritic_down" 160 -60 basechar 0
AnchorPoint: "Diacritic_up" 160 360 basechar 0
AnchorPoint: "Extension_down" 60 0 basechar 0
AnchorPoint: "Extension_up" 140 280 basechar 0
LayerCount: 2
Fore
SplineSet
60 -9.9980391054 m 2
 57.4401231919 -9.9980391054 54.8802463838 -9.02238200756 52.9289321881 -7.07106781187 c 0
 49.0263037967 -3.16843942048 49.0263037967 3.16843942048 52.9289321881 7.07106781187 c 0
 54.8802463838 9.02238200756 57.4401231919 9.9980391054 60 9.9980391054 c 2
 219.784253229 9.9980391054 l 1
 217.855460787 53.4570225971 203.354754256 80.3701461317 186.066415786 97.658484601 c 1
 153.723243158 97.658484601 110 130.001960895 110 130.001960895 c 1
 104.481932235 130.001960895 100.001960883 134.481932247 100.001960883 140 c 0
 100.001960883 145.518067753 104.481932235 149.998039106 110 149.998039105 c 2
 110.000000191 149.998039105 l 1
 110.69007179 149.998039105 l 1
 249.784253229 149.998039105 l 1
 247.855460787 193.457022597 233.354754256 220.370146132 216.066415786 237.658484601 c 0
 183.667753431 270.057146956 139.999999994 270.001960895 139.999999994 270.001960895 c 1
 137.440123188 270.001960896 134.880246382 270.977617994 132.928932188 272.928932188 c 0
 129.026303797 276.83156058 129.026303797 283.16843942 132.928932188 287.071067812 c 0
 134.880246385 289.022382009 137.440123196 289.998039107 140.000000006 289.998039105 c 0
 140.876253229 289.998039105 191.190039746 290.819131889 230.20855141 251.800620225 c 0
 252.773212718 229.235958917 270.010446976 193.771685097 270.010446976 139.987489544 c 0
 270.010446976 138.239419595 269.55216368 136.469274732 268.589248641 134.861907426 c 0
 266.716401626 131.735615968 263.399954775 130.001960895 260 130.001960895 c 2
 177.166922256 130.001960895 l 1
 184.977518052 125.186571887 192.796816427 119.212355207 200.20855141 111.800620225 c 0
 222.781321563 89.2278500714 239.996169925 53.7662789194 239.996169925 0.00188856374567 c 0
 239.996169925 -0.0324046618719 239.995996517 -0.0667372481296 239.995648877 -0.101108354737 c 0
 239.94018795 -5.58452277577 235.470989632 -9.9980391054 230 -9.9980391054 c 2
 60 -9.9980391054 l 2
EndSplineSet
Ligature2: "FlipCores subtable" ccedilla quotesingle
LCarets2: 1 320
EndChar

StartChar: ccaron.flip
Encoding: 129 -1 81
Width: 320
Flags: HW
AnchorPoint: "Diacritic_right" 300 140 basechar 0
AnchorPoint: "Diacritic_left" 100 140 basechar 0
AnchorPoint: "Diacritic_down" 160 -60 basechar 0
AnchorPoint: "Diacritic_up" 160 360 basechar 0
AnchorPoint: "Extension_down" 78 0 basechar 0
AnchorPoint: "Extension_up" 78 280 basechar 0
LayerCount: 2
Fore
SplineSet
78 -9.9980391054 m 0
 75.4401231919 -9.9980391054 72.8802463838 -9.02238200756 70.9289321881 -7.07106781187 c 0
 67.0263037967 -3.16843942048 67.0263037967 3.16843942048 70.9289321881 7.07106781187 c 0
 72.8802463838 9.02238200756 75.4401231919 9.9980391054 78 9.9980391054 c 0
 132.311224169 9.9980391054 171.5632324 27.6530956118 196.950934982 53.0407981935 c 0
 245.022904405 101.112767617 245.022904405 178.887232383 196.950934982 226.959201807 c 0
 171.5632324 252.346904388 132.311224169 270.001960895 78 270.001960895 c 0
 75.4401231919 270.001960895 72.8802463838 270.977617992 70.9289321881 272.928932188 c 0
 67.0263037967 276.83156058 67.0263037967 283.16843942 70.9289321881 287.071067812 c 0
 72.8802463838 289.022382008 75.4401231919 289.998039105 78 289.998039105 c 0
 136.761015884 289.998039105 181.523676183 270.670731853 211.093070606 241.10133743 c 0
 266.962427065 185.231980971 266.962427065 94.7680190293 211.093070606 38.8986625697 c 0
 181.523676183 9.32926814655 136.761015884 -9.9980391054 78 -9.9980391054 c 0
EndSplineSet
Ligature2: "FlipCores subtable" ccaron quotesingle
LCarets2: 1 320
EndChar

StartChar: lcedilla.flip
Encoding: 130 -1 82
Width: 320
Flags: HW
HStem: 440 84G<-85 25> 364 40<14 45> 244 80G<45 85> 244 80G<45 85>
VStem: 45 40<284 364>
AnchorPoint: "Diacritic_right" 310 140 basechar 0
AnchorPoint: "Diacritic_left" 60 140 basechar 0
AnchorPoint: "Diacritic_down" 160 -60 basechar 0
AnchorPoint: "Diacritic_up" 160 360 basechar 0
AnchorPoint: "Extension_down" 260 0 basechar 0
AnchorPoint: "Extension_up" 60 280 basechar 0
LayerCount: 2
Fore
SplineSet
163.331255649 150.810879974 m 1
 170.787347934 143.354787689 l 1
 170.827956464 145.887133489 170.851276786 148.369363023 170.857582625 150.802286683 c 1
 168.417141793 150.802286683 165.907922547 150.840267342 163.331255649 150.810879974 c 1
269.998039105 3.5527136788e-15 m 0
 269.998039105 -2.55987680809 269.022382008 -5.11975361617 267.071067812 -7.07106781187 c 0
 263.16843942 -10.9736962033 256.83156058 -10.9736962033 252.928932188 -7.07106781187 c 0
 250.977617992 -5.11975361617 250.001960895 -2.55987680809 250.001960895 -3.5527136788e-15 c 0
 250.001960895 44.3468347047 246.831769237 76.1919683748 240.927069429 98.3902738535 c 0
 236.196042947 116.176236643 229.819992748 127.544029395 222.433874553 134.930147591 c 0
 214.376044154 142.987977989 204.309367969 147.283078762 190.861915428 149.325992024 c 1
 190.806241295 140.016400228 190.513544552 130.08982294 189.98387009 119.496333714 c 0
 189.924244443 118.303820762 189.648435373 117.102264447 189.13537192 115.946355384 c 0
 186.896882447 110.903138507 180.984338754 108.62637569 175.94023329 110.865259572 c 0
 174.784120563 111.378413424 173.773329875 112.084534501 172.928932188 112.928932188 c 2
 132.929548819 152.930533523 l 2
 132.085151133 153.77493121 131.379030055 154.785721897 130.865876203 155.941834625 c 0
 128.626992321 160.985940089 130.903755138 166.898483782 135.946972015 169.136973254 c 0
 137.102881078 169.650036708 138.304437393 169.925845778 139.496950345 169.985471425 c 0
 150.418060166 170.531526916 160.725988156 170.951504332 170.486586142 170.822202323 c 1
 169.714150631 189.202203426 167.759405213 204.159663535 164.79273593 216.199033853 c 0
 160.536627532 233.471220349 154.327839177 244.554123098 146.930557097 251.951405178 c 0
 137.438643245 261.44331903 124.820585588 266.075915725 107.751791458 268.240257147 c 0
 94.1601723973 269.963689037 78.0631959063 270.001960895 60 270.001960895 c 0
 57.4401231919 270.001960895 54.8802463838 270.977617992 52.9289321881 272.928932188 c 0
 49.0263037967 276.83156058 49.0263037967 283.16843942 52.9289321881 287.071067812 c 0
 54.8802463838 289.022382008 57.4401231919 289.998039105 60 289.998039105 c 0
 78.062445497 289.998039105 94.8284554922 290.036310963 110.284673462 288.07644593 c 0
 129.525675621 285.636666197 147.256243228 279.909990294 161.07269272 266.093540802 c 0
 171.733587781 255.432645741 179.357136316 240.684821194 184.20570866 221.008290916 c 0
 187.714688294 206.76811069 189.838059267 189.850525803 190.576455527 169.550494618 c 1
 208.051823521 167.344015649 223.94202146 161.706271931 236.576010177 149.072283214 c 0
 247.261037246 138.387256145 254.940322254 123.512540628 260.24882092 103.5556116 c 0
 266.893527546 78.5753023061 269.998039105 45.2724719091 269.998039105 3.5527136788e-15 c 0
EndSplineSet
Ligature2: "FlipCores subtable" lcedilla quotesingle
LCarets2: 1 320
EndChar

StartChar: ncaron.flip
Encoding: 131 -1 83
Width: 320
Flags: HW
AnchorPoint: "Diacritic_right" 280 140 basechar 0
AnchorPoint: "Diacritic_left" 80 140 basechar 0
AnchorPoint: "Diacritic_down" 160 -60 basechar 0
AnchorPoint: "Diacritic_up" 160 360 basechar 0
AnchorPoint: "Extension_down" 200 0 basechar 0
AnchorPoint: "Extension_up" 80 280 basechar 0
LayerCount: 2
Fore
SplineSet
217.025274615 148.832589761 m 1
 209.998039105 155.859825271 l 1
 209.998039105 148.981815521 l 1
 212.293283694 148.888577944 214.635329833 148.832589761 217.025274615 148.832589761 c 1
190.001960895 130.878071876 m 1
 156.949168659 135.860441298 132.438474494 149.652660509 114.743180958 167.347954045 c 0
 94.5308100938 187.560324909 83.6129119256 212.065007096 77.5703243664 232.8515083 c 0
 70.0075083725 258.867595319 70.0019608949 279.395139868 70.0019608946 279.999999995 c 0
 70.0019608933 282.559876805 70.9776179912 285.119753615 72.9289321881 287.071067812 c 0
 76.8315605795 290.973696203 83.1684394205 290.973696203 87.0710678119 287.071067812 c 0
 89.0223820063 285.119753617 89.9980391041 282.559876811 89.9980391054 280.000000005 c 2
 89.9980391054 280.000000005 90.3018170524 220.073589198 128.885316582 181.490089668 c 0
 143.022515186 167.352891064 162.462656577 155.697488578 190.001960895 151.027665679 c 1
 190.001960895 180 l 2
 190.001960895 181.274162298 190.247044265 182.569169861 190.764637093 183.818808948 c 0
 192.876481752 188.917495573 198.730321927 191.342514116 203.828765942 189.230769945 c 0
 205.078345565 188.713201746 206.167317663 187.970841535 207.068256149 187.069903049 c 2
 247.071067812 147.071067812 l 2
 247.859279381 146.282856243 248.527949841 145.348594058 249.032508846 144.284194866 c 0
 251.396471941 139.297264923 249.268548721 133.330027097 244.283581253 130.966994278 c 0
 243.219600929 130.46263383 242.110910786 130.162968929 241.002081171 130.052085968 c 0
 230.016130711 128.953490922 219.692325674 128.639443045 209.998039105 129.017225954 c 1
 209.998039105 3.5527136788e-15 l 2
 209.998039105 -2.55987680809 209.022382008 -5.11975361617 207.071067812 -7.07106781187 c 0
 203.16843942 -10.9736962033 196.83156058 -10.9736962033 192.928932188 -7.07106781187 c 0
 190.977617992 -5.11975361617 190.001960895 -2.55987680809 190.001960895 -3.5527136788e-15 c 2
 190.001960895 130.878071876 l 1
EndSplineSet
Ligature2: "FlipCores subtable" ncaron quotesingle
LCarets2: 1 320
EndChar

StartChar: rcaron.flip
Encoding: 132 -1 84
Width: 320
Flags: HW
AnchorPoint: "Diacritic_right" 280 140 basechar 0
AnchorPoint: "Diacritic_left" 50 140 basechar 0
AnchorPoint: "Diacritic_down" 160 -60 basechar 0
AnchorPoint: "Diacritic_up" 160 360 basechar 0
AnchorPoint: "Extension_down" 260 0 basechar 0
AnchorPoint: "Extension_up" 60 280 basechar 0
LayerCount: 2
Fore
SplineSet
120.33669376 132.782660366 m 1
 111.782052666 122.517091053 l 1
 114.839678718 122.66956463 117.812170944 122.854544912 120.700700609 123.07058546 c 0
 120.551687548 126.262870527 120.431987548 129.500351755 120.33669376 132.782660366 c 1
260 9.9980391054 m 0
 262.559876808 9.9980391054 265.119753616 9.02238200756 267.071067812 7.07106781187 c 0
 270.973696203 3.16843942048 270.973696203 -3.16843942048 267.071067812 -7.07106781187 c 0
 265.119753616 -9.02238200756 262.559876808 -9.9980391054 260 -9.9980391054 c 0
 209.239339825 -9.9980391054 175.285008469 0.429631751348 153.464430018 22.2502102022 c 0
 139.750571532 35.9640686876 131.6801455 53.4207454993 126.929506144 73.3110052732 c 0
 124.694567585 82.6683791325 123.160908271 92.6068114753 122.117135108 103.110414803 c 1
 112.235866818 102.379087137 101.548146108 102.002382193 89.9998023902 102.002382193 c 0
 88.8706429633 102.002382193 87.7224786143 102.195016796 86.5999093584 102.601168935 c 0
 81.4098185447 104.478974223 78.7196351936 110.214369805 80.5961749083 115.400962684 c 0
 81.0020533152 116.522775369 81.5885405022 117.527620749 82.3110364542 118.394615892 c 2
 122.315581618 166.392972618 l 2
 123.224722258 167.483941387 124.381394887 168.397557339 125.751479188 169.039595747 c 0
 130.750917139 171.382394058 136.710918313 169.227596042 139.052529601 164.230691151 c 0
 139.694242709 162.861301029 139.998039105 161.419662404 139.998039105 160 c 0
 139.998039105 147.714748863 140.162274657 136.104240223 140.651816411 125.227769218 c 1
 150.755746475 126.699446008 159.513602292 128.627369752 167.004644386 130.913658808 c 0
 181.420246073 135.313344721 190.993100803 141.005530996 196.800614326 146.81304452 c 0
 203.318314504 153.330744698 205.737363259 160.176932402 205.551080197 167.955870811 c 0
 205.39984554 174.271233402 203.332451074 181.533590521 199.268907736 189.276596283 c 0
 194.7078667 197.967574594 187.711442921 207.112149466 178.923798823 215.899793564 c 0
 162.577520963 232.246071424 140.08689023 247.323375063 116.376372366 257.312300621 c 0
 97.4009022293 265.306413601 77.7339318514 270.001960895 60 270.001960895 c 0
 57.4401231919 270.001960895 54.8802463838 270.977617992 52.9289321881 272.928932188 c 0
 49.0263037967 276.83156058 49.0263037967 283.16843942 52.9289321881 287.071067812 c 0
 54.8802463838 289.022382008 57.4401231919 289.998039105 60 289.998039105 c 0
 81.2180069678 289.998039105 103.28492944 284.533406459 124.155959191 275.740719446 c 0
 150.253566186 264.746145012 174.622008807 248.485854827 193.065934447 230.041929188 c 0
 203.00074931 220.107114324 211.231532913 209.5293239 216.981088163 198.573654002 c 0
 222.082519301 188.852972466 225.295369554 178.711468133 225.54138364 168.438239824 c 0
 225.851661507 155.481439608 221.137589978 142.865748925 210.94274995 132.670908896 c 0
 202.016587148 123.744746094 189.410562768 116.840063955 172.866156588 111.790660372 c 0
 163.848025593 109.038299093 153.614022721 106.826770755 142.039137493 105.207034912 c 1
 143.007654719 95.3480842429 144.400480988 86.253337177 146.376223233 77.9811818815 c 0
 150.569753998 60.423457538 157.238503477 46.7604079908 167.606565642 36.3923458259 c 0
 183.940389618 20.0585218495 211.592551751 9.9980391054 260 9.9980391054 c 0
EndSplineSet
Ligature2: "FlipCores subtable" rcaron quotesingle
LCarets2: 1 320
EndChar

StartChar: scaron.flip
Encoding: 133 -1 85
Width: 320
Flags: HW
AnchorPoint: "Diacritic_right" 260 140 basechar 0
AnchorPoint: "Diacritic_left" 60 140 basechar 0
AnchorPoint: "Diacritic_down" 160 -60 basechar 0
AnchorPoint: "Diacritic_up" 160 360 basechar 0
AnchorPoint: "Extension_down" 140 0 basechar 0
AnchorPoint: "Extension_up" 60 280 basechar 0
LayerCount: 2
Fore
SplineSet
60 270.001960895 m 0
 57.4401231919 270.001960895 54.8802463838 270.977617992 52.9289321881 272.928932188 c 0
 49.0263037967 276.83156058 49.0263037967 283.16843942 52.9289321881 287.071067812 c 0
 54.8802463838 289.022382008 57.4401231919 289.998039105 60 289.998039105 c 0
 124.272976269 289.998039105 169.534342348 286.84740435 201.467621547 280.208375646 c 0
 226.913585875 274.91808001 244.452776353 267.42134836 255.840011556 256.034113157 c 0
 265.993979108 245.880145604 269.998039105 233.179128464 269.998039105 220 c 0
 269.998039105 199.883125153 263.029780894 184.196287245 251.92703489 173.093541242 c 0
 234.841300108 156.00780646 210.037912861 150.371744506 188.725385395 148.518481248 c 0
 173.413404172 147.18700462 159.352397309 147.87255076 149.998039105 148.723835266 c 1
 149.998039105 3.5527136788e-15 l 2
 149.998039105 -2.55987680809 149.022382008 -5.11975361617 147.071067812 -7.07106781187 c 0
 143.16843942 -10.9736962033 136.83156058 -10.9736962033 132.928932188 -7.07106781187 c 0
 130.977617992 -5.11975361617 130.001960895 -2.55987680809 130.001960895 -3.5527136788e-15 c 2
 129.991974222 159.991548427 l 2
 129.991974222 160.267584998 130.003361793 160.545833637 130.026552387 160.825804268 c 0
 130.482101259 166.325460991 135.32073538 170.420325361 140.82502616 169.96439264 c 0
 141.105232697 169.941182505 141.381797242 169.906623475 141.654304341 169.861205625 c 2
 141.654304341 169.861205625 162.627287427 166.321182461 186.98044084 168.438847975 c 0
 206.384380489 170.126147075 226.19207895 175.642856549 237.784899266 187.235676865 c 0
 245.118367255 194.569144854 250.001960895 204.561319291 250.001960895 220 c 0
 250.001960895 229.282984048 247.69918966 235.890663805 241.697875932 241.891977533 c 0
 234.69284171 248.897011755 221.075096071 255.705378547 197.373520165 260.63301037 c 0
 167.872374072 266.766390988 123.588995926 270.001960895 60 270.001960895 c 0
EndSplineSet
Ligature2: "FlipCores subtable" scaron quotesingle
LCarets2: 1 320
EndChar

StartChar: tcedilla.flip
Encoding: 134 -1 86
Width: 320
Flags: HW
AnchorPoint: "Diacritic_right" 320 140 basechar 0
AnchorPoint: "Diacritic_left" 100 140 basechar 0
AnchorPoint: "Diacritic_down" 160 -60 basechar 0
AnchorPoint: "Diacritic_up" 160 360 basechar 0
AnchorPoint: "Extension_down" 60 0 basechar 0
AnchorPoint: "Extension_up" 120 280 basechar 0
LayerCount: 2
Fore
SplineSet
60 -9.9980391054 m 0
 57.4401231919 -9.9980391054 54.8802463838 -9.02238200756 52.9289321881 -7.07106781187 c 0
 49.0263037967 -3.16843942048 49.0263037967 3.16843942048 52.9289321881 7.07106781187 c 0
 54.8802463838 9.02238200756 57.4401231919 9.9980391054 60 9.9980391054 c 0
 150.749211179 9.9980391054 197.406695649 30.9476983139 221.550650873 55.0916535387 c 0
 245.816769858 79.3577725233 249.38760388 108.719042988 249.911949702 130.176620189 c 1
 200.058767926 131.931847473 166.989240143 146.769971444 145.70634893 168.052862657 c 0
 109.434688548 204.324523039 110.001960895 255.511454001 110.001960895 280 c 0
 110.001960895 282.559876808 110.977617992 285.119753616 112.928932188 287.071067812 c 0
 116.83156058 290.973696203 123.16843942 290.973696203 127.071067812 287.071067812 c 0
 129.022382008 285.119753616 129.998039105 282.559876808 129.998039105 280 c 0
 129.998039105 255.181890008 130.565311452 211.478171383 159.848484554 182.194998281 c 0
 177.981025618 164.062457217 208.081118389 150.010705711 260.012051439 150.010705711 c 0
 261.666562622 150.010705711 263.343586441 149.599586186 264.888279823 148.733740743 c 0
 268.157047833 146.901501467 269.998039105 143.501156469 269.998039105 140 c 0
 269.998039105 118.40788264 270.220477047 75.4772084652 235.692786497 40.949517915 c 0
 206.236238185 11.4929696027 153.512923654 -9.9980391054 60 -9.9980391054 c 0
EndSplineSet
Ligature2: "FlipCores subtable" tcedilla quotesingle
LCarets2: 1 320
EndChar

StartChar: zdotaccent.flip
Encoding: 135 -1 87
Width: 320
Flags: HW
AnchorPoint: "Diacritic_right" 290 140 basechar 0
AnchorPoint: "Diacritic_left" 90 140 basechar 0
AnchorPoint: "Diacritic_down" 160 -60 basechar 0
AnchorPoint: "Diacritic_up" 160 360 basechar 0
AnchorPoint: "Extension_down" 200 0 basechar 0
AnchorPoint: "Extension_up" 60 280 basechar 0
LayerCount: 2
Fore
SplineSet
209.998039105 3.5527136788e-15 m 2
 209.998039105 -2.55987680809 209.022382008 -5.11975361617 207.071067812 -7.07106781187 c 0
 203.16843942 -10.9736962033 196.83156058 -10.9736962033 192.928932188 -7.07106781187 c 0
 190.977617992 -5.11975361617 190.001960895 -2.55987680809 190.001960895 -3.5527136788e-15 c 2
 190.001960895 232 l 2
 190.001960895 246.216241617 196.335907878 259.061144393 206.133560173 268.858796688 c 0
 206.518996918 269.244233433 206.909912664 269.625314196 207.306197752 270.001960895 c 1
 60 270.001960895 l 2
 57.4401231919 270.001960895 54.8802463838 270.977617992 52.9289321881 272.928932188 c 0
 49.0263037967 276.83156058 49.0263037967 283.16843942 52.9289321881 287.071067812 c 0
 54.8802463838 289.022382008 57.4401231919 289.998039105 60 289.998039105 c 2
 260 289.998039105 l 2
 265.518067753 289.998039105 269.998039105 285.518067753 269.998039105 280 c 0
 269.998039105 274.481932247 265.518067753 270.001960895 260 270.001960895 c 0
 243.670148056 270.001960895 229.239120935 263.680086203 220.275695797 254.716661064 c 0
 213.566571293 248.007536561 209.998039105 240.051615835 209.998039105 232 c 2
 209.998039105 3.5527136788e-15 l 2
EndSplineSet
Ligature2: "FlipCores subtable" zdotaccent quotesingle
LCarets2: 1 320
EndChar

StartChar: zcaron.flip
Encoding: 136 -1 88
Width: 320
Flags: HW
AnchorPoint: "Diacritic_right" 280 140 basechar 0
AnchorPoint: "Diacritic_left" 50 140 basechar 0
AnchorPoint: "Diacritic_down" 160 -60 basechar 0
AnchorPoint: "Diacritic_up" 160 360 basechar 0
AnchorPoint: "Extension_down" 220 0 basechar 0
AnchorPoint: "Extension_up" 100 280 basechar 0
LayerCount: 2
Fore
SplineSet
229.998039105 3.5527136788e-15 m 0
 229.998039105 -2.55987680809 229.022382008 -5.11975361617 227.071067812 -7.07106781187 c 0
 223.16843942 -10.9736962033 216.83156058 -10.9736962033 212.928932188 -7.07106781187 c 0
 210.977617992 -5.11975361617 210.001960895 -2.55987680809 210.001960895 -3.5527136788e-15 c 0
 210.001960895 43.1502498202 197.818784038 78.9670366929 175.087944799 101.697875932 c 0
 157.390218774 119.395601957 132.809419573 130.001960895 100 130.001960895 c 0
 94.4819322471 130.001960895 90.0019608946 134.481932247 90.0019608946 140 c 0
 90.0019608946 145.518067753 94.4819322471 149.998039105 100 149.998039105 c 0
 148.227988754 149.998039105 179.820337389 163.308089984 195.987706891 179.475459487 c 0
 204.621369723 188.109122318 208.970963209 197.50180752 209.838498854 206.577264566 c 0
 210.914580367 217.834360015 206.777424569 229.734822835 195.987706891 240.524540513 c 0
 179.820337389 256.691910016 148.227988754 270.001960895 100 270.001960895 c 0
 97.4401231919 270.001960895 94.8802463838 270.977617992 92.9289321881 272.928932188 c 0
 89.0263037967 276.83156058 89.0263037967 283.16843942 92.9289321881 287.071067812 c 0
 94.8802463838 289.022382008 97.4401231919 289.998039105 100 289.998039105 c 0
 151.654392669 289.998039105 188.767893836 276.028624816 210.129842515 254.666676137 c 0
 221.574668924 243.221849728 228.379791682 229.602192667 229.743199287 215.33932378 c 0
 231.455796835 197.423511813 224.438236388 179.641717736 210.129842515 165.333323863 c 0
 198.040639143 153.244120491 180.906716575 143.522509786 158.947503291 137.360530459 c 1
 170.362832186 131.82764197 180.486382106 124.583709872 189.230080423 115.840011556 c 0
 216.953891036 88.116200943 229.998039105 46.6982002293 229.998039105 3.5527136788e-15 c 0
EndSplineSet
Ligature2: "FlipCores subtable" zcaron quotesingle
LCarets2: 1 320
EndChar

StartChar: Sigma.flip
Encoding: 137 -1 89
Width: 320
Flags: HW
AnchorPoint: "Diacritic_down" 160 -60 basechar 0
AnchorPoint: "Diacritic_up" 160 360 basechar 0
AnchorPoint: "Extension_down" 70 0 basechar 0
AnchorPoint: "Extension_up" 50 280 basechar 0
AnchorPoint: "Diacritic_right" 260 140 basechar 0
AnchorPoint: "Diacritic_left" 100 220 basechar 0
LayerCount: 2
Fore
SplineSet
169.36959125 147.23141952 m 1
 208.164567024 140.305975667 240.541991991 126.659703194 259.701445144 107.50025004 c 0
 270.199137989 97.0025571958 276.998039105 84.2575563476 276.998039105 70 c 0
 276.998039105 55.8589920563 270.251812358 43.1974693625 259.809546603 32.755203607 c 0
 247.229616684 20.1752736883 229.069286413 10.201922033 207.171524313 2.72888569384 c 0
 179.777582511 -6.61982864585 146.284650244 -11.9980391054 110 -11.9980391054 c 0
 96.0159695569 -11.9980391054 82.4752685033 -12.0357796763 68.4696333264 -9.88106657218 c 0
 66.4409578949 -9.56896265963 64.4901607825 -8.6322964062 62.9289321881 -7.07106781187 c 0
 59.0263037967 -3.16843942048 59.0263037967 3.16843942048 62.9289321881 7.07106781187 c 0
 65.2703319852 9.41246760892 68.4879292874 10.3491338624 71.5303666736 9.88106657218 c 0
 83.5247314967 8.03577967631 95.9840304431 7.9980391054 110 7.9980391054 c 0
 144.286080328 7.9980391054 175.771074019 13.147460858 200.690421144 21.6516717341 c 0
 220.643290185 28.4609755675 236.228223355 37.458151607 245.667410979 46.8973392307 c 0
 253.545365648 54.7752938996 257.001960895 62.5443711751 257.001960895 70 c 0
 257.001960895 77.5743812121 253.493044156 85.424379781 245.559309521 93.3581144166 c 0
 228.662359282 110.255064655 192.998075765 124.793355038 148.807498567 130.069841867 c 0
 147.853208216 130.183786984 146.899576094 130.438412607 145.974454703 130.844574197 c 0
 140.923218925 133.062248521 138.622503822 138.963175107 140.839904108 144.013786703 c 0
 141.246015508 144.938793776 141.775693041 145.771536555 142.401084204 146.501159578 c 2
 248.258913904 270.001960895 l 1
 50 270.001960895 l 2
 47.4401231919 270.001960895 44.8802463838 270.977617992 42.9289321881 272.928932188 c 0
 39.0263037967 276.83156058 39.0263037967 283.16843942 42.9289321881 287.071067812 c 0
 44.8802463838 289.022382008 47.4401231919 289.998039105 50 289.998039105 c 2
 270 289.998039105 l 2
 271.151350215 289.998039105 272.322036095 289.797782106 273.464525845 289.375412885 c 0
 278.64136971 287.461575577 281.291492227 281.707478659 279.378855755 276.533883002 c 0
 278.956751549 275.392110107 278.347467649 274.373419163 277.598535845 273.499665392 c 2
 169.36959125 147.23141952 l 1
EndSplineSet
Ligature2: "FlipCores subtable" Sigma quotesingle
LCarets2: 1 320
EndChar

StartChar: ddotbelow.flip
Encoding: 138 -1 90
Width: 320
Flags: HW
AnchorPoint: "Diacritic_right" 320 140 basechar 0
AnchorPoint: "Diacritic_left" 90 140 basechar 0
AnchorPoint: "Diacritic_down" 160 -60 basechar 0
AnchorPoint: "Diacritic_up" 160 360 basechar 0
AnchorPoint: "Extension_down" 40 0 basechar 0
AnchorPoint: "Extension_up" 120 280 basechar 0
LayerCount: 2
Fore
SplineSet
259.701366739 126.156497637 m 1
 249.836818419 136.021045957 l 1
 249.753592836 132.368509014 249.628065757 128.706266682 249.438998322 125.044656216 c 1
 252.7530676 125.283175 256.172541104 125.650779195 259.701366739 126.156497637 c 1
40 -9.9980391054 m 0
 37.4401231919 -9.9980391054 34.8802463838 -9.02238200756 32.9289321881 -7.07106781187 c 0
 29.0263037967 -3.16843942048 29.0263037967 3.16843942048 32.9289321881 7.07106781187 c 0
 34.8802463838 9.02238200756 37.4401231919 9.9980391054 40 9.9980391054 c 0
 132.165247869 9.9980391054 178.808089334 27.4266275459 202.384790255 51.003328467 c 0
 217.299288656 65.9178268677 224.16407711 84.4334248426 227.321066223 105.333662075 c 1
 218.855530066 106.155689835 210.924237594 107.790179212 203.512490233 110.148462464 c 0
 186.148717723 115.673299171 171.872152769 125.096822718 160.336339596 136.632635892 c 0
 137.296155826 159.672819662 125.170340713 190.652985561 118.430496976 217.612360509 c 0
 110.001960895 251.326504833 110.001960895 279.999999996 110.001960895 279.999999996 c 2
 110.001960894 282.559876805 110.977617991 285.119753615 112.928932188 287.071067812 c 0
 116.83156058 290.973696203 123.16843942 290.973696203 127.071067812 287.071067812 c 0
 129.022382007 285.119753617 129.998039104 282.559876811 129.998039105 280.000000004 c 2
 129.998039105 280.000000004 129.92555552 254.093745007 137.827187321 222.487217807 c 0
 144.09349102 197.422003007 155.378741294 169.874505441 174.478475219 150.774771516 c 0
 186.388482466 138.864764269 201.317150142 130.012157653 220.73162732 126.424699913 c 0
 223.490040651 125.914993102 226.346740867 125.511436076 229.306033187 125.223874851 c 1
 229.951578452 136.362745832 230.001960895 148.005664054 230.001960895 160 c 0
 230.001960895 161.274162299 230.247044265 162.569169861 230.764637093 163.818808948 c 0
 232.876481752 168.917495573 238.730321927 171.342514116 243.828765942 169.230769945 c 0
 245.078345565 168.713201746 246.167317663 167.970841534 247.068256149 167.069903049 c 2
 287.071067812 127.071067812 l 2
 287.695177409 126.446958215 288.246289586 125.729327279 288.70231359 124.92429853 c 0
 291.42275484 120.121846466 289.735624619 114.016022852 284.937112299 111.297813346 c 0
 284.132743964 110.842163447 283.291679959 110.510441643 282.436011039 110.296524413 c 0
 270.069840203 107.204981704 258.471817159 105.456423386 247.618493347 104.909398246 c 1
 244.249566046 80.2271373098 236.121799128 56.4560660923 216.526925879 36.8611928433 c 0
 186.90619638 7.24046334444 134.025758601 -9.9980391054 40 -9.9980391054 c 0
EndSplineSet
Ligature2: "FlipCores subtable" ddotbelow quotesingle
LCarets2: 1 320
EndChar

StartChar: a
Encoding: 27 97 91
Width: 320
Flags: HW
AnchorPoint: "Diacritic_mkmk" 157 140 mark 0
LayerCount: 2
Fore
SplineSet
169.998039105 140 m 0
 169.998039105 137.42585511 169.324932403 133.682796779 166.321067812 130.678932188 c 0
 163.317203221 127.675067597 159.57414489 127.001960895 157 127.001960895 c 0
 154.42585511 127.001960895 150.682796779 127.675067597 147.678932188 130.678932188 c 0
 144.675067597 133.682796779 144.001960895 137.42585511 144.001960895 140 c 0
 144.001960895 142.57414489 144.675067597 146.317203221 147.678932188 149.321067812 c 0
 150.682796779 152.324932403 154.42585511 152.998039105 157 152.998039105 c 0
 159.57414489 152.998039105 163.317203221 152.324932403 166.321067812 149.321067812 c 0
 169.324932403 146.317203221 169.998039105 142.57414489 169.998039105 140 c 0
EndSplineSet
EndChar

StartChar: e
Encoding: 31 101 92
Width: 320
Flags: HW
AnchorPoint: "Diacritic_mkmk" 190 140 mark 0
LayerCount: 2
Fore
SplineSet
160 130.001960895 m 2
 157.440123192 130.001960895 154.880246384 130.977617992 152.928932188 132.928932188 c 0
 149.026303797 136.83156058 149.026303797 143.16843942 152.928932188 147.071067812 c 0
 154.880246384 149.022382008 157.440123192 149.998039105 160 149.998039105 c 2
 220 149.998039105 l 2
 225.253549549 149.998039105 230.478823534 148.16331209 234.321067812 144.321067812 c 0
 238.16331209 140.478823534 239.998039105 135.253549549 239.998039105 130 c 0
 239.998039105 124.746450451 238.16331209 119.521176466 234.321067812 115.678932188 c 0
 230.478823534 111.83668791 225.253549549 110.001960895 220 110.001960895 c 0
 217.440123192 110.001960895 214.880246384 110.977617992 212.928932188 112.928932188 c 0
 209.026303797 116.83156058 209.026303797 123.16843942 212.928932188 127.071067812 c 0
 214.880246384 129.022382008 217.440123192 129.998039105 220 130 c 0
 220 130.001960895 160 130.001960895 160 130.001960895 c 2
220.475584101 129.960878829 m 1
 220.485042372 129.953926547 l 1
 220.475584101 129.960878829 l 1
220.001960365 130.001960608 m 1
 220 130 l 1
 220.001961827 129.998039637 l 1
 220.001960895 130 l 1
 220.001960365 130.001960608 l 1
219.960878829 129.524415899 m 1
 219.953926547 129.514957628 l 1
 219.960878829 129.524415899 l 1
EndSplineSet
EndChar

StartChar: i
Encoding: 35 105 93
Width: 320
Flags: HW
AnchorPoint: "Diacritic_mkmk" 200 100 mark 0
LayerCount: 2
Fore
SplineSet
152.928932188 132.928932188 m 2
 149.026303797 136.83156058 149.026303797 143.16843942 152.928932188 147.071067812 c 0
 156.83156058 150.973696203 163.16843942 150.973696203 167.071067812 147.071067812 c 2
 247.071067812 67.0710678119 l 2
 250.973696203 63.1684394205 250.973696203 56.8315605795 247.071067812 52.9289321881 c 0
 243.16843942 49.0263037967 236.83156058 49.0263037967 232.928932188 52.9289321881 c 2
 152.928932188 132.928932188 l 2
EndSplineSet
EndChar

